<svg width="298" height="62" viewBox="0 0 298 62" fill="none" xmlns="http://www.w3.org/2000/svg">
<path d="M0.6215 5.656V0.279999H2.7975V5.656H0.6215ZM0.6215 47V13.72H2.7975V47H0.6215ZM23.2945 47.64C20.7345 47.64 18.3452 47.192 16.1265 46.296C13.9505 45.4 12.0305 44.056 10.3665 42.264L11.5185 40.728C13.2678 42.4347 15.0812 43.6933 16.9585 44.504C18.8358 45.3147 20.9265 45.72 23.2305 45.72C26.3025 45.72 28.7985 45.0587 30.7185 43.736C32.6812 42.4133 33.6625 40.5787 33.6625 38.232C33.6625 36.696 33.2145 35.5013 32.3185 34.648C31.4652 33.7947 30.2065 33.112 28.5425 32.6C26.9212 32.0453 24.9372 31.4907 22.5905 30.936C20.2865 30.3387 18.3665 29.7627 16.8305 29.208C15.3372 28.6107 14.2065 27.8213 13.4385 26.84C12.6705 25.8587 12.2865 24.4933 12.2865 22.744C12.2865 20.568 12.8198 18.776 13.8865 17.368C14.9958 15.96 16.4465 14.9147 18.2385 14.232C20.0732 13.5493 22.0785 13.208 24.2545 13.208C26.8998 13.208 29.1825 13.656 31.1025 14.552C33.0225 15.4053 34.4092 16.536 35.2625 17.944L33.8545 19.16C32.9585 17.8373 31.5932 16.8347 29.7585 16.152C27.9665 15.4693 26.0465 15.128 23.9985 15.128C22.2918 15.128 20.7132 15.384 19.2625 15.896C17.8118 16.3653 16.6385 17.1547 15.7425 18.264C14.8465 19.3307 14.3985 20.7173 14.3985 22.424C14.3985 23.832 14.6972 24.92 15.2945 25.688C15.9345 26.456 16.8945 27.0747 18.1745 27.544C19.4545 27.9707 21.0972 28.44 23.1025 28.952C25.7052 29.592 27.9452 30.232 29.8225 30.872C31.7425 31.512 33.2145 32.3867 34.2385 33.496C35.2625 34.5627 35.7745 36.056 35.7745 37.976C35.7745 40.9627 34.6225 43.3307 32.3185 45.08C30.0572 46.7867 27.0492 47.64 23.2945 47.64ZM60.504 0.279999H62.744V41.304C62.744 42.6693 63.0853 43.6933 63.768 44.376C64.4933 45.016 65.432 45.336 66.584 45.336C67.1813 45.336 67.8213 45.272 68.504 45.144C69.1867 45.016 69.8053 44.8667 70.36 44.696L70.872 46.488C70.232 46.7013 69.4213 46.8933 68.44 47.064C67.4587 47.2347 66.648 47.32 66.008 47.32C64.344 47.32 63 46.808 61.976 45.784C60.9947 44.76 60.504 43.416 60.504 41.752V0.279999ZM89.691 47.64C86.7043 47.64 83.995 46.8507 81.563 45.272C79.131 43.6933 77.211 41.6027 75.803 39C74.395 36.3973 73.691 33.56 73.691 30.488C73.691 28.1413 74.0963 25.9227 74.907 23.832C75.7603 21.7413 76.9123 19.9067 78.363 18.328C79.8563 16.7493 81.563 15.512 83.483 14.616C85.403 13.6773 87.4723 13.208 89.691 13.208C91.9097 13.208 93.979 13.6773 95.899 14.616C97.8617 15.512 99.5683 16.7493 101.019 18.328C102.512 19.9067 103.664 21.7413 104.475 23.832C105.328 25.9227 105.755 28.1413 105.755 30.488C105.755 32.792 105.328 34.9893 104.475 37.08C103.664 39.128 102.534 40.9413 101.083 42.52C99.6323 44.0987 97.9257 45.3573 95.963 46.296C94.043 47.192 91.9523 47.64 89.691 47.64ZM75.867 30.552C75.867 33.3253 76.4857 35.864 77.723 38.168C79.003 40.4293 80.667 42.2427 82.715 43.608C84.8057 44.9307 87.1097 45.592 89.627 45.592C92.187 45.592 94.5123 44.9093 96.603 43.544C98.6937 42.1787 100.358 40.344 101.595 38.04C102.875 35.6933 103.515 33.1547 103.515 30.424C103.515 27.6507 102.875 25.1333 101.595 22.872C100.358 20.568 98.6937 18.7333 96.603 17.368C94.5123 15.96 92.2083 15.256 89.691 15.256C87.2163 15.256 84.9123 15.96 82.779 17.368C80.6883 18.7333 79.003 20.5893 77.723 22.936C76.4857 25.24 75.867 27.7787 75.867 30.552ZM110.931 37.464C110.931 35.544 111.507 33.8587 112.659 32.408C113.853 30.9573 115.475 29.8267 117.523 29.016C119.613 28.1627 122.024 27.736 124.755 27.736C126.547 27.736 128.403 27.9067 130.323 28.248C132.243 28.5467 133.971 28.9733 135.507 29.528V26.008C135.507 22.7653 134.547 20.1627 132.627 18.2C130.749 16.1947 128.211 15.192 125.01 15.192C123.389 15.192 121.661 15.5547 119.827 16.28C117.992 16.9627 116.157 17.944 114.323 19.224L113.235 17.624C117.544 14.68 121.512 13.208 125.139 13.208C128.979 13.208 132.029 14.3813 134.291 16.728C136.552 19.032 137.683 22.168 137.683 26.136V43.672C137.683 44.6107 138.067 45.08 138.835 45.08V47C138.195 47.0427 137.789 47.0213 137.619 46.936C137.021 46.808 136.552 46.488 136.211 45.976C135.869 45.464 135.677 44.9093 135.635 44.312V41.432C134.099 43.3947 132.093 44.9307 129.619 46.04C127.187 47.1067 124.605 47.64 121.875 47.64C119.784 47.64 117.907 47.192 116.243 46.296C114.621 45.3573 113.32 44.12 112.339 42.584C111.4 41.048 110.931 39.3413 110.931 37.464ZM134.355 40.344C135.123 39.3627 135.507 38.424 135.507 37.528V31.448C132.221 30.168 128.68 29.528 124.883 29.528C121.341 29.528 118.483 30.2533 116.307 31.704C114.131 33.112 113.043 34.9893 113.043 37.336C113.043 38.872 113.427 40.28 114.195 41.56C115.005 42.84 116.093 43.864 117.459 44.632C118.824 45.4 120.381 45.784 122.131 45.784C124.776 45.784 127.187 45.2933 129.363 44.312C131.581 43.288 133.245 41.9653 134.355 40.344ZM145.316 30.488C145.316 27.416 145.977 24.5787 147.3 21.976C148.623 19.3307 150.436 17.2187 152.74 15.64C155.087 14.0187 157.732 13.208 160.676 13.208C163.663 13.208 166.287 14.0187 168.548 15.64C170.852 17.2187 172.665 19.096 173.988 21.272V0.279999H176.164V43.672C176.164 44.6107 176.548 45.08 177.316 45.08V47C176.804 47.0427 176.42 47.0213 176.164 46.936C175.567 46.808 175.076 46.488 174.692 45.976C174.308 45.4213 174.116 44.8453 174.116 44.248V40.216C172.751 42.4347 170.895 44.2267 168.548 45.592C166.244 46.9573 163.833 47.64 161.316 47.64C159.012 47.64 156.879 47.1707 154.916 46.232C152.953 45.2507 151.247 43.9493 149.796 42.328C148.388 40.664 147.279 38.808 146.468 36.76C145.7 34.712 145.316 32.6213 145.316 30.488ZM173.988 35.992V24.536C173.391 22.8293 172.388 21.272 170.98 19.864C169.572 18.456 167.993 17.3467 166.244 16.536C164.495 15.6827 162.745 15.256 160.996 15.256C158.265 15.256 155.897 16.0027 153.892 17.496C151.887 18.9467 150.329 20.8453 149.22 23.192C148.111 25.496 147.556 27.928 147.556 30.488C147.556 33.1333 148.175 35.608 149.412 37.912C150.692 40.216 152.377 42.072 154.468 43.48C156.601 44.888 158.969 45.592 161.572 45.592C162.809 45.592 164.111 45.3573 165.476 44.888C166.884 44.376 168.207 43.672 169.444 42.776C170.724 41.88 171.769 40.856 172.58 39.704C173.433 38.5093 173.903 37.272 173.988 35.992ZM186.684 5.656V0.279999H188.86V5.656H186.684ZM186.684 47V13.72H188.86V47H186.684ZM225.805 47H223.629V28.44C223.629 23.8747 222.968 20.5467 221.645 18.456C220.365 16.3227 218.317 15.256 215.501 15.256C213.496 15.256 211.533 15.7467 209.613 16.728C207.693 17.6667 206.008 18.968 204.557 20.632C203.106 22.2533 202.082 24.1093 201.485 26.2V47H199.309V13.72H201.421V22.04C202.317 20.2907 203.512 18.7547 205.005 17.432C206.541 16.1093 208.248 15.0853 210.125 14.36C212.002 13.592 213.922 13.208 215.885 13.208C219.384 13.208 221.901 14.4667 223.437 16.984C225.016 19.5013 225.805 23.2347 225.805 28.184V47ZM249.313 47.576C247.009 47.576 244.897 47.1067 242.977 46.168C241.057 45.1867 239.372 43.8853 237.921 42.264C236.513 40.6 235.404 38.7653 234.593 36.76C233.825 34.712 233.441 32.6213 233.441 30.488C233.441 28.2267 233.804 26.072 234.529 24.024C235.297 21.9333 236.364 20.0773 237.729 18.456C239.137 16.8347 240.78 15.5547 242.657 14.616C244.534 13.6773 246.625 13.208 248.929 13.208C251.873 13.208 254.433 13.9973 256.609 15.576C258.785 17.1547 260.662 19.0533 262.241 21.272V13.72H264.289V48.024C264.289 51.0107 263.564 53.4853 262.113 55.448C260.705 57.4107 258.849 58.8613 256.545 59.8C254.241 60.7813 251.766 61.272 249.121 61.272C245.238 61.272 242.166 60.5467 239.905 59.096C237.686 57.688 235.916 55.8107 234.593 53.464L236.257 52.568C237.58 54.9573 239.393 56.6853 241.697 57.752C244.044 58.8187 246.518 59.352 249.121 59.352C251.51 59.352 253.686 58.9253 255.649 58.072C257.612 57.2187 259.169 55.96 260.321 54.296C261.516 52.632 262.113 50.5413 262.113 48.024V40.216C260.748 42.392 258.892 44.1627 256.545 45.528C254.241 46.8933 251.83 47.576 249.313 47.576ZM249.697 45.592C251.702 45.592 253.622 45.1227 255.457 44.184C257.292 43.2027 258.806 41.9867 260.001 40.536C261.238 39.0427 261.942 37.528 262.113 35.992V24.536C261.43 22.744 260.406 21.144 259.041 19.736C257.718 18.328 256.182 17.24 254.433 16.472C252.726 15.6613 250.956 15.256 249.121 15.256C246.988 15.256 245.089 15.704 243.425 16.6C241.761 17.496 240.353 18.6907 239.201 20.184C238.049 21.6347 237.174 23.256 236.577 25.048C235.98 26.84 235.681 28.6533 235.681 30.488C235.681 33.1333 236.3 35.608 237.537 37.912C238.774 40.216 240.46 42.072 242.593 43.48C244.726 44.888 247.094 45.592 249.697 45.592ZM273.852 47V42.264H275.836V47H273.852ZM284.54 47V42.264H286.524V47H284.54ZM295.227 47V42.264H297.211V47H295.227Z" fill="white"/>
<path d="M0.6215 5.656H-0.3785V6.656H0.6215V5.656ZM0.6215 0.279999V-0.720001H-0.3785V0.279999H0.6215ZM2.7975 0.279999H3.7975V-0.720001H2.7975V0.279999ZM2.7975 5.656V6.656H3.7975V5.656H2.7975ZM0.6215 47H-0.3785V48H0.6215V47ZM0.6215 13.72V12.72H-0.3785V13.72H0.6215ZM2.7975 13.72H3.7975V12.72H2.7975V13.72ZM2.7975 47V48H3.7975V47H2.7975ZM1.6215 5.656V0.279999H-0.3785V5.656H1.6215ZM0.6215 1.28H2.7975V-0.720001H0.6215V1.28ZM1.7975 0.279999V5.656H3.7975V0.279999H1.7975ZM2.7975 4.656H0.6215V6.656H2.7975V4.656ZM1.6215 47V13.72H-0.3785V47H1.6215ZM0.6215 14.72H2.7975V12.72H0.6215V14.72ZM1.7975 13.72V47H3.7975V13.72H1.7975ZM2.7975 46H0.6215V48H2.7975V46ZM16.1265 46.296L15.7457 47.2207L15.752 47.2232L16.1265 46.296ZM10.3665 42.264L9.5665 41.664L9.06528 42.3323L9.63371 42.9445L10.3665 42.264ZM11.5185 40.728L12.2168 40.0122L11.4017 39.217L10.7185 40.128L11.5185 40.728ZM16.9585 44.504L17.3549 43.5859L16.9585 44.504ZM30.7185 43.736L30.1596 42.9067L30.1512 42.9125L30.7185 43.736ZM32.3185 34.648L31.6114 35.3551L31.62 35.3637L31.6288 35.3721L32.3185 34.648ZM28.5425 32.6L28.2188 33.5462L28.2335 33.5512L28.2484 33.5558L28.5425 32.6ZM22.5905 30.936L22.3395 31.904L22.35 31.9067L22.3605 31.9092L22.5905 30.936ZM16.8305 29.208L16.4591 30.1365L16.4749 30.1428L16.4909 30.1486L16.8305 29.208ZM13.4385 26.84L14.226 26.2237L13.4385 26.84ZM13.8865 17.368L13.101 16.7491L13.0951 16.7566L13.0894 16.7641L13.8865 17.368ZM18.2385 14.232L17.8898 13.2947L17.8825 13.2975L18.2385 14.232ZM31.1025 14.552L30.6796 15.4582L30.688 15.4621L30.6964 15.4658L31.1025 14.552ZM35.2625 17.944L35.9161 18.7008L36.5557 18.1484L36.1177 17.4257L35.2625 17.944ZM33.8545 19.16L33.0266 19.7208L33.6572 20.6517L34.5081 19.9168L33.8545 19.16ZM29.7585 16.152L29.4025 17.0865L29.4098 17.0892L29.7585 16.152ZM19.2625 15.896L19.5703 16.8474L19.5829 16.8434L19.5953 16.839L19.2625 15.896ZM15.7425 18.264L16.5082 18.9072L16.5144 18.8998L16.5204 18.8923L15.7425 18.264ZM15.2945 25.688L14.5051 26.3019L14.5155 26.3152L14.5263 26.3282L15.2945 25.688ZM18.1745 27.544L17.8302 28.4829L17.8442 28.488L17.8583 28.4927L18.1745 27.544ZM23.1025 28.952L22.8551 29.921L22.8637 29.9231L23.1025 28.952ZM29.8225 30.872L29.4998 31.8185L29.5063 31.8207L29.8225 30.872ZM34.2385 33.496L33.5037 34.1743L33.5103 34.1815L33.5171 34.1885L34.2385 33.496ZM32.3185 45.08L32.9209 45.8782L32.9232 45.8764L32.3185 45.08ZM23.2945 46.64C20.8538 46.64 18.5925 46.2134 16.501 45.3688L15.752 47.2232C18.0978 48.1706 20.6152 48.64 23.2945 48.64V46.64ZM16.5072 45.3713C14.4701 44.5325 12.6689 43.2739 11.0993 41.5835L9.63371 42.9445C11.3921 44.8381 13.4309 46.2675 15.7458 47.2207L16.5072 45.3713ZM11.1665 42.864L12.3185 41.328L10.7185 40.128L9.5665 41.664L11.1665 42.864ZM10.8202 41.4438C12.6403 43.2195 14.5531 44.5545 16.5621 45.4221L17.3549 43.5859C15.6093 42.8321 13.8954 41.6498 12.2168 40.0122L10.8202 41.4438ZM16.5621 45.4221C18.5795 46.2932 20.8074 46.72 23.2305 46.72V44.72C21.0456 44.72 19.0922 44.3361 17.3549 43.5859L16.5621 45.4221ZM23.2305 46.72C26.4416 46.72 29.1533 46.0285 31.2858 44.5595L30.1512 42.9125C28.4437 44.0888 26.1634 44.72 23.2305 44.72V46.72ZM31.2774 44.5653C33.513 43.0587 34.6625 40.9147 34.6625 38.232H32.6625C32.6625 40.2427 31.8494 41.768 30.1596 42.9067L31.2774 44.5653ZM34.6625 38.232C34.6625 36.4928 34.1482 35.0096 33.0082 33.9239L31.6288 35.3721C32.2808 35.9931 32.6625 36.8992 32.6625 38.232H34.6625ZM33.0256 33.9409C32.0172 32.9325 30.5921 32.1844 28.8366 31.6442L28.2484 33.5558C29.8209 34.0396 30.9131 34.6568 31.6114 35.3551L33.0256 33.9409ZM28.8662 31.6538C27.2045 31.0854 25.1872 30.5222 22.8205 29.9628L22.3605 31.9092C24.6871 32.4591 26.6378 33.0053 28.2188 33.5462L28.8662 31.6538ZM22.8415 29.968C20.5552 29.3753 18.6672 28.808 17.1701 28.2674L16.4909 30.1486C18.0658 30.7173 20.0178 31.3021 22.3395 31.904L22.8415 29.968ZM17.2019 28.2795C15.8258 27.7291 14.858 27.0313 14.226 26.2237L12.651 27.4563C13.555 28.6114 14.8485 29.4922 16.4591 30.1365L17.2019 28.2795ZM14.226 26.2237C13.6417 25.4771 13.2865 24.3583 13.2865 22.744H11.2865C11.2865 24.6283 11.6993 26.2402 12.651 27.4563L14.226 26.2237ZM13.2865 22.744C13.2865 20.7344 13.7767 19.169 14.6836 17.9719L13.0894 16.7641C11.863 18.383 11.2865 20.4016 11.2865 22.744H13.2865ZM14.672 17.9869C15.6615 16.731 16.9593 15.7894 18.5945 15.1665L17.8825 13.2975C15.9337 14.0399 14.3302 15.189 13.101 16.7491L14.672 17.9869ZM18.5872 15.1692C20.2986 14.5324 22.1843 14.208 24.2545 14.208V12.208C21.9727 12.208 19.8478 12.5662 17.8898 13.2948L18.5872 15.1692ZM24.2545 14.208C26.789 14.208 28.9207 14.6374 30.6796 15.4582L31.5254 13.6458C29.4443 12.6746 27.0106 12.208 24.2545 12.208V14.208ZM30.6964 15.4658C32.4813 16.2591 33.6856 17.2716 34.4073 18.4623L36.1177 17.4257C35.1327 15.8004 33.5637 14.5515 31.5086 13.6382L30.6964 15.4658ZM34.6089 17.1872L33.2009 18.4032L34.5081 19.9168L35.9161 18.7008L34.6089 17.1872ZM34.6824 18.5991C33.6456 17.0686 32.0923 15.9534 30.1072 15.2148L29.4098 17.0892C31.0941 17.7159 32.2714 18.6061 33.0266 19.7208L34.6824 18.5991ZM30.1145 15.2175C28.2013 14.4887 26.1598 14.128 23.9985 14.128V16.128C25.9332 16.128 27.7317 16.45 29.4025 17.0865L30.1145 15.2175ZM23.9985 14.128C22.1908 14.128 20.4983 14.3994 18.9297 14.953L19.5953 16.839C20.928 16.3686 22.3929 16.128 23.9985 16.128V14.128ZM18.9547 14.9446C17.3327 15.4693 15.9911 16.3647 14.9646 17.6357L16.5204 18.8923C17.2859 17.9447 18.291 17.2613 19.5703 16.8474L18.9547 14.9446ZM14.9768 17.6208C13.8975 18.9056 13.3985 20.537 13.3985 22.424H15.3985C15.3985 20.8977 15.7955 19.7557 16.5082 18.9072L14.9768 17.6208ZM13.3985 22.424C13.3985 23.9581 13.7221 25.2951 14.5051 26.3019L16.0839 25.0741C15.6723 24.5449 15.3985 23.7059 15.3985 22.424H13.3985ZM14.5263 26.3282C15.3126 27.2717 16.4427 27.9741 17.8302 28.4829L18.5188 26.6051C17.3463 26.1752 16.5564 25.6403 16.0627 25.0478L14.5263 26.3282ZM17.8583 28.4927C19.1695 28.9298 20.8374 29.4058 22.8551 29.9209L23.3499 27.9831C21.3569 27.4742 19.7395 27.0116 18.4907 26.5953L17.8583 28.4927ZM22.8637 29.9231C25.4472 30.5583 27.6577 31.1905 29.4998 31.8185L30.1452 29.9255C28.2326 29.2735 25.9632 28.6256 23.3413 27.9809L22.8637 29.9231ZM29.5063 31.8207C31.3186 32.4248 32.6266 33.224 33.5037 34.1743L34.9733 32.8177C33.8024 31.5493 32.1664 30.5992 30.1387 29.9233L29.5063 31.8207ZM33.5171 34.1885C34.3138 35.0184 34.7745 36.2343 34.7745 37.976H36.7745C36.7745 35.8777 36.2112 34.1069 34.9599 32.8035L33.5171 34.1885ZM34.7745 37.976C34.7745 40.6619 33.7594 42.7304 31.7138 44.2836L32.9232 45.8764C35.4856 43.931 36.7745 41.2635 36.7745 37.976H34.7745ZM31.7161 44.2818C29.6772 45.8206 26.9022 46.64 23.2945 46.64V48.64C27.1961 48.64 30.4372 47.7527 32.9209 45.8782L31.7161 44.2818ZM60.504 0.279999V-0.720001H59.504V0.279999H60.504ZM62.744 0.279999H63.744V-0.720001H62.744V0.279999ZM63.768 44.376L63.0609 45.0831L63.083 45.1052L63.1064 45.1258L63.768 44.376ZM70.36 44.696L71.3215 44.4213L71.0412 43.4401L70.0659 43.7402L70.36 44.696ZM70.872 46.488L71.1882 47.4367L72.0966 47.1339L71.8335 46.2133L70.872 46.488ZM68.44 47.064L68.2687 46.0788L68.44 47.064ZM61.976 45.784L61.254 46.4759L61.2614 46.4836L61.2689 46.4911L61.976 45.784ZM60.504 1.28H62.744V-0.720001H60.504V1.28ZM61.744 0.279999V41.304H63.744V0.279999H61.744ZM61.744 41.304C61.744 42.8235 62.1245 44.1468 63.0609 45.0831L64.4751 43.6689C64.0461 43.2399 63.744 42.5152 63.744 41.304H61.744ZM63.1064 45.1258C64.0481 45.9567 65.2373 46.336 66.584 46.336V44.336C65.6267 44.336 64.9386 44.0753 64.4296 43.6262L63.1064 45.1258ZM66.584 46.336C67.2522 46.336 67.9544 46.2645 68.6883 46.1269L68.3197 44.1611C67.6883 44.2795 67.1105 44.336 66.584 44.336V46.336ZM68.6883 46.1269C69.4011 45.9932 70.0572 45.8354 70.6541 45.6518L70.0659 43.7402C69.5535 43.8979 68.9723 44.0388 68.3197 44.1611L68.6883 46.1269ZM69.3985 44.9707L69.9105 46.7627L71.8335 46.2133L71.3215 44.4213L69.3985 44.9707ZM70.5558 45.5393C69.9796 45.7314 69.2217 45.913 68.2687 46.0788L68.6113 48.0492C69.621 47.8736 70.4844 47.6713 71.1882 47.4367L70.5558 45.5393ZM68.2687 46.0788C67.3165 46.2444 66.5682 46.32 66.008 46.32V48.32C66.7278 48.32 67.6009 48.2249 68.6113 48.0492L68.2687 46.0788ZM66.008 46.32C64.5663 46.32 63.4913 45.8851 62.6831 45.0769L61.2689 46.4911C62.5087 47.7309 64.1217 48.32 66.008 48.32V46.32ZM62.698 45.0921C61.9256 44.2861 61.504 43.206 61.504 41.752H59.504C59.504 43.626 60.0637 45.2339 61.254 46.4759L62.698 45.0921ZM61.504 41.752V0.279999H59.504V41.752H61.504ZM81.563 45.272L82.1075 44.4332L81.563 45.272ZM75.803 39L74.9235 39.4758L75.803 39ZM74.907 23.832L73.9812 23.4541L73.9778 23.4623L73.9746 23.4705L74.907 23.832ZM78.363 18.328L77.6365 17.6408L77.6316 17.6461L77.6267 17.6514L78.363 18.328ZM83.483 14.616L83.9059 15.5222L83.9141 15.5184L83.9222 15.5144L83.483 14.616ZM95.899 14.616L95.4598 15.5144L95.4717 15.5202L95.4837 15.5257L95.899 14.616ZM101.019 18.328L100.283 19.0046L100.288 19.0099L100.293 19.0152L101.019 18.328ZM104.475 23.832L103.543 24.1935L103.546 24.2017L103.549 24.2099L104.475 23.832ZM104.475 37.08L103.549 36.7021L103.545 36.712L104.475 37.08ZM101.083 42.52L101.819 43.1966L101.083 42.52ZM95.963 46.296L96.3859 47.2022L96.3945 47.1981L95.963 46.296ZM77.723 38.168L76.842 38.6411L76.8473 38.6509L76.8527 38.6606L77.723 38.168ZM82.715 43.608L82.1603 44.44L82.1702 44.4467L82.1804 44.4531L82.715 43.608ZM96.603 43.544L96.0562 42.7067L96.603 43.544ZM101.595 38.04L100.717 37.5611L100.714 37.5669L101.595 38.04ZM101.595 22.872L100.714 23.3451L100.719 23.3549L100.725 23.3646L101.595 22.872ZM96.603 17.368L96.0444 18.1974L96.0503 18.2014L96.0562 18.2053L96.603 17.368ZM82.779 17.368L83.3258 18.2053L83.3298 18.2026L82.779 17.368ZM77.723 22.936L76.8451 22.4571L76.842 22.4629L77.723 22.936ZM89.691 46.64C86.8914 46.64 84.3723 45.9034 82.1075 44.4332L81.0185 46.1108C83.6177 47.798 86.5172 48.64 89.691 48.64V46.64ZM82.1075 44.4332C79.8187 42.9476 78.0127 40.9829 76.6825 38.5242L74.9235 39.4758C76.4093 42.2224 78.4433 44.4391 81.0185 46.1108L82.1075 44.4332ZM76.6825 38.5242C75.3567 36.0733 74.691 33.4004 74.691 30.488H72.691C72.691 33.7196 73.4333 36.7213 74.9235 39.4758L76.6825 38.5242ZM74.691 30.488C74.691 28.2592 75.0755 26.1636 75.8394 24.1935L73.9746 23.4705C73.1172 25.6817 72.691 28.0235 72.691 30.488H74.691ZM75.8328 24.2099C76.6437 22.2234 77.7333 20.4912 79.0993 19.0046L77.6267 17.6514C76.0914 19.3222 74.877 21.2593 73.9812 23.4541L75.8328 24.2099ZM79.0895 19.0152C80.4986 17.5256 82.1029 16.3636 83.9059 15.5222L83.0601 13.7098C81.0231 14.6604 79.2141 15.9731 77.6365 17.6408L79.0895 19.0152ZM83.9222 15.5144C85.7002 14.6452 87.6186 14.208 89.691 14.208V12.208C87.3261 12.208 85.1058 12.7095 83.0438 13.7176L83.9222 15.5144ZM89.691 14.208C91.7634 14.208 93.6818 14.6452 95.4598 15.5144L96.3382 13.7176C94.2762 12.7095 92.0559 12.208 89.691 12.208V14.208ZM95.4837 15.5257C97.3257 16.3666 98.923 17.5249 100.283 19.0046L101.755 17.6514C100.214 15.9737 98.3977 14.6574 96.3143 13.7063L95.4837 15.5257ZM100.293 19.0152C101.694 20.4967 102.777 22.2198 103.543 24.1935L105.407 23.4705C104.551 21.2629 103.331 19.3167 101.745 17.6408L100.293 19.0152ZM103.549 24.2099C104.352 26.1759 104.755 28.2657 104.755 30.488H106.755C106.755 28.0169 106.305 25.6694 105.401 23.4541L103.549 24.2099ZM104.755 30.488C104.755 32.6651 104.353 34.7339 103.549 36.7021L105.401 37.4579C106.304 35.2448 106.755 32.9189 106.755 30.488H104.755ZM103.545 36.712C102.778 38.6493 101.712 40.3573 100.347 41.8434L101.819 43.1966C103.355 41.5253 104.55 39.6067 105.405 37.448L103.545 36.712ZM100.347 41.8434C98.9836 43.3267 97.3809 44.5094 95.5315 45.3939L96.3945 47.1981C98.4705 46.2053 100.281 44.8706 101.819 43.1966L100.347 41.8434ZM95.5401 45.3898C93.7613 46.2199 91.8162 46.64 89.691 46.64V48.64C92.0884 48.64 94.3247 48.1641 96.3859 47.2022L95.5401 45.3898ZM74.867 30.552C74.867 33.4802 75.5218 36.1829 76.842 38.6411L78.604 37.6949C77.4495 35.5451 76.867 33.1705 76.867 30.552H74.867ZM76.8527 38.6606C78.2055 41.0504 79.9747 42.983 82.1603 44.44L83.2697 42.776C81.3593 41.5023 79.8005 39.8082 78.5933 37.6754L76.8527 38.6606ZM82.1804 44.4531C84.4339 45.8788 86.9239 46.592 89.627 46.592V44.592C87.2954 44.592 85.1774 43.9825 83.2496 42.7629L82.1804 44.4531ZM89.627 46.592C92.376 46.592 94.8922 45.8556 97.1498 44.3813L96.0562 42.7067C94.1324 43.9631 91.998 44.592 89.627 44.592V46.592ZM97.1498 44.3813C99.3873 42.92 101.163 40.9573 102.476 38.5131L100.714 37.5669C99.552 39.7307 98 41.4373 96.0562 42.7067L97.1498 44.3813ZM102.473 38.5189C103.835 36.022 104.515 33.3182 104.515 30.424H102.515C102.515 32.9911 101.915 35.3646 100.717 37.5611L102.473 38.5189ZM104.515 30.424C104.515 27.49 103.836 24.8011 102.465 22.3794L100.725 23.3646C101.914 25.4656 102.515 27.8113 102.515 30.424H104.515ZM102.476 22.3989C101.163 19.9547 99.3873 17.992 97.1498 16.5307L96.0562 18.2053C98 19.4747 99.552 21.1813 100.714 23.3451L102.476 22.3989ZM97.1616 16.5386C94.9061 15.0195 92.4076 14.256 89.691 14.256V16.256C92.009 16.256 94.1186 16.9005 96.0444 18.1974L97.1616 16.5386ZM89.691 14.256C87.0138 14.256 84.5193 15.0213 82.2282 16.5334L83.3298 18.2026C85.3054 16.8987 87.4189 16.256 89.691 16.256V14.256ZM82.2322 16.5307C79.9936 17.9927 78.1984 19.976 76.8451 22.4571L78.6009 23.4149C79.8075 21.2026 81.3831 19.474 83.3258 18.2053L82.2322 16.5307ZM76.842 22.4629C75.5218 24.9211 74.867 27.6238 74.867 30.552H76.867C76.867 27.9335 77.4495 25.5589 78.604 23.4091L76.842 22.4629ZM112.659 32.408L111.887 31.7723L111.881 31.7792L111.875 31.7861L112.659 32.408ZM117.522 29.016L117.891 29.9459L117.9 29.9418L117.522 29.016ZM130.322 28.248L130.147 29.2326L130.158 29.2345L130.169 29.2361L130.322 28.248ZM135.507 29.528L135.167 30.4686L136.507 30.9523V29.528H135.507ZM132.626 18.2L131.896 18.8834L131.904 18.8914L131.912 18.8993L132.626 18.2ZM119.826 16.28L120.175 17.2172L120.185 17.2137L120.194 17.21L119.826 16.28ZM114.323 19.224L113.496 19.7863L114.065 20.6232L114.895 20.0441L114.323 19.224ZM113.234 17.624L112.67 16.7983L111.846 17.3612L112.408 18.1863L113.234 17.624ZM134.29 16.728L133.57 17.4219L133.577 17.4285L134.29 16.728ZM138.835 45.08H139.835V44.08H138.835V45.08ZM138.835 47L138.901 47.9978L139.835 47.9356V47H138.835ZM137.618 46.936L138.066 46.0416L137.952 45.9848L137.828 45.9582L137.618 46.936ZM136.21 45.976L135.378 46.5307L136.21 45.976ZM135.635 44.312H134.635V44.3477L134.637 44.3832L135.635 44.312ZM135.635 41.432H136.635V38.5317L134.847 40.8157L135.635 41.432ZM129.618 46.04L130.02 46.9558L130.028 46.9525L129.618 46.04ZM116.243 46.296L115.741 47.1614L115.755 47.1692L115.768 47.1765L116.243 46.296ZM112.339 42.584L111.485 43.1054L111.49 43.114L111.496 43.1224L112.339 42.584ZM134.355 40.344L133.567 39.7277L133.547 39.7529L133.529 39.7793L134.355 40.344ZM135.507 31.448H136.507V30.7644L135.87 30.5162L135.507 31.448ZM116.307 31.704L116.85 32.5436L116.861 32.536L116.307 31.704ZM114.195 41.56L113.337 42.0745L113.343 42.0849L113.35 42.0951L114.195 41.56ZM117.459 44.632L117.949 43.7604L117.459 44.632ZM129.363 44.312L129.774 45.2236L129.782 45.22L129.363 44.312ZM111.93 37.464C111.93 35.7609 112.435 34.2968 113.442 33.0299L111.875 31.7861C110.578 33.4205 109.93 35.3271 109.93 37.464H111.93ZM113.43 33.0437C114.5 31.7445 115.973 30.705 117.891 29.9458L117.154 28.0862C114.976 28.9484 113.206 30.1701 111.887 31.7723L113.43 33.0437ZM117.9 29.9418C119.849 29.1466 122.127 28.736 124.755 28.736V26.736C121.921 26.736 119.378 27.1788 117.145 28.0902L117.9 29.9418ZM124.755 28.736C126.483 28.736 128.28 28.9006 130.147 29.2326L130.498 27.2634C128.525 26.9127 126.61 26.736 124.755 26.736V28.736ZM130.169 29.2361C132.037 29.5267 133.701 29.9393 135.167 30.4686L135.846 28.5874C134.24 28.0074 132.448 27.5666 130.476 27.2599L130.169 29.2361ZM136.507 29.528V26.008H134.507V29.528H136.507ZM136.507 26.008C136.507 22.5547 135.477 19.6836 133.341 17.5007L131.912 18.8993C133.616 20.6417 134.507 22.976 134.507 26.008H136.507ZM133.357 17.5166C131.259 15.2756 128.437 14.192 125.01 14.192V16.192C127.984 16.192 130.24 17.1138 131.896 18.8834L133.357 17.5166ZM125.01 14.192C123.239 14.192 121.386 14.5882 119.459 15.35L120.194 17.21C121.936 16.5212 123.539 16.192 125.01 16.192V14.192ZM119.478 15.3428C117.554 16.0587 115.645 17.0823 113.75 18.4039L114.895 20.0441C116.67 18.8057 118.43 17.8666 120.175 17.2172L119.478 15.3428ZM115.149 18.6617L114.061 17.0617L112.408 18.1863L113.496 19.7863L115.149 18.6617ZM113.799 18.4497C118.011 15.5716 121.784 14.208 125.139 14.208V12.208C121.24 12.208 117.076 13.7884 112.67 16.7983L113.799 18.4497ZM125.139 14.208C128.759 14.208 131.531 15.3056 133.57 17.4219L135.011 16.0341C132.527 13.457 129.198 12.208 125.139 12.208V14.208ZM133.577 17.4285C135.614 19.5046 136.682 22.3664 136.682 26.136H138.682C138.682 21.9696 137.489 18.5594 135.004 16.0275L133.577 17.4285ZM136.682 26.136V43.672H138.682V26.136H136.682ZM136.682 43.672C136.682 44.2522 136.797 44.8731 137.197 45.3612C137.627 45.8878 138.237 46.08 138.835 46.08V44.08C138.789 44.08 138.757 44.0765 138.736 44.0729C138.726 44.0711 138.719 44.0694 138.714 44.0681C138.71 44.0668 138.708 44.0659 138.708 44.0659C138.708 44.0659 138.708 44.0661 138.709 44.0665C138.71 44.0669 138.711 44.0675 138.713 44.0683C138.716 44.0701 138.72 44.0725 138.724 44.0756C138.733 44.0823 138.74 44.0895 138.744 44.0948C138.76 44.1136 138.682 44.0305 138.682 43.672H136.682ZM137.835 45.08V47H139.835V45.08H137.835ZM138.768 46.0022C138.468 46.0222 138.25 46.0251 138.103 46.0174C138.03 46.0135 137.989 46.0078 137.973 46.0047C137.949 46.0004 137.993 46.005 138.066 46.0416L137.171 47.8304C137.454 47.972 137.778 48.0031 137.998 48.0146C138.256 48.0282 138.561 48.0204 138.901 47.9978L138.768 46.0022ZM137.828 45.9582C137.487 45.8852 137.241 45.7183 137.043 45.4213L135.378 46.5307C135.863 47.2577 136.555 47.7308 137.409 47.9138L137.828 45.9582ZM137.043 45.4213C136.795 45.0493 136.662 44.6604 136.632 44.2408L134.637 44.3832C134.692 45.1582 134.944 45.8787 135.378 46.5307L137.043 45.4213ZM136.635 44.312V41.432H134.635V44.312H136.635ZM134.847 40.8157C133.42 42.6393 131.549 44.0787 129.209 45.1275L130.028 46.9525C132.637 45.7827 134.777 44.1501 136.422 42.0483L134.847 40.8157ZM129.217 45.1242C126.915 46.1338 124.471 46.64 121.874 46.64V48.64C124.739 48.64 127.458 48.0796 130.02 46.9558L129.217 45.1242ZM121.874 46.64C119.931 46.64 118.22 46.225 116.717 45.4155L115.768 47.1765C117.593 48.159 119.636 48.64 121.874 48.64V46.64ZM116.744 45.4306C115.257 44.5697 114.074 43.443 113.181 42.0456L111.496 43.1224C112.566 44.797 113.986 46.1449 115.741 47.1614L116.744 45.4306ZM113.192 42.0625C112.353 40.6905 111.93 39.1656 111.93 37.464H109.93C109.93 39.5171 110.446 41.4055 111.485 43.1054L113.192 42.0625ZM135.142 40.9603C135.995 39.8706 136.507 38.7203 136.507 37.528H134.507C134.507 38.1277 134.25 38.8547 133.567 39.7277L135.142 40.9603ZM136.507 37.528V31.448H134.507V37.528H136.507ZM135.87 30.5162C132.46 29.1878 128.794 28.528 124.883 28.528V30.528C128.565 30.528 131.982 31.1482 135.143 32.3798L135.87 30.5162ZM124.883 28.528C121.212 28.528 118.141 29.2793 115.752 30.8719L116.861 32.536C118.824 31.2274 121.47 30.528 124.883 30.528V28.528ZM115.763 30.8644C113.338 32.4339 112.043 34.6102 112.043 37.336H114.043C114.043 35.3685 114.923 33.7901 116.85 32.5436L115.763 30.8644ZM112.043 37.336C112.043 39.0477 112.473 40.6344 113.337 42.0745L115.052 41.0455C114.38 39.9256 114.043 38.6963 114.043 37.336H112.043ZM113.35 42.0951C114.252 43.5197 115.464 44.6573 116.968 45.5036L117.949 43.7604C116.723 43.0707 115.758 42.1603 115.039 41.0249L113.35 42.0951ZM116.968 45.5036C118.5 46.3653 120.23 46.784 122.131 46.784V44.784C120.532 44.784 119.148 44.4347 117.949 43.7604L116.968 45.5036ZM122.131 46.784C124.902 46.784 127.455 46.2692 129.774 45.2236L128.951 43.4004C126.918 44.3174 124.65 44.784 122.131 44.784V46.784ZM129.782 45.22C132.124 44.1386 133.946 42.7114 135.18 40.9087L133.529 39.7793C132.544 41.2193 131.038 42.4374 128.943 43.404L129.782 45.22ZM147.3 21.976L148.191 22.4291L148.194 22.4232L147.3 21.976ZM152.74 15.64L153.305 16.4649L153.308 16.4627L152.74 15.64ZM168.548 15.64L167.965 16.4527L167.974 16.4589L167.983 16.4649L168.548 15.64ZM173.988 21.272L173.133 21.7914L174.988 24.8424V21.272H173.988ZM173.988 0.279999V-0.720001H172.988V0.279999H173.988ZM176.164 0.279999H177.164V-0.720001H176.164V0.279999ZM177.316 45.08H178.316V44.08H177.316V45.08ZM177.316 47L177.399 47.9965L178.316 47.9201V47H177.316ZM176.164 46.936L176.48 45.9873L176.428 45.9698L176.374 45.9582L176.164 46.936ZM174.692 45.976L173.87 46.5452L173.881 46.5608L173.892 46.576L174.692 45.976ZM174.116 40.216H175.116V36.683L173.264 39.6919L174.116 40.216ZM168.548 45.592L168.045 44.7276L168.038 44.7317L168.548 45.592ZM154.916 46.232L154.469 47.1264L154.477 47.1303L154.485 47.1341L154.916 46.232ZM149.796 42.328L149.033 42.9739L149.042 42.9845L149.051 42.9948L149.796 42.328ZM146.468 36.76L145.532 37.1111L145.535 37.1196L145.538 37.128L146.468 36.76ZM173.988 35.992L174.986 36.0585L174.988 36.0253V35.992H173.988ZM173.988 24.536H174.988V24.3661L174.932 24.2057L173.988 24.536ZM166.244 16.536L165.806 17.4348L165.815 17.4391L165.824 17.4433L166.244 16.536ZM153.892 17.496L154.478 18.3063L154.489 18.298L153.892 17.496ZM149.22 23.192L150.121 23.6258L150.124 23.6194L149.22 23.192ZM149.412 37.912L148.531 38.3851L148.534 38.3914L148.538 38.3976L149.412 37.912ZM154.468 43.48L153.909 44.3095L153.917 44.3146L154.468 43.48ZM165.476 44.888L165.801 45.8337L165.809 45.8308L165.818 45.8278L165.476 44.888ZM169.444 42.776L168.871 41.9568L168.864 41.9614L168.857 41.9661L169.444 42.776ZM172.58 39.704L171.766 39.1227L171.762 39.1285L172.58 39.704ZM146.316 30.488C146.316 27.565 146.944 24.884 148.191 22.429L146.409 21.5229C145.011 24.2733 144.316 27.267 144.316 30.488H146.316ZM148.194 22.4232C149.446 19.9204 151.15 17.942 153.305 16.4649L152.175 14.8151C149.722 16.4953 147.8 18.7409 146.406 21.5288L148.194 22.4232ZM153.308 16.4627C155.482 14.9607 157.928 14.208 160.676 14.208V12.208C157.536 12.208 154.691 13.0766 152.172 14.8173L153.308 16.4627ZM160.676 14.208C163.47 14.208 165.887 14.9623 167.965 16.4527L169.131 14.8273C166.687 13.0751 163.855 12.208 160.676 12.208V14.208ZM167.983 16.4649C170.181 17.9713 171.891 19.7479 173.133 21.7914L174.843 20.7526C173.439 18.4441 171.523 16.4661 169.113 14.8151L167.983 16.4649ZM174.988 21.272V0.279999H172.988V21.272H174.988ZM173.988 1.28H176.164V-0.720001H173.988V1.28ZM175.164 0.279999V43.672H177.164V0.279999H175.164ZM175.164 43.672C175.164 44.2522 175.279 44.8731 175.678 45.3612C176.109 45.8878 176.719 46.08 177.316 46.08V44.08C177.271 44.08 177.239 44.0765 177.218 44.0729C177.208 44.0711 177.201 44.0694 177.196 44.0681C177.191 44.0668 177.189 44.0659 177.189 44.0659C177.189 44.0659 177.19 44.0661 177.191 44.0665C177.191 44.0669 177.193 44.0675 177.194 44.0683C177.197 44.0701 177.201 44.0725 177.205 44.0756C177.215 44.0823 177.222 44.0895 177.226 44.0948C177.241 44.1136 177.164 44.0305 177.164 43.672H175.164ZM176.316 45.08V47H178.316V45.08H176.316ZM177.233 46.0035C176.756 46.0432 176.538 46.0066 176.48 45.9873L175.848 47.8847C176.302 48.036 176.852 48.0421 177.399 47.9965L177.233 46.0035ZM176.374 45.9582C176.024 45.8833 175.739 45.705 175.492 45.376L173.892 46.576C174.413 47.271 175.109 47.7327 175.954 47.9138L176.374 45.9582ZM175.514 45.4068C175.23 44.9969 175.116 44.6162 175.116 44.248H173.116C173.116 45.0744 173.386 45.8458 173.87 46.5452L175.514 45.4068ZM175.116 44.248V40.216H173.116V44.248H175.116ZM173.264 39.6919C171.989 41.7641 170.255 43.4416 168.045 44.7276L169.051 46.4563C171.534 45.0117 173.512 43.1052 174.968 40.7401L173.264 39.6919ZM168.038 44.7317C165.878 46.0117 163.642 46.64 161.316 46.64V48.64C164.024 48.64 166.61 47.903 169.058 46.4523L168.038 44.7317ZM161.316 46.64C159.152 46.64 157.168 46.2003 155.347 45.3299L154.485 47.1341C156.59 48.141 158.872 48.64 161.316 48.64V46.64ZM155.363 45.3376C153.512 44.4121 151.907 43.1877 150.541 41.6612L149.051 42.9948C150.586 44.7109 152.394 46.0892 154.469 47.1264L155.363 45.3376ZM150.559 41.6821C149.222 40.1019 148.169 38.34 147.398 36.392L145.538 37.128C146.388 39.276 147.554 41.2261 149.033 42.9739L150.559 41.6821ZM147.404 36.4089C146.677 34.4703 146.316 32.4984 146.316 30.488H144.316C144.316 32.7443 144.723 34.9537 145.532 37.1111L147.404 36.4089ZM174.988 35.992V24.536H172.988V35.992H174.988ZM174.932 24.2057C174.28 22.3434 173.19 20.6602 171.687 19.1569L170.273 20.5711C171.586 21.8838 172.501 23.3153 173.044 24.8663L174.932 24.2057ZM171.687 19.1569C170.199 17.6686 168.524 16.4904 166.664 15.6287L165.824 17.4433C167.463 18.203 168.945 19.2434 170.273 20.5711L171.687 19.1569ZM166.682 15.6372C164.812 14.7249 162.914 14.256 160.996 14.256V16.256C162.577 16.256 164.177 16.6405 165.806 17.4348L166.682 15.6372ZM160.996 14.256C158.071 14.256 155.489 15.0601 153.295 16.694L154.489 18.298C156.306 16.9452 158.46 16.256 160.996 16.256V14.256ZM153.306 16.6858C151.157 18.2401 149.494 20.2733 148.316 22.7646L150.124 23.6194C151.165 21.4174 152.616 19.6532 154.478 18.3062L153.306 16.6858ZM148.319 22.7582C147.144 25.1977 146.556 27.778 146.556 30.488H148.556C148.556 28.078 149.077 25.7943 150.121 23.6258L148.319 22.7582ZM146.556 30.488C146.556 33.2965 147.215 35.9339 148.531 38.3851L150.293 37.4389C149.135 35.2821 148.556 32.9702 148.556 30.488H146.556ZM148.538 38.3976C149.891 40.833 151.682 42.8093 153.909 44.3094L155.027 42.6506C153.073 41.3347 151.493 39.599 150.286 37.4264L148.538 38.3976ZM153.917 44.3146C156.217 45.8326 158.777 46.592 161.572 46.592V44.592C159.161 44.592 156.986 43.9434 155.019 42.6454L153.917 44.3146ZM161.572 46.592C162.937 46.592 164.348 46.3331 165.801 45.8337L165.151 43.9423C163.873 44.3816 162.682 44.592 161.572 44.592V46.592ZM165.818 45.8278C167.315 45.2835 168.719 44.5353 170.031 43.5859L168.857 41.9661C167.694 42.8087 166.453 43.4685 165.134 43.9482L165.818 45.8278ZM170.017 43.5952C171.382 42.64 172.514 41.5361 173.398 40.2795L171.762 39.1285C171.025 40.1759 170.066 41.12 168.871 41.9568L170.017 43.5952ZM173.394 40.2852C174.339 38.9617 174.886 37.5494 174.986 36.0585L172.99 35.9255C172.919 36.9946 172.528 38.0569 171.766 39.1228L173.394 40.2852ZM186.684 5.656H185.684V6.656H186.684V5.656ZM186.684 0.279999V-0.720001H185.684V0.279999H186.684ZM188.86 0.279999H189.86V-0.720001H188.86V0.279999ZM188.86 5.656V6.656H189.86V5.656H188.86ZM186.684 47H185.684V48H186.684V47ZM186.684 13.72V12.72H185.684V13.72H186.684ZM188.86 13.72H189.86V12.72H188.86V13.72ZM188.86 47V48H189.86V47H188.86ZM187.684 5.656V0.279999H185.684V5.656H187.684ZM186.684 1.28H188.86V-0.720001H186.684V1.28ZM187.86 0.279999V5.656H189.86V0.279999H187.86ZM188.86 4.656H186.684V6.656H188.86V4.656ZM187.684 47V13.72H185.684V47H187.684ZM186.684 14.72H188.86V12.72H186.684V14.72ZM187.86 13.72V47H189.86V13.72H187.86ZM188.86 46H186.684V48H188.86V46ZM225.805 47V48H226.805V47H225.805ZM223.629 47H222.629V48H223.629V47ZM221.645 18.456L220.788 18.9705L220.794 18.9806L220.8 18.9906L221.645 18.456ZM209.613 16.728L210.052 17.6264L210.06 17.6225L210.068 17.6184L209.613 16.728ZM204.557 20.632L205.302 21.2988L205.311 21.2891L204.557 20.632ZM201.485 26.2L200.523 25.9253L200.485 26.0599V26.2H201.485ZM201.485 47V48H202.485V47H201.485ZM199.309 47H198.309V48H199.309V47ZM199.309 13.72V12.72H198.309V13.72H199.309ZM201.421 13.72H202.421V12.72H201.421V13.72ZM201.421 22.04H200.421L202.311 22.4959L201.421 22.04ZM205.005 17.432L204.352 16.6742L204.342 16.6834L205.005 17.432ZM210.125 14.36L210.485 15.2928L210.495 15.2893L210.504 15.2855L210.125 14.36ZM223.437 16.984L222.583 17.5049L222.59 17.5153L223.437 16.984ZM225.805 46H223.629V48H225.805V46ZM224.629 47V28.44H222.629V47H224.629ZM224.629 28.44C224.629 23.8221 223.968 20.2577 222.49 17.9214L220.8 18.9906C221.967 20.8356 222.629 23.9272 222.629 28.44H224.629ZM222.502 17.9415C221.015 15.4624 218.613 14.256 215.501 14.256V16.256C218.021 16.256 219.715 17.1829 220.788 18.9705L222.502 17.9415ZM215.501 14.256C213.326 14.256 211.208 14.7898 209.158 15.8376L210.068 17.6184C211.858 16.7036 213.666 16.256 215.501 16.256V14.256ZM209.174 15.8296C207.13 16.8288 205.339 18.2136 203.803 19.9749L205.311 21.2891C206.677 19.7223 208.256 18.5045 210.052 17.6264L209.174 15.8296ZM203.812 19.9652C202.26 21.6991 201.162 23.6892 200.523 25.9253L202.447 26.4747C203.002 24.5295 203.952 22.8075 205.302 21.2988L203.812 19.9652ZM200.485 26.2V47H202.485V26.2H200.485ZM201.485 46H199.309V48H201.485V46ZM200.309 47V13.72H198.309V47H200.309ZM199.309 14.72H201.421V12.72H199.309V14.72ZM200.421 13.72V22.04H202.421V13.72H200.421ZM202.311 22.4959C203.149 20.8591 204.267 19.4219 205.668 18.1806L204.342 16.6834C202.757 18.0874 201.485 19.7222 200.531 21.5841L202.311 22.4959ZM205.658 18.1898C207.108 16.9412 208.716 15.9766 210.485 15.2928L209.765 13.4272C207.78 14.194 205.974 15.2775 204.352 16.6742L205.658 18.1898ZM210.504 15.2855C212.265 14.565 214.057 14.208 215.885 14.208V12.208C213.788 12.208 211.74 12.619 209.746 13.4345L210.504 15.2855ZM215.885 14.208C219.111 14.208 221.265 15.3449 222.583 17.5049L224.291 16.4631C222.537 13.5885 219.656 12.208 215.885 12.208V14.208ZM222.59 17.5153C224.022 19.7997 224.805 23.3108 224.805 28.184H226.805C226.805 23.1585 226.009 19.203 224.284 16.4527L222.59 17.5153ZM224.805 28.184V47H226.805V28.184H224.805ZM242.977 46.168L242.522 47.0584L242.53 47.0625L242.538 47.0664L242.977 46.168ZM237.921 42.264L237.158 42.9099L237.167 42.9205L237.176 42.9308L237.921 42.264ZM234.593 36.76L233.657 37.1111L233.661 37.123L233.666 37.1348L234.593 36.76ZM234.529 24.024L233.59 23.6792L233.586 23.6902L234.529 24.024ZM237.729 18.456L236.974 17.8003L236.969 17.8061L236.964 17.8119L237.729 18.456ZM242.657 14.616L242.21 13.7216V13.7216L242.657 14.616ZM256.609 15.576L257.196 14.7666L256.609 15.576ZM262.241 21.272L261.426 21.8518L263.241 24.4023V21.272H262.241ZM262.241 13.72V12.72H261.241V13.72H262.241ZM264.289 13.72H265.289V12.72H264.289V13.72ZM262.113 55.448L261.309 54.8536L261.305 54.8593L261.3 54.8651L262.113 55.448ZM256.545 59.8L256.168 58.8739L256.16 58.8769L256.153 58.88L256.545 59.8ZM239.905 59.096L240.445 58.2543L240.441 58.2517L239.905 59.096ZM234.593 53.464L234.119 52.5835L233.221 53.0669L233.722 53.955L234.593 53.464ZM236.257 52.568L237.132 52.0837L236.653 51.2189L235.783 51.6875L236.257 52.568ZM241.697 57.752L241.277 58.6595L241.283 58.6624L241.697 57.752ZM255.649 58.072L256.048 58.9891L255.649 58.072ZM260.321 54.296L259.509 53.7128L259.504 53.7197L259.499 53.7268L260.321 54.296ZM262.113 40.216H263.113V36.7407L261.266 39.6845L262.113 40.216ZM256.545 45.528L256.042 44.6636L256.035 44.6677L256.545 45.528ZM255.457 44.184L255.912 45.0742L255.921 45.0701L255.929 45.0658L255.457 44.184ZM260.001 40.536L259.231 39.898L259.229 39.9003L260.001 40.536ZM262.113 35.992L263.107 36.1024L263.113 36.0474V35.992H262.113ZM262.113 24.536H263.113V24.352L263.047 24.18L262.113 24.536ZM259.041 19.736L258.312 20.4207L258.318 20.4265L258.323 20.4321L259.041 19.736ZM254.433 16.472L254.004 17.3753L254.017 17.3817L254.031 17.3876L254.433 16.472ZM243.425 16.6L242.951 15.7195L243.425 16.6ZM239.201 20.184L239.984 20.8059L239.993 20.7948L239.201 20.184ZM236.577 25.048L235.628 24.7318L236.577 25.048ZM237.537 37.912L236.656 38.3851L237.537 37.912ZM242.593 43.48L242.042 44.3146L242.593 43.48ZM249.313 46.576C247.149 46.576 245.189 46.1363 243.416 45.2696L242.538 47.0664C244.605 48.077 246.869 48.576 249.313 48.576V46.576ZM243.432 45.2776C241.623 44.3528 240.036 43.1276 238.666 41.5972L237.176 42.9308C238.708 44.6431 240.491 46.0205 242.522 47.0584L243.432 45.2776ZM238.684 41.6181C237.344 40.0345 236.291 38.2913 235.52 36.3852L233.666 37.1348C234.517 39.2394 235.682 41.1655 237.158 42.9099L238.684 41.6181ZM235.529 36.4089C234.802 34.4703 234.441 32.4984 234.441 30.488H232.441C232.441 32.7443 232.848 34.9537 233.657 37.1111L235.529 36.4089ZM234.441 30.488C234.441 28.3357 234.786 26.2943 235.472 24.3578L233.586 23.6902C232.822 25.8497 232.441 28.1176 232.441 30.488H234.441ZM235.468 24.3688C236.198 22.3817 237.207 20.6281 238.494 19.1001L236.964 17.8119C235.52 19.5266 234.396 21.485 233.59 23.6792L235.468 24.3688ZM238.484 19.1117C239.808 17.587 241.347 16.3891 243.104 15.5104L242.21 13.7216C240.212 14.7202 238.466 16.0823 236.974 17.8003L238.484 19.1117ZM243.104 15.5104C244.83 14.6478 246.765 14.208 248.929 14.208V12.208C246.485 12.208 244.239 12.7069 242.21 13.7216L243.104 15.5104ZM248.929 14.208C251.683 14.208 254.033 14.9425 256.022 16.3854L257.196 14.7666C254.833 13.0522 252.063 12.208 248.929 12.208V14.208ZM256.022 16.3854C258.109 17.8996 259.91 19.7203 261.426 21.8518L263.056 20.6922C261.415 18.3863 259.461 16.4098 257.196 14.7666L256.022 16.3854ZM263.241 21.272V13.72H261.241V21.272H263.241ZM262.241 14.72H264.289V12.72H262.241V14.72ZM263.289 13.72V48.024H265.289V13.72H263.289ZM263.289 48.024C263.289 50.8455 262.606 53.0985 261.309 54.8536L262.917 56.0424C264.521 53.8721 265.289 51.1758 265.289 48.024H263.289ZM261.3 54.8651C260.006 56.6699 258.303 58.0041 256.168 58.8739L256.922 60.7261C259.395 59.7186 261.404 58.1515 262.926 56.0309L261.3 54.8651ZM256.153 58.88C253.98 59.8056 251.639 60.272 249.121 60.272V62.272C251.893 62.272 254.502 61.7571 256.937 60.72L256.153 58.88ZM249.121 60.272C245.349 60.272 242.488 59.5653 240.445 58.2543L239.365 59.9377C241.844 61.5281 245.128 62.272 249.121 62.272V60.272ZM240.441 58.2517C238.365 56.9343 236.708 55.1798 235.464 52.973L233.722 53.955C235.123 56.4415 237.008 58.4417 239.369 59.9403L240.441 58.2517ZM235.067 54.3445L236.731 53.4485L235.783 51.6875L234.119 52.5835L235.067 54.3445ZM235.382 53.0523C236.799 55.6125 238.765 57.4967 241.277 58.6595L242.117 56.8445C240.021 55.874 238.36 54.3021 237.132 52.0837L235.382 53.0523ZM241.283 58.6624C243.761 59.7887 246.377 60.352 249.121 60.352V58.352C246.66 58.352 244.326 57.8486 242.111 56.8416L241.283 58.6624ZM249.121 60.352C251.632 60.352 253.945 59.9031 256.048 58.9891L255.25 57.1549C253.427 57.9475 251.389 58.352 249.121 58.352V60.352ZM256.048 58.9891C258.171 58.0659 259.879 56.6913 261.143 54.8652L259.499 53.7268C258.459 55.2287 257.052 56.3714 255.25 57.1549L256.048 58.9891ZM261.133 54.8792C262.476 53.0096 263.113 50.7019 263.113 48.024H261.113C261.113 50.3807 260.556 52.2544 259.509 53.7128L261.133 54.8792ZM263.113 48.024V40.216H261.113V48.024H263.113ZM261.266 39.6845C259.992 41.7155 258.257 43.375 256.042 44.6637L257.048 46.3923C259.526 44.9503 261.504 43.0685 262.96 40.7475L261.266 39.6845ZM256.035 44.6677C253.875 45.9477 251.639 46.576 249.313 46.576V48.576C252.021 48.576 254.607 47.839 257.055 46.3883L256.035 44.6677ZM249.697 46.592C251.865 46.592 253.941 46.083 255.912 45.0742L255.002 43.2938C253.304 44.1624 251.539 44.592 249.697 44.592V46.592ZM255.929 45.0658C257.866 44.0294 259.487 42.7335 260.773 41.1717L259.229 39.9003C258.126 41.2398 256.717 42.3759 254.985 43.3022L255.929 45.0658ZM260.771 41.174C262.101 39.5687 262.91 37.8765 263.107 36.1024L261.119 35.8816C260.975 37.1795 260.376 38.5166 259.231 39.898L260.771 41.174ZM263.113 35.992V24.536H261.113V35.992H263.113ZM263.047 24.18C262.315 22.2582 261.217 20.5431 259.759 19.0399L258.323 20.4321C259.596 21.7449 260.545 23.2298 261.179 24.892L263.047 24.18ZM259.77 19.0513C258.356 17.5462 256.709 16.3792 254.835 15.5564L254.031 17.3876C255.656 18.1008 257.081 19.1098 258.312 20.4207L259.77 19.0513ZM254.862 15.5687C253.025 14.6963 251.109 14.256 249.121 14.256V16.256C250.803 16.256 252.427 16.6263 254.004 17.3753L254.862 15.5687ZM249.121 14.256C246.844 14.256 244.779 14.7354 242.951 15.7195L243.899 17.4805C245.399 16.6726 247.132 16.256 249.121 16.256V14.256ZM242.951 15.7195C241.164 16.682 239.647 17.9684 238.409 19.5732L239.993 20.7948C241.059 19.4129 242.358 18.31 243.899 17.4805L242.951 15.7195ZM238.418 19.5621C237.192 21.106 236.262 22.8312 235.628 24.7318L237.526 25.3642C238.087 23.6808 238.906 22.1633 239.984 20.8059L238.418 19.5621ZM235.628 24.7318C234.998 26.6227 234.681 28.5427 234.681 30.488H236.681C236.681 28.764 236.961 27.0573 237.526 25.3642L235.628 24.7318ZM234.681 30.488C234.681 33.2965 235.34 35.9339 236.656 38.3851L238.418 37.4389C237.26 35.2821 236.681 32.9702 236.681 30.488H234.681ZM236.656 38.3851C237.97 40.8316 239.767 42.8132 242.042 44.3146L243.144 42.6454C241.152 41.3308 239.579 39.6004 238.418 37.4389L236.656 38.3851ZM242.042 44.3146C244.342 45.8326 246.902 46.592 249.697 46.592V44.592C247.286 44.592 245.111 43.9434 243.144 42.6454L242.042 44.3146ZM273.852 47H272.852V48H273.852V47ZM273.852 42.264V41.264H272.852V42.264H273.852ZM275.836 42.264H276.836V41.264H275.836V42.264ZM275.836 47V48H276.836V47H275.836ZM274.852 47V42.264H272.852V47H274.852ZM273.852 43.264H275.836V41.264H273.852V43.264ZM274.836 42.264V47H276.836V42.264H274.836ZM275.836 46H273.852V48H275.836V46ZM284.539 47H283.539V48H284.539V47ZM284.539 42.264V41.264H283.539V42.264H284.539ZM286.523 42.264H287.523V41.264H286.523V42.264ZM286.523 47V48H287.523V47H286.523ZM285.539 47V42.264H283.539V47H285.539ZM284.539 43.264H286.523V41.264H284.539V43.264ZM285.523 42.264V47H287.523V42.264H285.523ZM286.523 46H284.539V48H286.523V46ZM295.227 47H294.227V48H295.227V47ZM295.227 42.264V41.264H294.227V42.264H295.227ZM297.211 42.264H298.211V41.264H297.211V42.264ZM297.211 47V48H298.211V47H297.211ZM296.227 47V42.264H294.227V47H296.227ZM295.227 43.264H297.211V41.264H295.227V43.264ZM296.211 42.264V47H298.211V42.264H296.211ZM297.211 46H295.227V48H297.211V46Z" fill="white"/>
</svg>
