<svg width="2525" height="299" viewBox="0 0 2525 299" fill="none" xmlns="http://www.w3.org/2000/svg">
<g filter="url(#filter0_f)">
<path d="M8.98125 12.6C6.31459 12.6 4.98125 11.2667 4.98125 8.59999C4.98125 5.93333 6.31459 4.6 8.98125 4.6C11.6479 4.6 12.9813 5.93333 12.9813 8.59999C12.9813 11.2667 11.6479 12.6 8.98125 12.6ZM8.98125 26.2C6.31459 26.2 4.98125 24.8666 4.98125 22.2C4.98125 19.5333 6.31459 18.2 8.98125 18.2C11.6479 18.2 12.9813 19.5333 12.9813 22.2C12.9813 24.8666 11.6479 26.2 8.98125 26.2ZM8.98125 40.2C6.31459 40.2 4.98125 38.8667 4.98125 36.2C4.98125 33.5333 6.31459 32.2 8.98125 32.2C11.6479 32.2 12.9813 33.5333 12.9813 36.2C12.9813 38.8667 11.6479 40.2 8.98125 40.2ZM8.98125 54.2C6.31459 54.2 4.98125 52.8666 4.98125 50.2C4.98125 47.5333 6.31459 46.2 8.98125 46.2C11.6479 46.2 12.9813 47.5333 12.9813 50.2C12.9813 52.8666 11.6479 54.2 8.98125 54.2ZM8.98125 68.2C6.31459 68.2 4.98125 66.8667 4.98125 64.2C4.98125 61.5333 6.31459 60.2 8.98125 60.2C11.6479 60.2 12.9813 61.5333 12.9813 64.2C12.9813 66.8667 11.6479 68.2 8.98125 68.2ZM8.98125 82.2C6.31459 82.2 4.98125 80.8667 4.98125 78.2C4.98125 75.5333 6.31459 74.2 8.98125 74.2C11.6479 74.2 12.9813 75.5333 12.9813 78.2C12.9813 80.8667 11.6479 82.2 8.98125 82.2ZM8.98125 96.2C6.31459 96.2 4.98125 94.8667 4.98125 92.2C4.98125 89.5333 6.31459 88.2 8.98125 88.2C11.6479 88.2 12.9813 89.5333 12.9813 92.2C12.9813 94.8667 11.6479 96.2 8.98125 96.2ZM8.98125 110.2C6.31459 110.2 4.98125 108.867 4.98125 106.2C4.98125 103.533 6.31459 102.2 8.98125 102.2C11.6479 102.2 12.9813 103.533 12.9813 106.2C12.9813 108.867 11.6479 110.2 8.98125 110.2ZM8.98125 124.6C6.31459 124.6 4.98125 123.267 4.98125 120.6C4.98125 117.933 6.31459 116.6 8.98125 116.6C11.6479 116.6 12.9813 117.933 12.9813 120.6C12.9813 123.267 11.6479 124.6 8.98125 124.6ZM8.98125 138.6C6.31459 138.6 4.98125 137.267 4.98125 134.6C4.98125 131.933 6.31459 130.6 8.98125 130.6C11.6479 130.6 12.9813 131.933 12.9813 134.6C12.9813 137.267 11.6479 138.6 8.98125 138.6ZM8.98125 152.6C6.31459 152.6 4.98125 151.267 4.98125 148.6C4.98125 145.933 6.31459 144.6 8.98125 144.6C11.6479 144.6 12.9813 145.933 12.9813 148.6C12.9813 151.267 11.6479 152.6 8.98125 152.6ZM8.98125 166.6C6.31459 166.6 4.98125 165.267 4.98125 162.6C4.98125 159.933 6.31459 158.6 8.98125 158.6C11.6479 158.6 12.9813 159.933 12.9813 162.6C12.9813 165.267 11.6479 166.6 8.98125 166.6ZM8.98125 180.6C6.31459 180.6 4.98125 179.267 4.98125 176.6C4.98125 173.933 6.31459 172.6 8.98125 172.6C11.6479 172.6 12.9813 173.933 12.9813 176.6C12.9813 179.267 11.6479 180.6 8.98125 180.6ZM8.98125 194.6C6.31459 194.6 4.98125 193.267 4.98125 190.6C4.98125 187.933 6.31459 186.6 8.98125 186.6C11.6479 186.6 12.9813 187.933 12.9813 190.6C12.9813 193.267 11.6479 194.6 8.98125 194.6ZM8.98125 208.6C6.31459 208.6 4.98125 207.267 4.98125 204.6C4.98125 201.933 6.31459 200.6 8.98125 200.6C11.6479 200.6 12.9813 201.933 12.9813 204.6C12.9813 207.267 11.6479 208.6 8.98125 208.6ZM8.98125 222.6C6.31459 222.6 4.98125 221.267 4.98125 218.6C4.98125 215.933 6.31459 214.6 8.98125 214.6C11.6479 214.6 12.9813 215.933 12.9813 218.6C12.9813 221.267 11.6479 222.6 8.98125 222.6ZM8.98125 237.4C6.31459 237.4 4.98125 236.067 4.98125 233.4C4.98125 230.733 6.31459 229.4 8.98125 229.4C11.6479 229.4 12.9813 230.733 12.9813 233.4C12.9813 236.067 11.6479 237.4 8.98125 237.4ZM8.98125 251.4C6.31459 251.4 4.98125 250.067 4.98125 247.4C4.98125 244.733 6.31459 243.4 8.98125 243.4C11.6479 243.4 12.9813 244.733 12.9813 247.4C12.9813 250.067 11.6479 251.4 8.98125 251.4ZM8.98125 265.4C6.31459 265.4 4.98125 264.067 4.98125 261.4C4.98125 258.733 6.31459 257.4 8.98125 257.4C11.6479 257.4 12.9813 258.733 12.9813 261.4C12.9813 264.067 11.6479 265.4 8.98125 265.4ZM8.98125 279.4C6.31459 279.4 4.98125 278.067 4.98125 275.4C4.98125 272.733 6.31459 271.4 8.98125 271.4C11.6479 271.4 12.9813 272.733 12.9813 275.4C12.9813 278.067 11.6479 279.4 8.98125 279.4ZM8.98125 293.4C6.31459 293.4 4.98125 292.067 4.98125 289.4C4.98125 286.733 6.31459 285.4 8.98125 285.4C11.6479 285.4 12.9813 286.733 12.9813 289.4C12.9813 292.067 11.6479 293.4 8.98125 293.4ZM22.9813 293.4C20.3146 293.4 18.9813 292.067 18.9813 289.4C18.9813 286.733 20.3146 285.4 22.9813 285.4C25.6479 285.4 26.9813 286.733 26.9813 289.4C26.9813 292.067 25.6479 293.4 22.9813 293.4ZM36.9813 293.4C34.3146 293.4 32.9813 292.067 32.9813 289.4C32.9813 286.733 34.3146 285.4 36.9813 285.4C39.6479 285.4 40.9813 286.733 40.9813 289.4C40.9813 292.067 39.6479 293.4 36.9813 293.4ZM50.9813 293.4C48.3146 293.4 46.9813 292.067 46.9813 289.4C46.9813 286.733 48.3146 285.4 50.9813 285.4C53.6479 285.4 54.9813 286.733 54.9813 289.4C54.9813 292.067 53.6479 293.4 50.9813 293.4ZM64.9813 293.4C62.3146 293.4 60.9813 292.067 60.9813 289.4C60.9813 286.733 62.3146 285.4 64.9813 285.4C67.6479 285.4 68.9813 286.733 68.9813 289.4C68.9813 292.067 67.6479 293.4 64.9813 293.4ZM78.9813 293.4C76.3146 293.4 74.9813 292.067 74.9813 289.4C74.9813 286.733 76.3146 285.4 78.9813 285.4C81.6479 285.4 82.9813 286.733 82.9813 289.4C82.9813 292.067 81.6479 293.4 78.9813 293.4ZM92.9813 293.4C90.3146 293.4 88.9813 292.067 88.9813 289.4C88.9813 286.733 90.3146 285.4 92.9813 285.4C95.6479 285.4 96.9813 286.733 96.9813 289.4C96.9813 292.067 95.6479 293.4 92.9813 293.4ZM106.981 293.4C104.315 293.4 102.981 292.067 102.981 289.4C102.981 286.733 104.315 285.4 106.981 285.4C109.648 285.4 110.981 286.733 110.981 289.4C110.981 292.067 109.648 293.4 106.981 293.4ZM120.981 293.4C118.315 293.4 116.981 292.067 116.981 289.4C116.981 286.733 118.315 285.4 120.981 285.4C123.648 285.4 124.981 286.733 124.981 289.4C124.981 292.067 123.648 293.4 120.981 293.4ZM134.981 293.4C132.315 293.4 130.981 292.067 130.981 289.4C130.981 286.733 132.315 285.4 134.981 285.4C137.648 285.4 138.981 286.733 138.981 289.4C138.981 292.067 137.648 293.4 134.981 293.4ZM148.981 293.4C146.315 293.4 144.981 292.067 144.981 289.4C144.981 286.733 146.315 285.4 148.981 285.4C151.648 285.4 152.981 286.733 152.981 289.4C152.981 292.067 151.648 293.4 148.981 293.4ZM162.981 293.4C160.315 293.4 158.981 292.067 158.981 289.4C158.981 286.733 160.315 285.4 162.981 285.4C165.648 285.4 166.981 286.733 166.981 289.4C166.981 292.067 165.648 293.4 162.981 293.4ZM176.981 293.4C174.315 293.4 172.981 292.067 172.981 289.4C172.981 286.733 174.315 285.4 176.981 285.4C179.648 285.4 180.981 286.733 180.981 289.4C180.981 292.067 179.648 293.4 176.981 293.4ZM190.981 293.4C188.315 293.4 186.981 292.067 186.981 289.4C186.981 286.733 188.315 285.4 190.981 285.4C193.648 285.4 194.981 286.733 194.981 289.4C194.981 292.067 193.648 293.4 190.981 293.4ZM246.509 12.6C243.843 12.6 242.509 11.2667 242.509 8.59999C242.509 5.93333 243.843 4.6 246.509 4.6C249.176 4.6 250.509 5.93333 250.509 8.59999C250.509 11.2667 249.176 12.6 246.509 12.6ZM246.509 26.2C243.843 26.2 242.509 24.8666 242.509 22.2C242.509 19.5333 243.843 18.2 246.509 18.2C249.176 18.2 250.509 19.5333 250.509 22.2C250.509 24.8666 249.176 26.2 246.509 26.2ZM246.509 40.2C243.843 40.2 242.509 38.8667 242.509 36.2C242.509 33.5333 243.843 32.2 246.509 32.2C249.176 32.2 250.509 33.5333 250.509 36.2C250.509 38.8667 249.176 40.2 246.509 40.2ZM246.509 54.2C243.843 54.2 242.509 52.8666 242.509 50.2C242.509 47.5333 243.843 46.2 246.509 46.2C249.176 46.2 250.509 47.5333 250.509 50.2C250.509 52.8666 249.176 54.2 246.509 54.2ZM246.509 68.2C243.843 68.2 242.509 66.8667 242.509 64.2C242.509 61.5333 243.843 60.2 246.509 60.2C249.176 60.2 250.509 61.5333 250.509 64.2C250.509 66.8667 249.176 68.2 246.509 68.2ZM246.509 82.2C243.843 82.2 242.509 80.8667 242.509 78.2C242.509 75.5333 243.843 74.2 246.509 74.2C249.176 74.2 250.509 75.5333 250.509 78.2C250.509 80.8667 249.176 82.2 246.509 82.2ZM246.509 96.2C243.843 96.2 242.509 94.8667 242.509 92.2C242.509 89.5333 243.843 88.2 246.509 88.2C249.176 88.2 250.509 89.5333 250.509 92.2C250.509 94.8667 249.176 96.2 246.509 96.2ZM246.509 110.2C243.843 110.2 242.509 108.867 242.509 106.2C242.509 103.533 243.843 102.2 246.509 102.2C249.176 102.2 250.509 103.533 250.509 106.2C250.509 108.867 249.176 110.2 246.509 110.2ZM246.509 124.6C243.843 124.6 242.509 123.267 242.509 120.6C242.509 117.933 243.843 116.6 246.509 116.6C249.176 116.6 250.509 117.933 250.509 120.6C250.509 123.267 249.176 124.6 246.509 124.6ZM246.509 138.6C243.843 138.6 242.509 137.267 242.509 134.6C242.509 131.933 243.843 130.6 246.509 130.6C249.176 130.6 250.509 131.933 250.509 134.6C250.509 137.267 249.176 138.6 246.509 138.6ZM246.509 152.6C243.843 152.6 242.509 151.267 242.509 148.6C242.509 145.933 243.843 144.6 246.509 144.6C249.176 144.6 250.509 145.933 250.509 148.6C250.509 151.267 249.176 152.6 246.509 152.6ZM246.509 166.6C243.843 166.6 242.509 165.267 242.509 162.6C242.509 159.933 243.843 158.6 246.509 158.6C249.176 158.6 250.509 159.933 250.509 162.6C250.509 165.267 249.176 166.6 246.509 166.6ZM246.509 180.6C243.843 180.6 242.509 179.267 242.509 176.6C242.509 173.933 243.843 172.6 246.509 172.6C249.176 172.6 250.509 173.933 250.509 176.6C250.509 179.267 249.176 180.6 246.509 180.6ZM246.509 194.6C243.843 194.6 242.509 193.267 242.509 190.6C242.509 187.933 243.843 186.6 246.509 186.6C249.176 186.6 250.509 187.933 250.509 190.6C250.509 193.267 249.176 194.6 246.509 194.6ZM246.509 208.6C243.843 208.6 242.509 207.267 242.509 204.6C242.509 201.933 243.843 200.6 246.509 200.6C249.176 200.6 250.509 201.933 250.509 204.6C250.509 207.267 249.176 208.6 246.509 208.6ZM246.509 222.6C243.843 222.6 242.509 221.267 242.509 218.6C242.509 215.933 243.843 214.6 246.509 214.6C249.176 214.6 250.509 215.933 250.509 218.6C250.509 221.267 249.176 222.6 246.509 222.6ZM246.509 237.4C243.843 237.4 242.509 236.067 242.509 233.4C242.509 230.733 243.843 229.4 246.509 229.4C249.176 229.4 250.509 230.733 250.509 233.4C250.509 236.067 249.176 237.4 246.509 237.4ZM246.509 251.4C243.843 251.4 242.509 250.067 242.509 247.4C242.509 244.733 243.843 243.4 246.509 243.4C249.176 243.4 250.509 244.733 250.509 247.4C250.509 250.067 249.176 251.4 246.509 251.4ZM246.509 265.4C243.843 265.4 242.509 264.067 242.509 261.4C242.509 258.733 243.843 257.4 246.509 257.4C249.176 257.4 250.509 258.733 250.509 261.4C250.509 264.067 249.176 265.4 246.509 265.4ZM246.509 279.4C243.843 279.4 242.509 278.067 242.509 275.4C242.509 272.733 243.843 271.4 246.509 271.4C249.176 271.4 250.509 272.733 250.509 275.4C250.509 278.067 249.176 279.4 246.509 279.4ZM246.509 293.4C243.843 293.4 242.509 292.067 242.509 289.4C242.509 286.733 243.843 285.4 246.509 285.4C249.176 285.4 250.509 286.733 250.509 289.4C250.509 292.067 249.176 293.4 246.509 293.4ZM335.897 209.8C333.23 209.8 331.897 208.467 331.897 205.8C331.897 203.133 333.23 201.8 335.897 201.8C338.564 201.8 339.897 203.133 339.897 205.8C339.897 208.467 338.564 209.8 335.897 209.8ZM335.897 226.2C333.23 226.2 331.897 224.867 331.897 222.2C331.897 219.533 333.23 218.2 335.897 218.2C338.564 218.2 339.897 219.533 339.897 222.2C339.897 224.867 338.564 226.2 335.897 226.2ZM335.897 242.6C333.23 242.6 331.897 241.267 331.897 238.6C331.897 235.933 333.23 234.6 335.897 234.6C338.564 234.6 339.897 235.933 339.897 238.6C339.897 241.267 338.564 242.6 335.897 242.6ZM335.897 259C333.23 259 331.897 257.667 331.897 255C331.897 252.333 333.23 251 335.897 251C338.564 251 339.897 252.333 339.897 255C339.897 257.667 338.564 259 335.897 259ZM335.897 82.6C333.23 82.6 331.897 81.2667 331.897 78.6C331.897 75.9333 333.23 74.6 335.897 74.6C338.564 74.6 339.897 75.9333 339.897 78.6C339.897 81.2667 338.564 82.6 335.897 82.6ZM335.897 98.2C333.23 98.2 331.897 96.8667 331.897 94.2C331.897 91.5333 333.23 90.2 335.897 90.2C338.564 90.2 339.897 91.5333 339.897 94.2C339.897 96.8667 338.564 98.2 335.897 98.2ZM335.897 115.4C333.23 115.4 331.897 114.067 331.897 111.4C331.897 108.733 333.23 107.4 335.897 107.4C338.564 107.4 339.897 108.733 339.897 111.4C339.897 114.067 338.564 115.4 335.897 115.4ZM335.897 147.4C333.23 147.4 331.897 146.067 331.897 143.4C331.897 140.733 333.23 139.4 335.897 139.4C338.564 139.4 339.897 140.733 339.897 143.4C339.897 146.067 338.564 147.4 335.897 147.4ZM335.897 162.2C333.23 162.2 331.897 160.867 331.897 158.2C331.897 155.533 333.23 154.2 335.897 154.2C338.564 154.2 339.897 155.533 339.897 158.2C339.897 160.867 338.564 162.2 335.897 162.2ZM335.897 178.2C333.23 178.2 331.897 176.867 331.897 174.2C331.897 171.533 333.23 170.2 335.897 170.2C338.564 170.2 339.897 171.533 339.897 174.2C339.897 176.867 338.564 178.2 335.897 178.2ZM335.897 194.2C333.23 194.2 331.897 192.867 331.897 190.2C331.897 187.533 333.23 186.2 335.897 186.2C338.564 186.2 339.897 187.533 339.897 190.2C339.897 192.867 338.564 194.2 335.897 194.2ZM335.897 21C333.23 21 331.897 19.6666 331.897 17C331.897 14.3333 333.23 13 335.897 13C338.564 13 339.897 14.3333 339.897 17C339.897 19.6666 338.564 21 335.897 21ZM335.897 37C333.23 37 331.897 35.6667 331.897 33C331.897 30.3333 333.23 29 335.897 29C338.564 29 339.897 30.3333 339.897 33C339.897 35.6667 338.564 37 335.897 37ZM335.897 52.2C333.23 52.2 331.897 50.8666 331.897 48.2C331.897 45.5333 333.23 44.2 335.897 44.2C338.564 44.2 339.897 45.5333 339.897 48.2C339.897 50.8666 338.564 52.2 335.897 52.2ZM335.897 66.6C333.23 66.6 331.897 65.2667 331.897 62.6C331.897 59.9333 333.23 58.6 335.897 58.6C338.564 58.6 339.897 59.9333 339.897 62.6C339.897 65.2667 338.564 66.6 335.897 66.6ZM335.897 131.4C333.23 131.4 331.897 130.067 331.897 127.4C331.897 124.733 333.23 123.4 335.897 123.4C338.564 123.4 339.897 124.733 339.897 127.4C339.897 130.067 338.564 131.4 335.897 131.4ZM335.897 275C333.23 275 331.897 273.667 331.897 271C331.897 268.333 333.23 267 335.897 267C338.564 267 339.897 268.333 339.897 271C339.897 273.667 338.564 275 335.897 275ZM335.897 291C333.23 291 331.897 289.667 331.897 287C331.897 284.333 333.23 283 335.897 283C338.564 283 339.897 284.333 339.897 287C339.897 289.667 338.564 291 335.897 291ZM354.697 46.6C352.03 46.6 350.697 45.2666 350.697 42.6C350.697 39.9333 352.03 38.6 354.697 38.6C357.364 38.6 358.697 39.9333 358.697 42.6C358.697 45.2666 357.364 46.6 354.697 46.6ZM362.697 59.8C360.03 59.8 358.697 58.4667 358.697 55.8C358.697 53.1333 360.03 51.8 362.697 51.8C365.364 51.8 366.697 53.1333 366.697 55.8C366.697 58.4667 365.364 59.8 362.697 59.8ZM371.097 73.4C368.43 73.4 367.097 72.0667 367.097 69.4C367.097 66.7333 368.43 65.4 371.097 65.4C373.764 65.4 375.097 66.7333 375.097 69.4C375.097 72.0667 373.764 73.4 371.097 73.4ZM346.297 33C343.63 33 342.297 31.6667 342.297 29C342.297 26.3333 343.63 25 346.297 25C348.964 25 350.297 26.3333 350.297 29C350.297 31.6667 348.964 33 346.297 33ZM387.497 100.6C384.83 100.6 383.497 99.2667 383.497 96.6C383.497 93.9333 384.83 92.6 387.497 92.6C390.164 92.6 391.497 93.9333 391.497 96.6C391.497 99.2667 390.164 100.6 387.497 100.6ZM395.497 113.8C392.83 113.8 391.497 112.467 391.497 109.8C391.497 107.133 392.83 105.8 395.497 105.8C398.164 105.8 399.497 107.133 399.497 109.8C399.497 112.467 398.164 113.8 395.497 113.8ZM403.897 127.4C401.23 127.4 399.897 126.067 399.897 123.4C399.897 120.733 401.23 119.4 403.897 119.4C406.564 119.4 407.897 120.733 407.897 123.4C407.897 126.067 406.564 127.4 403.897 127.4ZM411.897 141C409.23 141 407.897 139.667 407.897 137C407.897 134.333 409.23 133 411.897 133C414.564 133 415.897 134.333 415.897 137C415.897 139.667 414.564 141 411.897 141ZM379.097 87C376.43 87 375.097 85.6667 375.097 83C375.097 80.3333 376.43 79 379.097 79C381.764 79 383.097 80.3333 383.097 83C383.097 85.6667 381.764 87 379.097 87ZM420.297 154.6C417.63 154.6 416.297 153.267 416.297 150.6C416.297 147.933 417.63 146.6 420.297 146.6C422.964 146.6 424.297 147.933 424.297 150.6C424.297 153.267 422.964 154.6 420.297 154.6ZM428.297 167.8C425.63 167.8 424.297 166.467 424.297 163.8C424.297 161.133 425.63 159.8 428.297 159.8C430.964 159.8 432.297 161.133 432.297 163.8C432.297 166.467 430.964 167.8 428.297 167.8ZM436.697 181.4C434.03 181.4 432.697 180.067 432.697 177.4C432.697 174.733 434.03 173.4 436.697 173.4C439.364 173.4 440.697 174.733 440.697 177.4C440.697 180.067 439.364 181.4 436.697 181.4ZM411.897 141C409.23 141 407.897 139.667 407.897 137C407.897 134.333 409.23 133 411.897 133C414.564 133 415.897 134.333 415.897 137C415.897 139.667 414.564 141 411.897 141ZM453.097 208.6C450.43 208.6 449.097 207.267 449.097 204.6C449.097 201.933 450.43 200.6 453.097 200.6C455.764 200.6 457.097 201.933 457.097 204.6C457.097 207.267 455.764 208.6 453.097 208.6ZM461.097 221.8C458.43 221.8 457.097 220.467 457.097 217.8C457.097 215.133 458.43 213.8 461.097 213.8C463.764 213.8 465.097 215.133 465.097 217.8C465.097 220.467 463.764 221.8 461.097 221.8ZM469.497 235.4C466.83 235.4 465.497 234.067 465.497 231.4C465.497 228.733 466.83 227.4 469.497 227.4C472.164 227.4 473.497 228.733 473.497 231.4C473.497 234.067 472.164 235.4 469.497 235.4ZM444.697 195C442.03 195 440.697 193.667 440.697 191C440.697 188.333 442.03 187 444.697 187C447.364 187 448.697 188.333 448.697 191C448.697 193.667 447.364 195 444.697 195ZM603.097 209.8C600.43 209.8 599.097 208.467 599.097 205.8C599.097 203.133 600.43 201.8 603.097 201.8C605.764 201.8 607.097 203.133 607.097 205.8C607.097 208.467 605.764 209.8 603.097 209.8ZM603.097 226.2C600.43 226.2 599.097 224.867 599.097 222.2C599.097 219.533 600.43 218.2 603.097 218.2C605.764 218.2 607.097 219.533 607.097 222.2C607.097 224.867 605.764 226.2 603.097 226.2ZM603.097 242.6C600.43 242.6 599.097 241.267 599.097 238.6C599.097 235.933 600.43 234.6 603.097 234.6C605.764 234.6 607.097 235.933 607.097 238.6C607.097 241.267 605.764 242.6 603.097 242.6ZM603.097 259C600.43 259 599.097 257.667 599.097 255C599.097 252.333 600.43 251 603.097 251C605.764 251 607.097 252.333 607.097 255C607.097 257.667 605.764 259 603.097 259ZM603.097 82.6C600.43 82.6 599.097 81.2667 599.097 78.6C599.097 75.9333 600.43 74.6 603.097 74.6C605.764 74.6 607.097 75.9333 607.097 78.6C607.097 81.2667 605.764 82.6 603.097 82.6ZM603.097 98.2C600.43 98.2 599.097 96.8667 599.097 94.2C599.097 91.5333 600.43 90.2 603.097 90.2C605.764 90.2 607.097 91.5333 607.097 94.2C607.097 96.8667 605.764 98.2 603.097 98.2ZM603.097 115.4C600.43 115.4 599.097 114.067 599.097 111.4C599.097 108.733 600.43 107.4 603.097 107.4C605.764 107.4 607.097 108.733 607.097 111.4C607.097 114.067 605.764 115.4 603.097 115.4ZM603.097 147.4C600.43 147.4 599.097 146.067 599.097 143.4C599.097 140.733 600.43 139.4 603.097 139.4C605.764 139.4 607.097 140.733 607.097 143.4C607.097 146.067 605.764 147.4 603.097 147.4ZM603.097 162.2C600.43 162.2 599.097 160.867 599.097 158.2C599.097 155.533 600.43 154.2 603.097 154.2C605.764 154.2 607.097 155.533 607.097 158.2C607.097 160.867 605.764 162.2 603.097 162.2ZM603.097 178.2C600.43 178.2 599.097 176.867 599.097 174.2C599.097 171.533 600.43 170.2 603.097 170.2C605.764 170.2 607.097 171.533 607.097 174.2C607.097 176.867 605.764 178.2 603.097 178.2ZM603.097 194.2C600.43 194.2 599.097 192.867 599.097 190.2C599.097 187.533 600.43 186.2 603.097 186.2C605.764 186.2 607.097 187.533 607.097 190.2C607.097 192.867 605.764 194.2 603.097 194.2ZM603.097 21C600.43 21 599.097 19.6666 599.097 17C599.097 14.3333 600.43 13 603.097 13C605.764 13 607.097 14.3333 607.097 17C607.097 19.6666 605.764 21 603.097 21ZM603.097 37C600.43 37 599.097 35.6667 599.097 33C599.097 30.3333 600.43 29 603.097 29C605.764 29 607.097 30.3333 607.097 33C607.097 35.6667 605.764 37 603.097 37ZM603.097 52.2C600.43 52.2 599.097 50.8666 599.097 48.2C599.097 45.5333 600.43 44.2 603.097 44.2C605.764 44.2 607.097 45.5333 607.097 48.2C607.097 50.8666 605.764 52.2 603.097 52.2ZM603.097 66.6C600.43 66.6 599.097 65.2667 599.097 62.6C599.097 59.9333 600.43 58.6 603.097 58.6C605.764 58.6 607.097 59.9333 607.097 62.6C607.097 65.2667 605.764 66.6 603.097 66.6ZM603.097 131.4C600.43 131.4 599.097 130.067 599.097 127.4C599.097 124.733 600.43 123.4 603.097 123.4C605.764 123.4 607.097 124.733 607.097 127.4C607.097 130.067 605.764 131.4 603.097 131.4ZM603.097 275C600.43 275 599.097 273.667 599.097 271C599.097 268.333 600.43 267 603.097 267C605.764 267 607.097 268.333 607.097 271C607.097 273.667 605.764 275 603.097 275ZM603.097 291C600.43 291 599.097 289.667 599.097 287C599.097 284.333 600.43 283 603.097 283C605.764 283 607.097 284.333 607.097 287C607.097 289.667 605.764 291 603.097 291ZM584.297 46.6C581.63 46.6 580.297 45.2666 580.297 42.6C580.297 39.9333 581.63 38.6 584.297 38.6C586.964 38.6 588.297 39.9333 588.297 42.6C588.297 45.2666 586.964 46.6 584.297 46.6ZM576.297 59.8C573.63 59.8 572.297 58.4667 572.297 55.8C572.297 53.1333 573.63 51.8 576.297 51.8C578.964 51.8 580.297 53.1333 580.297 55.8C580.297 58.4667 578.964 59.8 576.297 59.8ZM567.897 73.4C565.23 73.4 563.897 72.0667 563.897 69.4C563.897 66.7333 565.23 65.4 567.897 65.4C570.564 65.4 571.897 66.7333 571.897 69.4C571.897 72.0667 570.564 73.4 567.897 73.4ZM592.697 33C590.03 33 588.697 31.6667 588.697 29C588.697 26.3333 590.03 25 592.697 25C595.364 25 596.697 26.3333 596.697 29C596.697 31.6667 595.364 33 592.697 33ZM551.497 100.6C548.83 100.6 547.497 99.2667 547.497 96.6C547.497 93.9333 548.83 92.6 551.497 92.6C554.164 92.6 555.497 93.9333 555.497 96.6C555.497 99.2667 554.164 100.6 551.497 100.6ZM543.497 113.8C540.83 113.8 539.497 112.467 539.497 109.8C539.497 107.133 540.83 105.8 543.497 105.8C546.164 105.8 547.497 107.133 547.497 109.8C547.497 112.467 546.164 113.8 543.497 113.8ZM535.097 127.4C532.43 127.4 531.097 126.067 531.097 123.4C531.097 120.733 532.43 119.4 535.097 119.4C537.764 119.4 539.097 120.733 539.097 123.4C539.097 126.067 537.764 127.4 535.097 127.4ZM527.097 141C524.43 141 523.097 139.667 523.097 137C523.097 134.333 524.43 133 527.097 133C529.764 133 531.097 134.333 531.097 137C531.097 139.667 529.764 141 527.097 141ZM559.897 87C557.23 87 555.897 85.6667 555.897 83C555.897 80.3333 557.23 79 559.897 79C562.564 79 563.897 80.3333 563.897 83C563.897 85.6667 562.564 87 559.897 87ZM518.697 154.6C516.03 154.6 514.697 153.267 514.697 150.6C514.697 147.933 516.03 146.6 518.697 146.6C521.364 146.6 522.697 147.933 522.697 150.6C522.697 153.267 521.364 154.6 518.697 154.6ZM510.697 167.8C508.03 167.8 506.697 166.467 506.697 163.8C506.697 161.133 508.03 159.8 510.697 159.8C513.364 159.8 514.697 161.133 514.697 163.8C514.697 166.467 513.364 167.8 510.697 167.8ZM502.297 181.4C499.63 181.4 498.297 180.067 498.297 177.4C498.297 174.733 499.63 173.4 502.297 173.4C504.964 173.4 506.297 174.733 506.297 177.4C506.297 180.067 504.964 181.4 502.297 181.4ZM527.097 141C524.43 141 523.097 139.667 523.097 137C523.097 134.333 524.43 133 527.097 133C529.764 133 531.097 134.333 531.097 137C531.097 139.667 529.764 141 527.097 141ZM485.897 208.6C483.23 208.6 481.897 207.267 481.897 204.6C481.897 201.933 483.23 200.6 485.897 200.6C488.564 200.6 489.897 201.933 489.897 204.6C489.897 207.267 488.564 208.6 485.897 208.6ZM477.897 221.8C475.23 221.8 473.897 220.467 473.897 217.8C473.897 215.133 475.23 213.8 477.897 213.8C480.564 213.8 481.897 215.133 481.897 217.8C481.897 220.467 480.564 221.8 477.897 221.8ZM494.297 195C491.63 195 490.297 193.667 490.297 191C490.297 188.333 491.63 187 494.297 187C496.964 187 498.297 188.333 498.297 191C498.297 193.667 496.964 195 494.297 195ZM807.803 19.8C805.136 19.8 803.803 18.4667 803.803 15.8C803.803 13.1333 805.136 11.8 807.803 11.8C810.47 11.8 811.803 13.1333 811.803 15.8C811.803 18.4667 810.47 19.8 807.803 19.8ZM791.403 19.8C788.736 19.8 787.403 18.4667 787.403 15.8C787.403 13.1333 788.736 11.8 791.403 11.8C794.07 11.8 795.403 13.1333 795.403 15.8C795.403 18.4667 794.07 19.8 791.403 19.8ZM775.403 22.2C772.736 22.2 771.403 20.8667 771.403 18.2C771.403 15.5333 772.736 14.2 775.403 14.2C778.07 14.2 779.403 15.5333 779.403 18.2C779.403 20.8667 778.07 22.2 775.403 22.2ZM759.403 26.6C756.736 26.6 755.403 25.2667 755.403 22.6C755.403 19.9333 756.736 18.6 759.403 18.6C762.07 18.6 763.403 19.9333 763.403 22.6C763.403 25.2667 762.07 26.6 759.403 26.6ZM744.203 33C741.536 33 740.203 31.6667 740.203 29C740.203 26.3333 741.536 25 744.203 25C746.87 25 748.203 26.3333 748.203 29C748.203 31.6667 746.87 33 744.203 33ZM729.403 42.2C726.736 42.2 725.403 40.8667 725.403 38.2C725.403 35.5333 726.736 34.2 729.403 34.2C732.07 34.2 733.403 35.5333 733.403 38.2C733.403 40.8667 732.07 42.2 729.403 42.2ZM716.203 53.4C713.536 53.4 712.203 52.0667 712.203 49.4C712.203 46.7333 713.536 45.4 716.203 45.4C718.87 45.4 720.203 46.7333 720.203 49.4C720.203 52.0667 718.87 53.4 716.203 53.4ZM704.603 66.2C701.936 66.2 700.603 64.8667 700.603 62.2C700.603 59.5333 701.936 58.2 704.603 58.2C707.27 58.2 708.603 59.5333 708.603 62.2C708.603 64.8667 707.27 66.2 704.603 66.2ZM695.003 79.8C692.336 79.8 691.003 78.4666 691.003 75.8C691.003 73.1333 692.336 71.8 695.003 71.8C697.67 71.8 699.003 73.1333 699.003 75.8C699.003 78.4666 697.67 79.8 695.003 79.8ZM687.003 94.2C684.336 94.2 683.003 92.8667 683.003 90.2C683.003 87.5333 684.336 86.2 687.003 86.2C689.67 86.2 691.003 87.5333 691.003 90.2C691.003 92.8667 689.67 94.2 687.003 94.2ZM681.003 110.2C678.336 110.2 677.003 108.867 677.003 106.2C677.003 103.533 678.336 102.2 681.003 102.2C683.67 102.2 685.003 103.533 685.003 106.2C685.003 108.867 683.67 110.2 681.003 110.2ZM676.603 126.2C673.936 126.2 672.603 124.867 672.603 122.2C672.603 119.533 673.936 118.2 676.603 118.2C679.27 118.2 680.603 119.533 680.603 122.2C680.603 124.867 679.27 126.2 676.603 126.2ZM674.203 142.6C671.536 142.6 670.203 141.267 670.203 138.6C670.203 135.933 671.536 134.6 674.203 134.6C676.87 134.6 678.203 135.933 678.203 138.6C678.203 141.267 676.87 142.6 674.203 142.6ZM673.803 159.8C671.136 159.8 669.803 158.467 669.803 155.8C669.803 153.133 671.136 151.8 673.803 151.8C676.47 151.8 677.803 153.133 677.803 155.8C677.803 158.467 676.47 159.8 673.803 159.8ZM675.003 176.6C672.336 176.6 671.003 175.267 671.003 172.6C671.003 169.933 672.336 168.6 675.003 168.6C677.67 168.6 679.003 169.933 679.003 172.6C679.003 175.267 677.67 176.6 675.003 176.6ZM678.203 193.8C675.536 193.8 674.203 192.467 674.203 189.8C674.203 187.133 675.536 185.8 678.203 185.8C680.87 185.8 682.203 187.133 682.203 189.8C682.203 192.467 680.87 193.8 678.203 193.8ZM683.803 209.8C681.136 209.8 679.803 208.467 679.803 205.8C679.803 203.133 681.136 201.8 683.803 201.8C686.47 201.8 687.803 203.133 687.803 205.8C687.803 208.467 686.47 209.8 683.803 209.8ZM690.603 224.6C687.936 224.6 686.603 223.267 686.603 220.6C686.603 217.933 687.936 216.6 690.603 216.6C693.27 216.6 694.603 217.933 694.603 220.6C694.603 223.267 693.27 224.6 690.603 224.6ZM698.603 238.6C695.936 238.6 694.603 237.267 694.603 234.6C694.603 231.933 695.936 230.6 698.603 230.6C701.27 230.6 702.603 231.933 702.603 234.6C702.603 237.267 701.27 238.6 698.603 238.6ZM709.003 251.4C706.336 251.4 705.003 250.067 705.003 247.4C705.003 244.733 706.336 243.4 709.003 243.4C711.67 243.4 713.003 244.733 713.003 247.4C713.003 250.067 711.67 251.4 709.003 251.4ZM720.603 263C717.936 263 716.603 261.667 716.603 259C716.603 256.333 717.936 255 720.603 255C723.27 255 724.603 256.333 724.603 259C724.603 261.667 723.27 263 720.603 263ZM733.003 273C730.336 273 729.003 271.667 729.003 269C729.003 266.333 730.336 265 733.003 265C735.67 265 737.003 266.333 737.003 269C737.003 271.667 735.67 273 733.003 273ZM746.603 281.4C743.936 281.4 742.603 280.067 742.603 277.4C742.603 274.733 743.936 273.4 746.603 273.4C749.27 273.4 750.603 274.733 750.603 277.4C750.603 280.067 749.27 281.4 746.603 281.4ZM762.203 288.6C759.536 288.6 758.203 287.267 758.203 284.6C758.203 281.933 759.536 280.6 762.203 280.6C764.87 280.6 766.203 281.933 766.203 284.6C766.203 287.267 764.87 288.6 762.203 288.6ZM776.603 293C773.936 293 772.603 291.667 772.603 289C772.603 286.333 773.936 285 776.603 285C779.27 285 780.603 286.333 780.603 289C780.603 291.667 779.27 293 776.603 293ZM791.803 295C789.136 295 787.803 293.667 787.803 291C787.803 288.333 789.136 287 791.803 287C794.47 287 795.803 288.333 795.803 291C795.803 293.667 794.47 295 791.803 295ZM807.003 295C804.336 295 803.003 293.667 803.003 291C803.003 288.333 804.336 287 807.003 287C809.67 287 811.003 288.333 811.003 291C811.003 293.667 809.67 295 807.003 295ZM822.203 293C819.536 293 818.203 291.667 818.203 289C818.203 286.333 819.536 285 822.203 285C824.87 285 826.203 286.333 826.203 289C826.203 291.667 824.87 293 822.203 293ZM838.203 288.6C835.536 288.6 834.203 287.267 834.203 284.6C834.203 281.933 835.536 280.6 838.203 280.6C840.87 280.6 842.203 281.933 842.203 284.6C842.203 287.267 840.87 288.6 838.203 288.6ZM853.403 282.2C850.736 282.2 849.403 280.867 849.403 278.2C849.403 275.533 850.736 274.2 853.403 274.2C856.07 274.2 857.403 275.533 857.403 278.2C857.403 280.867 856.07 282.2 853.403 282.2ZM867.003 273.8C864.336 273.8 863.003 272.467 863.003 269.8C863.003 267.133 864.336 265.8 867.003 265.8C869.67 265.8 871.003 267.133 871.003 269.8C871.003 272.467 869.67 273.8 867.003 273.8ZM879.403 263.8C876.736 263.8 875.403 262.467 875.403 259.8C875.403 257.133 876.736 255.8 879.403 255.8C882.07 255.8 883.403 257.133 883.403 259.8C883.403 262.467 882.07 263.8 879.403 263.8ZM891.003 252.2C888.336 252.2 887.003 250.867 887.003 248.2C887.003 245.533 888.336 244.2 891.003 244.2C893.67 244.2 895.003 245.533 895.003 248.2C895.003 250.867 893.67 252.2 891.003 252.2ZM901.403 239.4C898.736 239.4 897.403 238.067 897.403 235.4C897.403 232.733 898.736 231.4 901.403 231.4C904.07 231.4 905.403 232.733 905.403 235.4C905.403 238.067 904.07 239.4 901.403 239.4ZM909.403 225.4C906.736 225.4 905.403 224.067 905.403 221.4C905.403 218.733 906.736 217.4 909.403 217.4C912.07 217.4 913.403 218.733 913.403 221.4C913.403 224.067 912.07 225.4 909.403 225.4ZM916.203 210.6C913.536 210.6 912.203 209.267 912.203 206.6C912.203 203.933 913.536 202.6 916.203 202.6C918.87 202.6 920.203 203.933 920.203 206.6C920.203 209.267 918.87 210.6 916.203 210.6ZM921.803 194.6C919.136 194.6 917.803 193.267 917.803 190.6C917.803 187.933 919.136 186.6 921.803 186.6C924.47 186.6 925.803 187.933 925.803 190.6C925.803 193.267 924.47 194.6 921.803 194.6ZM925.003 177.4C922.336 177.4 921.003 176.067 921.003 173.4C921.003 170.733 922.336 169.4 925.003 169.4C927.67 169.4 929.003 170.733 929.003 173.4C929.003 176.067 927.67 177.4 925.003 177.4ZM926.203 160.6C923.536 160.6 922.203 159.267 922.203 156.6C922.203 153.933 923.536 152.6 926.203 152.6C928.87 152.6 930.203 153.933 930.203 156.6C930.203 159.267 928.87 160.6 926.203 160.6ZM925.803 143.4C923.136 143.4 921.803 142.067 921.803 139.4C921.803 136.733 923.136 135.4 925.803 135.4C928.47 135.4 929.803 136.733 929.803 139.4C929.803 142.067 928.47 143.4 925.803 143.4ZM923.403 127C920.736 127 919.403 125.667 919.403 123C919.403 120.333 920.736 119 923.403 119C926.07 119 927.403 120.333 927.403 123C927.403 125.667 926.07 127 923.403 127ZM919.003 111C916.336 111 915.003 109.667 915.003 107C915.003 104.333 916.336 103 919.003 103C921.67 103 923.003 104.333 923.003 107C923.003 109.667 921.67 111 919.003 111ZM913.003 95C910.336 95 909.003 93.6667 909.003 91C909.003 88.3333 910.336 87 913.003 87C915.67 87 917.003 88.3333 917.003 91C917.003 93.6667 915.67 95 913.003 95ZM905.003 80.6C902.336 80.6 901.003 79.2667 901.003 76.6C901.003 73.9333 902.336 72.6 905.003 72.6C907.67 72.6 909.003 73.9333 909.003 76.6C909.003 79.2667 907.67 80.6 905.003 80.6ZM895.403 67C892.736 67 891.403 65.6666 891.403 63C891.403 60.3333 892.736 59 895.403 59C898.07 59 899.403 60.3333 899.403 63C899.403 65.6666 898.07 67 895.403 67ZM883.403 53.4C880.736 53.4 879.403 52.0667 879.403 49.4C879.403 46.7333 880.736 45.4 883.403 45.4C886.07 45.4 887.403 46.7333 887.403 49.4C887.403 52.0667 886.07 53.4 883.403 53.4ZM870.203 42.2C867.536 42.2 866.203 40.8667 866.203 38.2C866.203 35.5333 867.536 34.2 870.203 34.2C872.87 34.2 874.203 35.5333 874.203 38.2C874.203 40.8667 872.87 42.2 870.203 42.2ZM855.403 33C852.736 33 851.403 31.6667 851.403 29C851.403 26.3333 852.736 25 855.403 25C858.07 25 859.403 26.3333 859.403 29C859.403 31.6667 858.07 33 855.403 33ZM840.203 26.6C837.536 26.6 836.203 25.2667 836.203 22.6C836.203 19.9333 837.536 18.6 840.203 18.6C842.87 18.6 844.203 19.9333 844.203 22.6C844.203 25.2667 842.87 26.6 840.203 26.6ZM823.803 21.8C821.136 21.8 819.803 20.4667 819.803 17.8C819.803 15.1333 821.136 13.8 823.803 13.8C826.47 13.8 827.803 15.1333 827.803 17.8C827.803 20.4667 826.47 21.8 823.803 21.8ZM995.672 211.8C993.005 211.8 991.672 210.467 991.672 207.8C991.672 205.133 993.005 203.8 995.672 203.8C998.339 203.8 999.672 205.133 999.672 207.8C999.672 210.467 998.339 211.8 995.672 211.8ZM995.672 228.2C993.005 228.2 991.672 226.867 991.672 224.2C991.672 221.533 993.005 220.2 995.672 220.2C998.339 220.2 999.672 221.533 999.672 224.2C999.672 226.867 998.339 228.2 995.672 228.2ZM995.672 244.6C993.005 244.6 991.672 243.267 991.672 240.6C991.672 237.933 993.005 236.6 995.672 236.6C998.339 236.6 999.672 237.933 999.672 240.6C999.672 243.267 998.339 244.6 995.672 244.6ZM995.672 261C993.005 261 991.672 259.667 991.672 257C991.672 254.333 993.005 253 995.672 253C998.339 253 999.672 254.333 999.672 257C999.672 259.667 998.339 261 995.672 261ZM995.672 84.6C993.005 84.6 991.672 83.2667 991.672 80.6C991.672 77.9333 993.005 76.6 995.672 76.6C998.339 76.6 999.672 77.9333 999.672 80.6C999.672 83.2667 998.339 84.6 995.672 84.6ZM995.672 100.2C993.005 100.2 991.672 98.8667 991.672 96.2C991.672 93.5333 993.005 92.2 995.672 92.2C998.339 92.2 999.672 93.5333 999.672 96.2C999.672 98.8667 998.339 100.2 995.672 100.2ZM995.672 117.4C993.005 117.4 991.672 116.067 991.672 113.4C991.672 110.733 993.005 109.4 995.672 109.4C998.339 109.4 999.672 110.733 999.672 113.4C999.672 116.067 998.339 117.4 995.672 117.4ZM995.672 149.4C993.005 149.4 991.672 148.067 991.672 145.4C991.672 142.733 993.005 141.4 995.672 141.4C998.339 141.4 999.672 142.733 999.672 145.4C999.672 148.067 998.339 149.4 995.672 149.4ZM995.672 164.2C993.005 164.2 991.672 162.867 991.672 160.2C991.672 157.533 993.005 156.2 995.672 156.2C998.339 156.2 999.672 157.533 999.672 160.2C999.672 162.867 998.339 164.2 995.672 164.2ZM995.672 180.2C993.005 180.2 991.672 178.867 991.672 176.2C991.672 173.533 993.005 172.2 995.672 172.2C998.339 172.2 999.672 173.533 999.672 176.2C999.672 178.867 998.339 180.2 995.672 180.2ZM995.672 196.2C993.005 196.2 991.672 194.867 991.672 192.2C991.672 189.533 993.005 188.2 995.672 188.2C998.339 188.2 999.672 189.533 999.672 192.2C999.672 194.867 998.339 196.2 995.672 196.2ZM995.672 23C993.005 23 991.672 21.6667 991.672 19C991.672 16.3333 993.005 15 995.672 15C998.339 15 999.672 16.3333 999.672 19C999.672 21.6667 998.339 23 995.672 23ZM995.672 39C993.005 39 991.672 37.6666 991.672 35C991.672 32.3333 993.005 31 995.672 31C998.339 31 999.672 32.3333 999.672 35C999.672 37.6666 998.339 39 995.672 39ZM995.672 54.2C993.005 54.2 991.672 52.8666 991.672 50.2C991.672 47.5333 993.005 46.2 995.672 46.2C998.339 46.2 999.672 47.5333 999.672 50.2C999.672 52.8666 998.339 54.2 995.672 54.2ZM995.672 68.6C993.005 68.6 991.672 67.2667 991.672 64.6C991.672 61.9333 993.005 60.6 995.672 60.6C998.339 60.6 999.672 61.9333 999.672 64.6C999.672 67.2667 998.339 68.6 995.672 68.6ZM995.672 133.4C993.005 133.4 991.672 132.067 991.672 129.4C991.672 126.733 993.005 125.4 995.672 125.4C998.339 125.4 999.672 126.733 999.672 129.4C999.672 132.067 998.339 133.4 995.672 133.4ZM995.672 277C993.005 277 991.672 275.667 991.672 273C991.672 270.333 993.005 269 995.672 269C998.339 269 999.672 270.333 999.672 273C999.672 275.667 998.339 277 995.672 277ZM995.672 293C993.005 293 991.672 291.667 991.672 289C991.672 286.333 993.005 285 995.672 285C998.339 285 999.672 286.333 999.672 289C999.672 291.667 998.339 293 995.672 293ZM1015.67 42.6C1013.01 42.6 1011.67 41.2667 1011.67 38.6C1011.67 35.9333 1013.01 34.6 1015.67 34.6C1018.34 34.6 1019.67 35.9333 1019.67 38.6C1019.67 41.2667 1018.34 42.6 1015.67 42.6ZM1006.07 30.6C1003.41 30.6 1002.07 29.2667 1002.07 26.6C1002.07 23.9333 1003.41 22.6 1006.07 22.6C1008.74 22.6 1010.07 23.9333 1010.07 26.6C1010.07 29.2667 1008.74 30.6 1006.07 30.6ZM1025.27 54.6C1022.61 54.6 1021.27 53.2667 1021.27 50.6C1021.27 47.9333 1022.61 46.6 1025.27 46.6C1027.94 46.6 1029.27 47.9333 1029.27 50.6C1029.27 53.2667 1027.94 54.6 1025.27 54.6ZM1034.87 66.6C1032.21 66.6 1030.87 65.2667 1030.87 62.6C1030.87 59.9333 1032.21 58.6 1034.87 58.6C1037.54 58.6 1038.87 59.9333 1038.87 62.6C1038.87 65.2667 1037.54 66.6 1034.87 66.6ZM1044.47 78.6C1041.81 78.6 1040.47 77.2667 1040.47 74.6C1040.47 71.9333 1041.81 70.6 1044.47 70.6C1047.14 70.6 1048.47 71.9333 1048.47 74.6C1048.47 77.2667 1047.14 78.6 1044.47 78.6ZM1054.07 90.6C1051.41 90.6 1050.07 89.2667 1050.07 86.6C1050.07 83.9333 1051.41 82.6 1054.07 82.6C1056.74 82.6 1058.07 83.9333 1058.07 86.6C1058.07 89.2667 1056.74 90.6 1054.07 90.6ZM1063.67 102.6C1061.01 102.6 1059.67 101.267 1059.67 98.6C1059.67 95.9333 1061.01 94.6 1063.67 94.6C1066.34 94.6 1067.67 95.9333 1067.67 98.6C1067.67 101.267 1066.34 102.6 1063.67 102.6ZM1073.27 114.6C1070.61 114.6 1069.27 113.267 1069.27 110.6C1069.27 107.933 1070.61 106.6 1073.27 106.6C1075.94 106.6 1077.27 107.933 1077.27 110.6C1077.27 113.267 1075.94 114.6 1073.27 114.6ZM1082.87 126.6C1080.21 126.6 1078.87 125.267 1078.87 122.6C1078.87 119.933 1080.21 118.6 1082.87 118.6C1085.54 118.6 1086.87 119.933 1086.87 122.6C1086.87 125.267 1085.54 126.6 1082.87 126.6ZM1092.47 138.6C1089.81 138.6 1088.47 137.267 1088.47 134.6C1088.47 131.933 1089.81 130.6 1092.47 130.6C1095.14 130.6 1096.47 131.933 1096.47 134.6C1096.47 137.267 1095.14 138.6 1092.47 138.6ZM1102.07 150.6C1099.41 150.6 1098.07 149.267 1098.07 146.6C1098.07 143.933 1099.41 142.6 1102.07 142.6C1104.74 142.6 1106.07 143.933 1106.07 146.6C1106.07 149.267 1104.74 150.6 1102.07 150.6ZM1111.67 162.6C1109.01 162.6 1107.67 161.267 1107.67 158.6C1107.67 155.933 1109.01 154.6 1111.67 154.6C1114.34 154.6 1115.67 155.933 1115.67 158.6C1115.67 161.267 1114.34 162.6 1111.67 162.6ZM1121.27 174.6C1118.61 174.6 1117.27 173.267 1117.27 170.6C1117.27 167.933 1118.61 166.6 1121.27 166.6C1123.94 166.6 1125.27 167.933 1125.27 170.6C1125.27 173.267 1123.94 174.6 1121.27 174.6ZM1130.87 186.6C1128.21 186.6 1126.87 185.267 1126.87 182.6C1126.87 179.933 1128.21 178.6 1130.87 178.6C1133.54 178.6 1134.87 179.933 1134.87 182.6C1134.87 185.267 1133.54 186.6 1130.87 186.6ZM1140.47 198.6C1137.81 198.6 1136.47 197.267 1136.47 194.6C1136.47 191.933 1137.81 190.6 1140.47 190.6C1143.14 190.6 1144.47 191.933 1144.47 194.6C1144.47 197.267 1143.14 198.6 1140.47 198.6ZM1150.07 210.6C1147.41 210.6 1146.07 209.267 1146.07 206.6C1146.07 203.933 1147.41 202.6 1150.07 202.6C1152.74 202.6 1154.07 203.933 1154.07 206.6C1154.07 209.267 1152.74 210.6 1150.07 210.6ZM1159.67 222.6C1157.01 222.6 1155.67 221.267 1155.67 218.6C1155.67 215.933 1157.01 214.6 1159.67 214.6C1162.34 214.6 1163.67 215.933 1163.67 218.6C1163.67 221.267 1162.34 222.6 1159.67 222.6ZM1169.27 234.6C1166.61 234.6 1165.27 233.267 1165.27 230.6C1165.27 227.933 1166.61 226.6 1169.27 226.6C1171.94 226.6 1173.27 227.933 1173.27 230.6C1173.27 233.267 1171.94 234.6 1169.27 234.6ZM1178.87 246.6C1176.21 246.6 1174.87 245.267 1174.87 242.6C1174.87 239.933 1176.21 238.6 1178.87 238.6C1181.54 238.6 1182.87 239.933 1182.87 242.6C1182.87 245.267 1181.54 246.6 1178.87 246.6ZM1188.47 258.6C1185.81 258.6 1184.47 257.267 1184.47 254.6C1184.47 251.933 1185.81 250.6 1188.47 250.6C1191.14 250.6 1192.47 251.933 1192.47 254.6C1192.47 257.267 1191.14 258.6 1188.47 258.6ZM1198.07 270.6C1195.41 270.6 1194.07 269.267 1194.07 266.6C1194.07 263.933 1195.41 262.6 1198.07 262.6C1200.74 262.6 1202.07 263.933 1202.07 266.6C1202.07 269.267 1200.74 270.6 1198.07 270.6ZM1207.67 282.6C1205.01 282.6 1203.67 281.267 1203.67 278.6C1203.67 275.933 1205.01 274.6 1207.67 274.6C1210.34 274.6 1211.67 275.933 1211.67 278.6C1211.67 281.267 1210.34 282.6 1207.67 282.6ZM1217.27 211.8C1214.61 211.8 1213.27 210.467 1213.27 207.8C1213.27 205.133 1214.61 203.8 1217.27 203.8C1219.94 203.8 1221.27 205.133 1221.27 207.8C1221.27 210.467 1219.94 211.8 1217.27 211.8ZM1217.27 228.2C1214.61 228.2 1213.27 226.867 1213.27 224.2C1213.27 221.533 1214.61 220.2 1217.27 220.2C1219.94 220.2 1221.27 221.533 1221.27 224.2C1221.27 226.867 1219.94 228.2 1217.27 228.2ZM1217.27 244.6C1214.61 244.6 1213.27 243.267 1213.27 240.6C1213.27 237.933 1214.61 236.6 1217.27 236.6C1219.94 236.6 1221.27 237.933 1221.27 240.6C1221.27 243.267 1219.94 244.6 1217.27 244.6ZM1217.27 261C1214.61 261 1213.27 259.667 1213.27 257C1213.27 254.333 1214.61 253 1217.27 253C1219.94 253 1221.27 254.333 1221.27 257C1221.27 259.667 1219.94 261 1217.27 261ZM1217.27 84.6C1214.61 84.6 1213.27 83.2667 1213.27 80.6C1213.27 77.9333 1214.61 76.6 1217.27 76.6C1219.94 76.6 1221.27 77.9333 1221.27 80.6C1221.27 83.2667 1219.94 84.6 1217.27 84.6ZM1217.27 100.2C1214.61 100.2 1213.27 98.8667 1213.27 96.2C1213.27 93.5333 1214.61 92.2 1217.27 92.2C1219.94 92.2 1221.27 93.5333 1221.27 96.2C1221.27 98.8667 1219.94 100.2 1217.27 100.2ZM1217.27 117.4C1214.61 117.4 1213.27 116.067 1213.27 113.4C1213.27 110.733 1214.61 109.4 1217.27 109.4C1219.94 109.4 1221.27 110.733 1221.27 113.4C1221.27 116.067 1219.94 117.4 1217.27 117.4ZM1217.27 149.4C1214.61 149.4 1213.27 148.067 1213.27 145.4C1213.27 142.733 1214.61 141.4 1217.27 141.4C1219.94 141.4 1221.27 142.733 1221.27 145.4C1221.27 148.067 1219.94 149.4 1217.27 149.4ZM1217.27 164.2C1214.61 164.2 1213.27 162.867 1213.27 160.2C1213.27 157.533 1214.61 156.2 1217.27 156.2C1219.94 156.2 1221.27 157.533 1221.27 160.2C1221.27 162.867 1219.94 164.2 1217.27 164.2ZM1217.27 180.2C1214.61 180.2 1213.27 178.867 1213.27 176.2C1213.27 173.533 1214.61 172.2 1217.27 172.2C1219.94 172.2 1221.27 173.533 1221.27 176.2C1221.27 178.867 1219.94 180.2 1217.27 180.2ZM1217.27 196.2C1214.61 196.2 1213.27 194.867 1213.27 192.2C1213.27 189.533 1214.61 188.2 1217.27 188.2C1219.94 188.2 1221.27 189.533 1221.27 192.2C1221.27 194.867 1219.94 196.2 1217.27 196.2ZM1217.27 23C1214.61 23 1213.27 21.6667 1213.27 19C1213.27 16.3333 1214.61 15 1217.27 15C1219.94 15 1221.27 16.3333 1221.27 19C1221.27 21.6667 1219.94 23 1217.27 23ZM1217.27 39C1214.61 39 1213.27 37.6666 1213.27 35C1213.27 32.3333 1214.61 31 1217.27 31C1219.94 31 1221.27 32.3333 1221.27 35C1221.27 37.6666 1219.94 39 1217.27 39ZM1217.27 54.2C1214.61 54.2 1213.27 52.8666 1213.27 50.2C1213.27 47.5333 1214.61 46.2 1217.27 46.2C1219.94 46.2 1221.27 47.5333 1221.27 50.2C1221.27 52.8666 1219.94 54.2 1217.27 54.2ZM1217.27 68.6C1214.61 68.6 1213.27 67.2667 1213.27 64.6C1213.27 61.9333 1214.61 60.6 1217.27 60.6C1219.94 60.6 1221.27 61.9333 1221.27 64.6C1221.27 67.2667 1219.94 68.6 1217.27 68.6ZM1217.27 133.4C1214.61 133.4 1213.27 132.067 1213.27 129.4C1213.27 126.733 1214.61 125.4 1217.27 125.4C1219.94 125.4 1221.27 126.733 1221.27 129.4C1221.27 132.067 1219.94 133.4 1217.27 133.4ZM1217.27 277C1214.61 277 1213.27 275.667 1213.27 273C1213.27 270.333 1214.61 269 1217.27 269C1219.94 269 1221.27 270.333 1221.27 273C1221.27 275.667 1219.94 277 1217.27 277ZM1217.27 293C1214.61 293 1213.27 291.667 1213.27 289C1213.27 286.333 1214.61 285 1217.27 285C1219.94 285 1221.27 286.333 1221.27 289C1221.27 291.667 1219.94 293 1217.27 293ZM1308.2 12.6C1305.53 12.6 1304.2 11.2667 1304.2 8.59999C1304.2 5.93333 1305.53 4.6 1308.2 4.6C1310.87 4.6 1312.2 5.93333 1312.2 8.59999C1312.2 11.2667 1310.87 12.6 1308.2 12.6ZM1308.2 26.2C1305.53 26.2 1304.2 24.8666 1304.2 22.2C1304.2 19.5333 1305.53 18.2 1308.2 18.2C1310.87 18.2 1312.2 19.5333 1312.2 22.2C1312.2 24.8666 1310.87 26.2 1308.2 26.2ZM1308.2 40.2C1305.53 40.2 1304.2 38.8667 1304.2 36.2C1304.2 33.5333 1305.53 32.2 1308.2 32.2C1310.87 32.2 1312.2 33.5333 1312.2 36.2C1312.2 38.8667 1310.87 40.2 1308.2 40.2ZM1308.2 54.2C1305.53 54.2 1304.2 52.8666 1304.2 50.2C1304.2 47.5333 1305.53 46.2 1308.2 46.2C1310.87 46.2 1312.2 47.5333 1312.2 50.2C1312.2 52.8666 1310.87 54.2 1308.2 54.2ZM1308.2 68.2C1305.53 68.2 1304.2 66.8667 1304.2 64.2C1304.2 61.5333 1305.53 60.2 1308.2 60.2C1310.87 60.2 1312.2 61.5333 1312.2 64.2C1312.2 66.8667 1310.87 68.2 1308.2 68.2ZM1308.2 82.2C1305.53 82.2 1304.2 80.8667 1304.2 78.2C1304.2 75.5333 1305.53 74.2 1308.2 74.2C1310.87 74.2 1312.2 75.5333 1312.2 78.2C1312.2 80.8667 1310.87 82.2 1308.2 82.2ZM1308.2 96.2C1305.53 96.2 1304.2 94.8667 1304.2 92.2C1304.2 89.5333 1305.53 88.2 1308.2 88.2C1310.87 88.2 1312.2 89.5333 1312.2 92.2C1312.2 94.8667 1310.87 96.2 1308.2 96.2ZM1308.2 110.2C1305.53 110.2 1304.2 108.867 1304.2 106.2C1304.2 103.533 1305.53 102.2 1308.2 102.2C1310.87 102.2 1312.2 103.533 1312.2 106.2C1312.2 108.867 1310.87 110.2 1308.2 110.2ZM1308.2 124.6C1305.53 124.6 1304.2 123.267 1304.2 120.6C1304.2 117.933 1305.53 116.6 1308.2 116.6C1310.87 116.6 1312.2 117.933 1312.2 120.6C1312.2 123.267 1310.87 124.6 1308.2 124.6ZM1308.2 138.6C1305.53 138.6 1304.2 137.267 1304.2 134.6C1304.2 131.933 1305.53 130.6 1308.2 130.6C1310.87 130.6 1312.2 131.933 1312.2 134.6C1312.2 137.267 1310.87 138.6 1308.2 138.6ZM1308.2 152.6C1305.53 152.6 1304.2 151.267 1304.2 148.6C1304.2 145.933 1305.53 144.6 1308.2 144.6C1310.87 144.6 1312.2 145.933 1312.2 148.6C1312.2 151.267 1310.87 152.6 1308.2 152.6ZM1308.2 166.6C1305.53 166.6 1304.2 165.267 1304.2 162.6C1304.2 159.933 1305.53 158.6 1308.2 158.6C1310.87 158.6 1312.2 159.933 1312.2 162.6C1312.2 165.267 1310.87 166.6 1308.2 166.6ZM1308.2 180.6C1305.53 180.6 1304.2 179.267 1304.2 176.6C1304.2 173.933 1305.53 172.6 1308.2 172.6C1310.87 172.6 1312.2 173.933 1312.2 176.6C1312.2 179.267 1310.87 180.6 1308.2 180.6ZM1308.2 194.6C1305.53 194.6 1304.2 193.267 1304.2 190.6C1304.2 187.933 1305.53 186.6 1308.2 186.6C1310.87 186.6 1312.2 187.933 1312.2 190.6C1312.2 193.267 1310.87 194.6 1308.2 194.6ZM1308.2 208.6C1305.53 208.6 1304.2 207.267 1304.2 204.6C1304.2 201.933 1305.53 200.6 1308.2 200.6C1310.87 200.6 1312.2 201.933 1312.2 204.6C1312.2 207.267 1310.87 208.6 1308.2 208.6ZM1308.2 222.6C1305.53 222.6 1304.2 221.267 1304.2 218.6C1304.2 215.933 1305.53 214.6 1308.2 214.6C1310.87 214.6 1312.2 215.933 1312.2 218.6C1312.2 221.267 1310.87 222.6 1308.2 222.6ZM1308.2 237.4C1305.53 237.4 1304.2 236.067 1304.2 233.4C1304.2 230.733 1305.53 229.4 1308.2 229.4C1310.87 229.4 1312.2 230.733 1312.2 233.4C1312.2 236.067 1310.87 237.4 1308.2 237.4ZM1308.2 251.4C1305.53 251.4 1304.2 250.067 1304.2 247.4C1304.2 244.733 1305.53 243.4 1308.2 243.4C1310.87 243.4 1312.2 244.733 1312.2 247.4C1312.2 250.067 1310.87 251.4 1308.2 251.4ZM1308.2 265.4C1305.53 265.4 1304.2 264.067 1304.2 261.4C1304.2 258.733 1305.53 257.4 1308.2 257.4C1310.87 257.4 1312.2 258.733 1312.2 261.4C1312.2 264.067 1310.87 265.4 1308.2 265.4ZM1308.2 279.4C1305.53 279.4 1304.2 278.067 1304.2 275.4C1304.2 272.733 1305.53 271.4 1308.2 271.4C1310.87 271.4 1312.2 272.733 1312.2 275.4C1312.2 278.067 1310.87 279.4 1308.2 279.4ZM1308.2 293.4C1305.53 293.4 1304.2 292.067 1304.2 289.4C1304.2 286.733 1305.53 285.4 1308.2 285.4C1310.87 285.4 1312.2 286.733 1312.2 289.4C1312.2 292.067 1310.87 293.4 1308.2 293.4ZM1322.2 293.4C1319.53 293.4 1318.2 292.067 1318.2 289.4C1318.2 286.733 1319.53 285.4 1322.2 285.4C1324.87 285.4 1326.2 286.733 1326.2 289.4C1326.2 292.067 1324.87 293.4 1322.2 293.4ZM1336.2 293.4C1333.53 293.4 1332.2 292.067 1332.2 289.4C1332.2 286.733 1333.53 285.4 1336.2 285.4C1338.87 285.4 1340.2 286.733 1340.2 289.4C1340.2 292.067 1338.87 293.4 1336.2 293.4ZM1350.2 293.4C1347.53 293.4 1346.2 292.067 1346.2 289.4C1346.2 286.733 1347.53 285.4 1350.2 285.4C1352.87 285.4 1354.2 286.733 1354.2 289.4C1354.2 292.067 1352.87 293.4 1350.2 293.4ZM1364.2 293.4C1361.53 293.4 1360.2 292.067 1360.2 289.4C1360.2 286.733 1361.53 285.4 1364.2 285.4C1366.87 285.4 1368.2 286.733 1368.2 289.4C1368.2 292.067 1366.87 293.4 1364.2 293.4ZM1378.2 293.4C1375.53 293.4 1374.2 292.067 1374.2 289.4C1374.2 286.733 1375.53 285.4 1378.2 285.4C1380.87 285.4 1382.2 286.733 1382.2 289.4C1382.2 292.067 1380.87 293.4 1378.2 293.4ZM1392.2 293.4C1389.53 293.4 1388.2 292.067 1388.2 289.4C1388.2 286.733 1389.53 285.4 1392.2 285.4C1394.87 285.4 1396.2 286.733 1396.2 289.4C1396.2 292.067 1394.87 293.4 1392.2 293.4ZM1406.2 293.4C1403.53 293.4 1402.2 292.067 1402.2 289.4C1402.2 286.733 1403.53 285.4 1406.2 285.4C1408.87 285.4 1410.2 286.733 1410.2 289.4C1410.2 292.067 1408.87 293.4 1406.2 293.4ZM1420.2 293.4C1417.53 293.4 1416.2 292.067 1416.2 289.4C1416.2 286.733 1417.53 285.4 1420.2 285.4C1422.87 285.4 1424.2 286.733 1424.2 289.4C1424.2 292.067 1422.87 293.4 1420.2 293.4ZM1434.2 293.4C1431.53 293.4 1430.2 292.067 1430.2 289.4C1430.2 286.733 1431.53 285.4 1434.2 285.4C1436.87 285.4 1438.2 286.733 1438.2 289.4C1438.2 292.067 1436.87 293.4 1434.2 293.4ZM1448.2 293.4C1445.53 293.4 1444.2 292.067 1444.2 289.4C1444.2 286.733 1445.53 285.4 1448.2 285.4C1450.87 285.4 1452.2 286.733 1452.2 289.4C1452.2 292.067 1450.87 293.4 1448.2 293.4ZM1462.2 293.4C1459.53 293.4 1458.2 292.067 1458.2 289.4C1458.2 286.733 1459.53 285.4 1462.2 285.4C1464.87 285.4 1466.2 286.733 1466.2 289.4C1466.2 292.067 1464.87 293.4 1462.2 293.4ZM1476.2 293.4C1473.53 293.4 1472.2 292.067 1472.2 289.4C1472.2 286.733 1473.53 285.4 1476.2 285.4C1478.87 285.4 1480.2 286.733 1480.2 289.4C1480.2 292.067 1478.87 293.4 1476.2 293.4ZM1490.2 293.4C1487.53 293.4 1486.2 292.067 1486.2 289.4C1486.2 286.733 1487.53 285.4 1490.2 285.4C1492.87 285.4 1494.2 286.733 1494.2 289.4C1494.2 292.067 1492.87 293.4 1490.2 293.4ZM1545.73 12.6C1543.06 12.6 1541.73 11.2667 1541.73 8.59999C1541.73 5.93333 1543.06 4.6 1545.73 4.6C1548.39 4.6 1549.73 5.93333 1549.73 8.59999C1549.73 11.2667 1548.39 12.6 1545.73 12.6ZM1545.73 26.2C1543.06 26.2 1541.73 24.8666 1541.73 22.2C1541.73 19.5333 1543.06 18.2 1545.73 18.2C1548.39 18.2 1549.73 19.5333 1549.73 22.2C1549.73 24.8666 1548.39 26.2 1545.73 26.2ZM1545.73 40.2C1543.06 40.2 1541.73 38.8667 1541.73 36.2C1541.73 33.5333 1543.06 32.2 1545.73 32.2C1548.39 32.2 1549.73 33.5333 1549.73 36.2C1549.73 38.8667 1548.39 40.2 1545.73 40.2ZM1545.73 54.2C1543.06 54.2 1541.73 52.8666 1541.73 50.2C1541.73 47.5333 1543.06 46.2 1545.73 46.2C1548.39 46.2 1549.73 47.5333 1549.73 50.2C1549.73 52.8666 1548.39 54.2 1545.73 54.2ZM1545.73 68.2C1543.06 68.2 1541.73 66.8667 1541.73 64.2C1541.73 61.5333 1543.06 60.2 1545.73 60.2C1548.39 60.2 1549.73 61.5333 1549.73 64.2C1549.73 66.8667 1548.39 68.2 1545.73 68.2ZM1545.73 82.2C1543.06 82.2 1541.73 80.8667 1541.73 78.2C1541.73 75.5333 1543.06 74.2 1545.73 74.2C1548.39 74.2 1549.73 75.5333 1549.73 78.2C1549.73 80.8667 1548.39 82.2 1545.73 82.2ZM1545.73 96.2C1543.06 96.2 1541.73 94.8667 1541.73 92.2C1541.73 89.5333 1543.06 88.2 1545.73 88.2C1548.39 88.2 1549.73 89.5333 1549.73 92.2C1549.73 94.8667 1548.39 96.2 1545.73 96.2ZM1545.73 110.2C1543.06 110.2 1541.73 108.867 1541.73 106.2C1541.73 103.533 1543.06 102.2 1545.73 102.2C1548.39 102.2 1549.73 103.533 1549.73 106.2C1549.73 108.867 1548.39 110.2 1545.73 110.2ZM1545.73 124.6C1543.06 124.6 1541.73 123.267 1541.73 120.6C1541.73 117.933 1543.06 116.6 1545.73 116.6C1548.39 116.6 1549.73 117.933 1549.73 120.6C1549.73 123.267 1548.39 124.6 1545.73 124.6ZM1545.73 138.6C1543.06 138.6 1541.73 137.267 1541.73 134.6C1541.73 131.933 1543.06 130.6 1545.73 130.6C1548.39 130.6 1549.73 131.933 1549.73 134.6C1549.73 137.267 1548.39 138.6 1545.73 138.6ZM1545.73 152.6C1543.06 152.6 1541.73 151.267 1541.73 148.6C1541.73 145.933 1543.06 144.6 1545.73 144.6C1548.39 144.6 1549.73 145.933 1549.73 148.6C1549.73 151.267 1548.39 152.6 1545.73 152.6ZM1545.73 166.6C1543.06 166.6 1541.73 165.267 1541.73 162.6C1541.73 159.933 1543.06 158.6 1545.73 158.6C1548.39 158.6 1549.73 159.933 1549.73 162.6C1549.73 165.267 1548.39 166.6 1545.73 166.6ZM1545.73 180.6C1543.06 180.6 1541.73 179.267 1541.73 176.6C1541.73 173.933 1543.06 172.6 1545.73 172.6C1548.39 172.6 1549.73 173.933 1549.73 176.6C1549.73 179.267 1548.39 180.6 1545.73 180.6ZM1545.73 194.6C1543.06 194.6 1541.73 193.267 1541.73 190.6C1541.73 187.933 1543.06 186.6 1545.73 186.6C1548.39 186.6 1549.73 187.933 1549.73 190.6C1549.73 193.267 1548.39 194.6 1545.73 194.6ZM1545.73 208.6C1543.06 208.6 1541.73 207.267 1541.73 204.6C1541.73 201.933 1543.06 200.6 1545.73 200.6C1548.39 200.6 1549.73 201.933 1549.73 204.6C1549.73 207.267 1548.39 208.6 1545.73 208.6ZM1545.73 222.6C1543.06 222.6 1541.73 221.267 1541.73 218.6C1541.73 215.933 1543.06 214.6 1545.73 214.6C1548.39 214.6 1549.73 215.933 1549.73 218.6C1549.73 221.267 1548.39 222.6 1545.73 222.6ZM1545.73 237.4C1543.06 237.4 1541.73 236.067 1541.73 233.4C1541.73 230.733 1543.06 229.4 1545.73 229.4C1548.39 229.4 1549.73 230.733 1549.73 233.4C1549.73 236.067 1548.39 237.4 1545.73 237.4ZM1545.73 251.4C1543.06 251.4 1541.73 250.067 1541.73 247.4C1541.73 244.733 1543.06 243.4 1545.73 243.4C1548.39 243.4 1549.73 244.733 1549.73 247.4C1549.73 250.067 1548.39 251.4 1545.73 251.4ZM1545.73 265.4C1543.06 265.4 1541.73 264.067 1541.73 261.4C1541.73 258.733 1543.06 257.4 1545.73 257.4C1548.39 257.4 1549.73 258.733 1549.73 261.4C1549.73 264.067 1548.39 265.4 1545.73 265.4ZM1545.73 279.4C1543.06 279.4 1541.73 278.067 1541.73 275.4C1541.73 272.733 1543.06 271.4 1545.73 271.4C1548.39 271.4 1549.73 272.733 1549.73 275.4C1549.73 278.067 1548.39 279.4 1545.73 279.4ZM1545.73 293.4C1543.06 293.4 1541.73 292.067 1541.73 289.4C1541.73 286.733 1543.06 285.4 1545.73 285.4C1548.39 285.4 1549.73 286.733 1549.73 289.4C1549.73 292.067 1548.39 293.4 1545.73 293.4ZM1635.12 209.8C1632.45 209.8 1631.12 208.467 1631.12 205.8C1631.12 203.133 1632.45 201.8 1635.12 201.8C1637.78 201.8 1639.12 203.133 1639.12 205.8C1639.12 208.467 1637.78 209.8 1635.12 209.8ZM1635.12 226.2C1632.45 226.2 1631.12 224.867 1631.12 222.2C1631.12 219.533 1632.45 218.2 1635.12 218.2C1637.78 218.2 1639.12 219.533 1639.12 222.2C1639.12 224.867 1637.78 226.2 1635.12 226.2ZM1635.12 242.6C1632.45 242.6 1631.12 241.267 1631.12 238.6C1631.12 235.933 1632.45 234.6 1635.12 234.6C1637.78 234.6 1639.12 235.933 1639.12 238.6C1639.12 241.267 1637.78 242.6 1635.12 242.6ZM1635.12 259C1632.45 259 1631.12 257.667 1631.12 255C1631.12 252.333 1632.45 251 1635.12 251C1637.78 251 1639.12 252.333 1639.12 255C1639.12 257.667 1637.78 259 1635.12 259ZM1635.12 82.6C1632.45 82.6 1631.12 81.2667 1631.12 78.6C1631.12 75.9333 1632.45 74.6 1635.12 74.6C1637.78 74.6 1639.12 75.9333 1639.12 78.6C1639.12 81.2667 1637.78 82.6 1635.12 82.6ZM1635.12 98.2C1632.45 98.2 1631.12 96.8667 1631.12 94.2C1631.12 91.5333 1632.45 90.2 1635.12 90.2C1637.78 90.2 1639.12 91.5333 1639.12 94.2C1639.12 96.8667 1637.78 98.2 1635.12 98.2ZM1635.12 115.4C1632.45 115.4 1631.12 114.067 1631.12 111.4C1631.12 108.733 1632.45 107.4 1635.12 107.4C1637.78 107.4 1639.12 108.733 1639.12 111.4C1639.12 114.067 1637.78 115.4 1635.12 115.4ZM1635.12 147.4C1632.45 147.4 1631.12 146.067 1631.12 143.4C1631.12 140.733 1632.45 139.4 1635.12 139.4C1637.78 139.4 1639.12 140.733 1639.12 143.4C1639.12 146.067 1637.78 147.4 1635.12 147.4ZM1635.12 162.2C1632.45 162.2 1631.12 160.867 1631.12 158.2C1631.12 155.533 1632.45 154.2 1635.12 154.2C1637.78 154.2 1639.12 155.533 1639.12 158.2C1639.12 160.867 1637.78 162.2 1635.12 162.2ZM1635.12 178.2C1632.45 178.2 1631.12 176.867 1631.12 174.2C1631.12 171.533 1632.45 170.2 1635.12 170.2C1637.78 170.2 1639.12 171.533 1639.12 174.2C1639.12 176.867 1637.78 178.2 1635.12 178.2ZM1635.12 194.2C1632.45 194.2 1631.12 192.867 1631.12 190.2C1631.12 187.533 1632.45 186.2 1635.12 186.2C1637.78 186.2 1639.12 187.533 1639.12 190.2C1639.12 192.867 1637.78 194.2 1635.12 194.2ZM1635.12 21C1632.45 21 1631.12 19.6666 1631.12 17C1631.12 14.3333 1632.45 13 1635.12 13C1637.78 13 1639.12 14.3333 1639.12 17C1639.12 19.6666 1637.78 21 1635.12 21ZM1635.12 37C1632.45 37 1631.12 35.6667 1631.12 33C1631.12 30.3333 1632.45 29 1635.12 29C1637.78 29 1639.12 30.3333 1639.12 33C1639.12 35.6667 1637.78 37 1635.12 37ZM1635.12 52.2C1632.45 52.2 1631.12 50.8666 1631.12 48.2C1631.12 45.5333 1632.45 44.2 1635.12 44.2C1637.78 44.2 1639.12 45.5333 1639.12 48.2C1639.12 50.8666 1637.78 52.2 1635.12 52.2ZM1635.12 66.6C1632.45 66.6 1631.12 65.2667 1631.12 62.6C1631.12 59.9333 1632.45 58.6 1635.12 58.6C1637.78 58.6 1639.12 59.9333 1639.12 62.6C1639.12 65.2667 1637.78 66.6 1635.12 66.6ZM1635.12 131.4C1632.45 131.4 1631.12 130.067 1631.12 127.4C1631.12 124.733 1632.45 123.4 1635.12 123.4C1637.78 123.4 1639.12 124.733 1639.12 127.4C1639.12 130.067 1637.78 131.4 1635.12 131.4ZM1635.12 275C1632.45 275 1631.12 273.667 1631.12 271C1631.12 268.333 1632.45 267 1635.12 267C1637.78 267 1639.12 268.333 1639.12 271C1639.12 273.667 1637.78 275 1635.12 275ZM1635.12 291C1632.45 291 1631.12 289.667 1631.12 287C1631.12 284.333 1632.45 283 1635.12 283C1637.78 283 1639.12 284.333 1639.12 287C1639.12 289.667 1637.78 291 1635.12 291ZM1653.92 46.6C1651.25 46.6 1649.92 45.2666 1649.92 42.6C1649.92 39.9333 1651.25 38.6 1653.92 38.6C1656.58 38.6 1657.92 39.9333 1657.92 42.6C1657.92 45.2666 1656.58 46.6 1653.92 46.6ZM1661.92 59.8C1659.25 59.8 1657.92 58.4667 1657.92 55.8C1657.92 53.1333 1659.25 51.8 1661.92 51.8C1664.58 51.8 1665.92 53.1333 1665.92 55.8C1665.92 58.4667 1664.58 59.8 1661.92 59.8ZM1670.32 73.4C1667.65 73.4 1666.32 72.0667 1666.32 69.4C1666.32 66.7333 1667.65 65.4 1670.32 65.4C1672.98 65.4 1674.32 66.7333 1674.32 69.4C1674.32 72.0667 1672.98 73.4 1670.32 73.4ZM1645.52 33C1642.85 33 1641.52 31.6667 1641.52 29C1641.52 26.3333 1642.85 25 1645.52 25C1648.18 25 1649.52 26.3333 1649.52 29C1649.52 31.6667 1648.18 33 1645.52 33ZM1686.72 100.6C1684.05 100.6 1682.72 99.2667 1682.72 96.6C1682.72 93.9333 1684.05 92.6 1686.72 92.6C1689.38 92.6 1690.72 93.9333 1690.72 96.6C1690.72 99.2667 1689.38 100.6 1686.72 100.6ZM1694.72 113.8C1692.05 113.8 1690.72 112.467 1690.72 109.8C1690.72 107.133 1692.05 105.8 1694.72 105.8C1697.38 105.8 1698.72 107.133 1698.72 109.8C1698.72 112.467 1697.38 113.8 1694.72 113.8ZM1703.12 127.4C1700.45 127.4 1699.12 126.067 1699.12 123.4C1699.12 120.733 1700.45 119.4 1703.12 119.4C1705.78 119.4 1707.12 120.733 1707.12 123.4C1707.12 126.067 1705.78 127.4 1703.12 127.4ZM1711.12 141C1708.45 141 1707.12 139.667 1707.12 137C1707.12 134.333 1708.45 133 1711.12 133C1713.78 133 1715.12 134.333 1715.12 137C1715.12 139.667 1713.78 141 1711.12 141ZM1678.32 87C1675.65 87 1674.32 85.6667 1674.32 83C1674.32 80.3333 1675.65 79 1678.32 79C1680.98 79 1682.32 80.3333 1682.32 83C1682.32 85.6667 1680.98 87 1678.32 87ZM1719.52 154.6C1716.85 154.6 1715.52 153.267 1715.52 150.6C1715.52 147.933 1716.85 146.6 1719.52 146.6C1722.18 146.6 1723.52 147.933 1723.52 150.6C1723.52 153.267 1722.18 154.6 1719.52 154.6ZM1727.52 167.8C1724.85 167.8 1723.52 166.467 1723.52 163.8C1723.52 161.133 1724.85 159.8 1727.52 159.8C1730.18 159.8 1731.52 161.133 1731.52 163.8C1731.52 166.467 1730.18 167.8 1727.52 167.8ZM1735.92 181.4C1733.25 181.4 1731.92 180.067 1731.92 177.4C1731.92 174.733 1733.25 173.4 1735.92 173.4C1738.58 173.4 1739.92 174.733 1739.92 177.4C1739.92 180.067 1738.58 181.4 1735.92 181.4ZM1711.12 141C1708.45 141 1707.12 139.667 1707.12 137C1707.12 134.333 1708.45 133 1711.12 133C1713.78 133 1715.12 134.333 1715.12 137C1715.12 139.667 1713.78 141 1711.12 141ZM1752.32 208.6C1749.65 208.6 1748.32 207.267 1748.32 204.6C1748.32 201.933 1749.65 200.6 1752.32 200.6C1754.98 200.6 1756.32 201.933 1756.32 204.6C1756.32 207.267 1754.98 208.6 1752.32 208.6ZM1760.32 221.8C1757.65 221.8 1756.32 220.467 1756.32 217.8C1756.32 215.133 1757.65 213.8 1760.32 213.8C1762.98 213.8 1764.32 215.133 1764.32 217.8C1764.32 220.467 1762.98 221.8 1760.32 221.8ZM1768.72 235.4C1766.05 235.4 1764.72 234.067 1764.72 231.4C1764.72 228.733 1766.05 227.4 1768.72 227.4C1771.38 227.4 1772.72 228.733 1772.72 231.4C1772.72 234.067 1771.38 235.4 1768.72 235.4ZM1743.92 195C1741.25 195 1739.92 193.667 1739.92 191C1739.92 188.333 1741.25 187 1743.92 187C1746.58 187 1747.92 188.333 1747.92 191C1747.92 193.667 1746.58 195 1743.92 195ZM1902.32 209.8C1899.65 209.8 1898.32 208.467 1898.32 205.8C1898.32 203.133 1899.65 201.8 1902.32 201.8C1904.98 201.8 1906.32 203.133 1906.32 205.8C1906.32 208.467 1904.98 209.8 1902.32 209.8ZM1902.32 226.2C1899.65 226.2 1898.32 224.867 1898.32 222.2C1898.32 219.533 1899.65 218.2 1902.32 218.2C1904.98 218.2 1906.32 219.533 1906.32 222.2C1906.32 224.867 1904.98 226.2 1902.32 226.2ZM1902.32 242.6C1899.65 242.6 1898.32 241.267 1898.32 238.6C1898.32 235.933 1899.65 234.6 1902.32 234.6C1904.98 234.6 1906.32 235.933 1906.32 238.6C1906.32 241.267 1904.98 242.6 1902.32 242.6ZM1902.32 259C1899.65 259 1898.32 257.667 1898.32 255C1898.32 252.333 1899.65 251 1902.32 251C1904.98 251 1906.32 252.333 1906.32 255C1906.32 257.667 1904.98 259 1902.32 259ZM1902.32 82.6C1899.65 82.6 1898.32 81.2667 1898.32 78.6C1898.32 75.9333 1899.65 74.6 1902.32 74.6C1904.98 74.6 1906.32 75.9333 1906.32 78.6C1906.32 81.2667 1904.98 82.6 1902.32 82.6ZM1902.32 98.2C1899.65 98.2 1898.32 96.8667 1898.32 94.2C1898.32 91.5333 1899.65 90.2 1902.32 90.2C1904.98 90.2 1906.32 91.5333 1906.32 94.2C1906.32 96.8667 1904.98 98.2 1902.32 98.2ZM1902.32 115.4C1899.65 115.4 1898.32 114.067 1898.32 111.4C1898.32 108.733 1899.65 107.4 1902.32 107.4C1904.98 107.4 1906.32 108.733 1906.32 111.4C1906.32 114.067 1904.98 115.4 1902.32 115.4ZM1902.32 147.4C1899.65 147.4 1898.32 146.067 1898.32 143.4C1898.32 140.733 1899.65 139.4 1902.32 139.4C1904.98 139.4 1906.32 140.733 1906.32 143.4C1906.32 146.067 1904.98 147.4 1902.32 147.4ZM1902.32 162.2C1899.65 162.2 1898.32 160.867 1898.32 158.2C1898.32 155.533 1899.65 154.2 1902.32 154.2C1904.98 154.2 1906.32 155.533 1906.32 158.2C1906.32 160.867 1904.98 162.2 1902.32 162.2ZM1902.32 178.2C1899.65 178.2 1898.32 176.867 1898.32 174.2C1898.32 171.533 1899.65 170.2 1902.32 170.2C1904.98 170.2 1906.32 171.533 1906.32 174.2C1906.32 176.867 1904.98 178.2 1902.32 178.2ZM1902.32 194.2C1899.65 194.2 1898.32 192.867 1898.32 190.2C1898.32 187.533 1899.65 186.2 1902.32 186.2C1904.98 186.2 1906.32 187.533 1906.32 190.2C1906.32 192.867 1904.98 194.2 1902.32 194.2ZM1902.32 21C1899.65 21 1898.32 19.6666 1898.32 17C1898.32 14.3333 1899.65 13 1902.32 13C1904.98 13 1906.32 14.3333 1906.32 17C1906.32 19.6666 1904.98 21 1902.32 21ZM1902.32 37C1899.65 37 1898.32 35.6667 1898.32 33C1898.32 30.3333 1899.65 29 1902.32 29C1904.98 29 1906.32 30.3333 1906.32 33C1906.32 35.6667 1904.98 37 1902.32 37ZM1902.32 52.2C1899.65 52.2 1898.32 50.8666 1898.32 48.2C1898.32 45.5333 1899.65 44.2 1902.32 44.2C1904.98 44.2 1906.32 45.5333 1906.32 48.2C1906.32 50.8666 1904.98 52.2 1902.32 52.2ZM1902.32 66.6C1899.65 66.6 1898.32 65.2667 1898.32 62.6C1898.32 59.9333 1899.65 58.6 1902.32 58.6C1904.98 58.6 1906.32 59.9333 1906.32 62.6C1906.32 65.2667 1904.98 66.6 1902.32 66.6ZM1902.32 131.4C1899.65 131.4 1898.32 130.067 1898.32 127.4C1898.32 124.733 1899.65 123.4 1902.32 123.4C1904.98 123.4 1906.32 124.733 1906.32 127.4C1906.32 130.067 1904.98 131.4 1902.32 131.4ZM1902.32 275C1899.65 275 1898.32 273.667 1898.32 271C1898.32 268.333 1899.65 267 1902.32 267C1904.98 267 1906.32 268.333 1906.32 271C1906.32 273.667 1904.98 275 1902.32 275ZM1902.32 291C1899.65 291 1898.32 289.667 1898.32 287C1898.32 284.333 1899.65 283 1902.32 283C1904.98 283 1906.32 284.333 1906.32 287C1906.32 289.667 1904.98 291 1902.32 291ZM1883.52 46.6C1880.85 46.6 1879.52 45.2666 1879.52 42.6C1879.52 39.9333 1880.85 38.6 1883.52 38.6C1886.18 38.6 1887.52 39.9333 1887.52 42.6C1887.52 45.2666 1886.18 46.6 1883.52 46.6ZM1875.52 59.8C1872.85 59.8 1871.52 58.4667 1871.52 55.8C1871.52 53.1333 1872.85 51.8 1875.52 51.8C1878.18 51.8 1879.52 53.1333 1879.52 55.8C1879.52 58.4667 1878.18 59.8 1875.52 59.8ZM1867.12 73.4C1864.45 73.4 1863.12 72.0667 1863.12 69.4C1863.12 66.7333 1864.45 65.4 1867.12 65.4C1869.78 65.4 1871.12 66.7333 1871.12 69.4C1871.12 72.0667 1869.78 73.4 1867.12 73.4ZM1891.92 33C1889.25 33 1887.92 31.6667 1887.92 29C1887.92 26.3333 1889.25 25 1891.92 25C1894.58 25 1895.92 26.3333 1895.92 29C1895.92 31.6667 1894.58 33 1891.92 33ZM1850.72 100.6C1848.05 100.6 1846.72 99.2667 1846.72 96.6C1846.72 93.9333 1848.05 92.6 1850.72 92.6C1853.38 92.6 1854.72 93.9333 1854.72 96.6C1854.72 99.2667 1853.38 100.6 1850.72 100.6ZM1842.72 113.8C1840.05 113.8 1838.72 112.467 1838.72 109.8C1838.72 107.133 1840.05 105.8 1842.72 105.8C1845.38 105.8 1846.72 107.133 1846.72 109.8C1846.72 112.467 1845.38 113.8 1842.72 113.8ZM1834.32 127.4C1831.65 127.4 1830.32 126.067 1830.32 123.4C1830.32 120.733 1831.65 119.4 1834.32 119.4C1836.98 119.4 1838.32 120.733 1838.32 123.4C1838.32 126.067 1836.98 127.4 1834.32 127.4ZM1826.32 141C1823.65 141 1822.32 139.667 1822.32 137C1822.32 134.333 1823.65 133 1826.32 133C1828.98 133 1830.32 134.333 1830.32 137C1830.32 139.667 1828.98 141 1826.32 141ZM1859.12 87C1856.45 87 1855.12 85.6667 1855.12 83C1855.12 80.3333 1856.45 79 1859.12 79C1861.78 79 1863.12 80.3333 1863.12 83C1863.12 85.6667 1861.78 87 1859.12 87ZM1817.92 154.6C1815.25 154.6 1813.92 153.267 1813.92 150.6C1813.92 147.933 1815.25 146.6 1817.92 146.6C1820.58 146.6 1821.92 147.933 1821.92 150.6C1821.92 153.267 1820.58 154.6 1817.92 154.6ZM1809.92 167.8C1807.25 167.8 1805.92 166.467 1805.92 163.8C1805.92 161.133 1807.25 159.8 1809.92 159.8C1812.58 159.8 1813.92 161.133 1813.92 163.8C1813.92 166.467 1812.58 167.8 1809.92 167.8ZM1801.52 181.4C1798.85 181.4 1797.52 180.067 1797.52 177.4C1797.52 174.733 1798.85 173.4 1801.52 173.4C1804.18 173.4 1805.52 174.733 1805.52 177.4C1805.52 180.067 1804.18 181.4 1801.52 181.4ZM1826.32 141C1823.65 141 1822.32 139.667 1822.32 137C1822.32 134.333 1823.65 133 1826.32 133C1828.98 133 1830.32 134.333 1830.32 137C1830.32 139.667 1828.98 141 1826.32 141ZM1785.12 208.6C1782.45 208.6 1781.12 207.267 1781.12 204.6C1781.12 201.933 1782.45 200.6 1785.12 200.6C1787.78 200.6 1789.12 201.933 1789.12 204.6C1789.12 207.267 1787.78 208.6 1785.12 208.6ZM1777.12 221.8C1774.45 221.8 1773.12 220.467 1773.12 217.8C1773.12 215.133 1774.45 213.8 1777.12 213.8C1779.78 213.8 1781.12 215.133 1781.12 217.8C1781.12 220.467 1779.78 221.8 1777.12 221.8ZM1793.52 195C1790.85 195 1789.52 193.667 1789.52 191C1789.52 188.333 1790.85 187 1793.52 187C1796.18 187 1797.52 188.333 1797.52 191C1797.52 193.667 1796.18 195 1793.52 195ZM2107.02 19.8C2104.36 19.8 2103.02 18.4667 2103.02 15.8C2103.02 13.1333 2104.36 11.8 2107.02 11.8C2109.69 11.8 2111.02 13.1333 2111.02 15.8C2111.02 18.4667 2109.69 19.8 2107.02 19.8ZM2090.62 19.8C2087.96 19.8 2086.62 18.4667 2086.62 15.8C2086.62 13.1333 2087.96 11.8 2090.62 11.8C2093.29 11.8 2094.62 13.1333 2094.62 15.8C2094.62 18.4667 2093.29 19.8 2090.62 19.8ZM2074.62 22.2C2071.96 22.2 2070.62 20.8667 2070.62 18.2C2070.62 15.5333 2071.96 14.2 2074.62 14.2C2077.29 14.2 2078.62 15.5333 2078.62 18.2C2078.62 20.8667 2077.29 22.2 2074.62 22.2ZM2058.62 26.6C2055.96 26.6 2054.62 25.2667 2054.62 22.6C2054.62 19.9333 2055.96 18.6 2058.62 18.6C2061.29 18.6 2062.62 19.9333 2062.62 22.6C2062.62 25.2667 2061.29 26.6 2058.62 26.6ZM2043.42 33C2040.76 33 2039.42 31.6667 2039.42 29C2039.42 26.3333 2040.76 25 2043.42 25C2046.09 25 2047.42 26.3333 2047.42 29C2047.42 31.6667 2046.09 33 2043.42 33ZM2028.62 42.2C2025.96 42.2 2024.62 40.8667 2024.62 38.2C2024.62 35.5333 2025.96 34.2 2028.62 34.2C2031.29 34.2 2032.62 35.5333 2032.62 38.2C2032.62 40.8667 2031.29 42.2 2028.62 42.2ZM2015.42 53.4C2012.76 53.4 2011.42 52.0667 2011.42 49.4C2011.42 46.7333 2012.76 45.4 2015.42 45.4C2018.09 45.4 2019.42 46.7333 2019.42 49.4C2019.42 52.0667 2018.09 53.4 2015.42 53.4ZM2003.82 66.2C2001.16 66.2 1999.82 64.8667 1999.82 62.2C1999.82 59.5333 2001.16 58.2 2003.82 58.2C2006.49 58.2 2007.82 59.5333 2007.82 62.2C2007.82 64.8667 2006.49 66.2 2003.82 66.2ZM1994.22 79.8C1991.56 79.8 1990.22 78.4666 1990.22 75.8C1990.22 73.1333 1991.56 71.8 1994.22 71.8C1996.89 71.8 1998.22 73.1333 1998.22 75.8C1998.22 78.4666 1996.89 79.8 1994.22 79.8ZM1986.22 94.2C1983.56 94.2 1982.22 92.8667 1982.22 90.2C1982.22 87.5333 1983.56 86.2 1986.22 86.2C1988.89 86.2 1990.22 87.5333 1990.22 90.2C1990.22 92.8667 1988.89 94.2 1986.22 94.2ZM1980.22 110.2C1977.56 110.2 1976.22 108.867 1976.22 106.2C1976.22 103.533 1977.56 102.2 1980.22 102.2C1982.89 102.2 1984.22 103.533 1984.22 106.2C1984.22 108.867 1982.89 110.2 1980.22 110.2ZM1975.82 126.2C1973.16 126.2 1971.82 124.867 1971.82 122.2C1971.82 119.533 1973.16 118.2 1975.82 118.2C1978.49 118.2 1979.82 119.533 1979.82 122.2C1979.82 124.867 1978.49 126.2 1975.82 126.2ZM1973.42 142.6C1970.76 142.6 1969.42 141.267 1969.42 138.6C1969.42 135.933 1970.76 134.6 1973.42 134.6C1976.09 134.6 1977.42 135.933 1977.42 138.6C1977.42 141.267 1976.09 142.6 1973.42 142.6ZM1973.02 159.8C1970.36 159.8 1969.02 158.467 1969.02 155.8C1969.02 153.133 1970.36 151.8 1973.02 151.8C1975.69 151.8 1977.02 153.133 1977.02 155.8C1977.02 158.467 1975.69 159.8 1973.02 159.8ZM1974.22 176.6C1971.56 176.6 1970.22 175.267 1970.22 172.6C1970.22 169.933 1971.56 168.6 1974.22 168.6C1976.89 168.6 1978.22 169.933 1978.22 172.6C1978.22 175.267 1976.89 176.6 1974.22 176.6ZM1977.42 193.8C1974.76 193.8 1973.42 192.467 1973.42 189.8C1973.42 187.133 1974.76 185.8 1977.42 185.8C1980.09 185.8 1981.42 187.133 1981.42 189.8C1981.42 192.467 1980.09 193.8 1977.42 193.8ZM1983.02 209.8C1980.36 209.8 1979.02 208.467 1979.02 205.8C1979.02 203.133 1980.36 201.8 1983.02 201.8C1985.69 201.8 1987.02 203.133 1987.02 205.8C1987.02 208.467 1985.69 209.8 1983.02 209.8ZM1989.82 224.6C1987.16 224.6 1985.82 223.267 1985.82 220.6C1985.82 217.933 1987.16 216.6 1989.82 216.6C1992.49 216.6 1993.82 217.933 1993.82 220.6C1993.82 223.267 1992.49 224.6 1989.82 224.6ZM1997.82 238.6C1995.16 238.6 1993.82 237.267 1993.82 234.6C1993.82 231.933 1995.16 230.6 1997.82 230.6C2000.49 230.6 2001.82 231.933 2001.82 234.6C2001.82 237.267 2000.49 238.6 1997.82 238.6ZM2008.22 251.4C2005.56 251.4 2004.22 250.067 2004.22 247.4C2004.22 244.733 2005.56 243.4 2008.22 243.4C2010.89 243.4 2012.22 244.733 2012.22 247.4C2012.22 250.067 2010.89 251.4 2008.22 251.4ZM2019.82 263C2017.16 263 2015.82 261.667 2015.82 259C2015.82 256.333 2017.16 255 2019.82 255C2022.49 255 2023.82 256.333 2023.82 259C2023.82 261.667 2022.49 263 2019.82 263ZM2032.22 273C2029.56 273 2028.22 271.667 2028.22 269C2028.22 266.333 2029.56 265 2032.22 265C2034.89 265 2036.22 266.333 2036.22 269C2036.22 271.667 2034.89 273 2032.22 273ZM2045.82 281.4C2043.16 281.4 2041.82 280.067 2041.82 277.4C2041.82 274.733 2043.16 273.4 2045.82 273.4C2048.49 273.4 2049.82 274.733 2049.82 277.4C2049.82 280.067 2048.49 281.4 2045.82 281.4ZM2061.42 288.6C2058.76 288.6 2057.42 287.267 2057.42 284.6C2057.42 281.933 2058.76 280.6 2061.42 280.6C2064.09 280.6 2065.42 281.933 2065.42 284.6C2065.42 287.267 2064.09 288.6 2061.42 288.6ZM2075.82 293C2073.16 293 2071.82 291.667 2071.82 289C2071.82 286.333 2073.16 285 2075.82 285C2078.49 285 2079.82 286.333 2079.82 289C2079.82 291.667 2078.49 293 2075.82 293ZM2091.02 295C2088.36 295 2087.02 293.667 2087.02 291C2087.02 288.333 2088.36 287 2091.02 287C2093.69 287 2095.02 288.333 2095.02 291C2095.02 293.667 2093.69 295 2091.02 295ZM2106.22 295C2103.56 295 2102.22 293.667 2102.22 291C2102.22 288.333 2103.56 287 2106.22 287C2108.89 287 2110.22 288.333 2110.22 291C2110.22 293.667 2108.89 295 2106.22 295ZM2121.42 293C2118.76 293 2117.42 291.667 2117.42 289C2117.42 286.333 2118.76 285 2121.42 285C2124.09 285 2125.42 286.333 2125.42 289C2125.42 291.667 2124.09 293 2121.42 293ZM2137.42 288.6C2134.76 288.6 2133.42 287.267 2133.42 284.6C2133.42 281.933 2134.76 280.6 2137.42 280.6C2140.09 280.6 2141.42 281.933 2141.42 284.6C2141.42 287.267 2140.09 288.6 2137.42 288.6ZM2152.62 282.2C2149.96 282.2 2148.62 280.867 2148.62 278.2C2148.62 275.533 2149.96 274.2 2152.62 274.2C2155.29 274.2 2156.62 275.533 2156.62 278.2C2156.62 280.867 2155.29 282.2 2152.62 282.2ZM2166.22 273.8C2163.56 273.8 2162.22 272.467 2162.22 269.8C2162.22 267.133 2163.56 265.8 2166.22 265.8C2168.89 265.8 2170.22 267.133 2170.22 269.8C2170.22 272.467 2168.89 273.8 2166.22 273.8ZM2178.62 263.8C2175.96 263.8 2174.62 262.467 2174.62 259.8C2174.62 257.133 2175.96 255.8 2178.62 255.8C2181.29 255.8 2182.62 257.133 2182.62 259.8C2182.62 262.467 2181.29 263.8 2178.62 263.8ZM2190.22 252.2C2187.56 252.2 2186.22 250.867 2186.22 248.2C2186.22 245.533 2187.56 244.2 2190.22 244.2C2192.89 244.2 2194.22 245.533 2194.22 248.2C2194.22 250.867 2192.89 252.2 2190.22 252.2ZM2200.62 239.4C2197.96 239.4 2196.62 238.067 2196.62 235.4C2196.62 232.733 2197.96 231.4 2200.62 231.4C2203.29 231.4 2204.62 232.733 2204.62 235.4C2204.62 238.067 2203.29 239.4 2200.62 239.4ZM2208.62 225.4C2205.96 225.4 2204.62 224.067 2204.62 221.4C2204.62 218.733 2205.96 217.4 2208.62 217.4C2211.29 217.4 2212.62 218.733 2212.62 221.4C2212.62 224.067 2211.29 225.4 2208.62 225.4ZM2215.42 210.6C2212.76 210.6 2211.42 209.267 2211.42 206.6C2211.42 203.933 2212.76 202.6 2215.42 202.6C2218.09 202.6 2219.42 203.933 2219.42 206.6C2219.42 209.267 2218.09 210.6 2215.42 210.6ZM2221.02 194.6C2218.36 194.6 2217.02 193.267 2217.02 190.6C2217.02 187.933 2218.36 186.6 2221.02 186.6C2223.69 186.6 2225.02 187.933 2225.02 190.6C2225.02 193.267 2223.69 194.6 2221.02 194.6ZM2224.22 177.4C2221.56 177.4 2220.22 176.067 2220.22 173.4C2220.22 170.733 2221.56 169.4 2224.22 169.4C2226.89 169.4 2228.22 170.733 2228.22 173.4C2228.22 176.067 2226.89 177.4 2224.22 177.4ZM2225.42 160.6C2222.76 160.6 2221.42 159.267 2221.42 156.6C2221.42 153.933 2222.76 152.6 2225.42 152.6C2228.09 152.6 2229.42 153.933 2229.42 156.6C2229.42 159.267 2228.09 160.6 2225.42 160.6ZM2225.02 143.4C2222.36 143.4 2221.02 142.067 2221.02 139.4C2221.02 136.733 2222.36 135.4 2225.02 135.4C2227.69 135.4 2229.02 136.733 2229.02 139.4C2229.02 142.067 2227.69 143.4 2225.02 143.4ZM2222.62 127C2219.96 127 2218.62 125.667 2218.62 123C2218.62 120.333 2219.96 119 2222.62 119C2225.29 119 2226.62 120.333 2226.62 123C2226.62 125.667 2225.29 127 2222.62 127ZM2218.22 111C2215.56 111 2214.22 109.667 2214.22 107C2214.22 104.333 2215.56 103 2218.22 103C2220.89 103 2222.22 104.333 2222.22 107C2222.22 109.667 2220.89 111 2218.22 111ZM2212.22 95C2209.56 95 2208.22 93.6667 2208.22 91C2208.22 88.3333 2209.56 87 2212.22 87C2214.89 87 2216.22 88.3333 2216.22 91C2216.22 93.6667 2214.89 95 2212.22 95ZM2204.22 80.6C2201.56 80.6 2200.22 79.2667 2200.22 76.6C2200.22 73.9333 2201.56 72.6 2204.22 72.6C2206.89 72.6 2208.22 73.9333 2208.22 76.6C2208.22 79.2667 2206.89 80.6 2204.22 80.6ZM2194.62 67C2191.96 67 2190.62 65.6666 2190.62 63C2190.62 60.3333 2191.96 59 2194.62 59C2197.29 59 2198.62 60.3333 2198.62 63C2198.62 65.6666 2197.29 67 2194.62 67ZM2182.62 53.4C2179.96 53.4 2178.62 52.0667 2178.62 49.4C2178.62 46.7333 2179.96 45.4 2182.62 45.4C2185.29 45.4 2186.62 46.7333 2186.62 49.4C2186.62 52.0667 2185.29 53.4 2182.62 53.4ZM2169.42 42.2C2166.76 42.2 2165.42 40.8667 2165.42 38.2C2165.42 35.5333 2166.76 34.2 2169.42 34.2C2172.09 34.2 2173.42 35.5333 2173.42 38.2C2173.42 40.8667 2172.09 42.2 2169.42 42.2ZM2154.62 33C2151.96 33 2150.62 31.6667 2150.62 29C2150.62 26.3333 2151.96 25 2154.62 25C2157.29 25 2158.62 26.3333 2158.62 29C2158.62 31.6667 2157.29 33 2154.62 33ZM2139.42 26.6C2136.76 26.6 2135.42 25.2667 2135.42 22.6C2135.42 19.9333 2136.76 18.6 2139.42 18.6C2142.09 18.6 2143.42 19.9333 2143.42 22.6C2143.42 25.2667 2142.09 26.6 2139.42 26.6ZM2123.02 21.8C2120.36 21.8 2119.02 20.4667 2119.02 17.8C2119.02 15.1333 2120.36 13.8 2123.02 13.8C2125.69 13.8 2127.02 15.1333 2127.02 17.8C2127.02 20.4667 2125.69 21.8 2123.02 21.8ZM2294.89 211.8C2292.22 211.8 2290.89 210.467 2290.89 207.8C2290.89 205.133 2292.22 203.8 2294.89 203.8C2297.56 203.8 2298.89 205.133 2298.89 207.8C2298.89 210.467 2297.56 211.8 2294.89 211.8ZM2294.89 228.2C2292.22 228.2 2290.89 226.867 2290.89 224.2C2290.89 221.533 2292.22 220.2 2294.89 220.2C2297.56 220.2 2298.89 221.533 2298.89 224.2C2298.89 226.867 2297.56 228.2 2294.89 228.2ZM2294.89 244.6C2292.22 244.6 2290.89 243.267 2290.89 240.6C2290.89 237.933 2292.22 236.6 2294.89 236.6C2297.56 236.6 2298.89 237.933 2298.89 240.6C2298.89 243.267 2297.56 244.6 2294.89 244.6ZM2294.89 261C2292.22 261 2290.89 259.667 2290.89 257C2290.89 254.333 2292.22 253 2294.89 253C2297.56 253 2298.89 254.333 2298.89 257C2298.89 259.667 2297.56 261 2294.89 261ZM2294.89 84.6C2292.22 84.6 2290.89 83.2667 2290.89 80.6C2290.89 77.9333 2292.22 76.6 2294.89 76.6C2297.56 76.6 2298.89 77.9333 2298.89 80.6C2298.89 83.2667 2297.56 84.6 2294.89 84.6ZM2294.89 100.2C2292.22 100.2 2290.89 98.8667 2290.89 96.2C2290.89 93.5333 2292.22 92.2 2294.89 92.2C2297.56 92.2 2298.89 93.5333 2298.89 96.2C2298.89 98.8667 2297.56 100.2 2294.89 100.2ZM2294.89 117.4C2292.22 117.4 2290.89 116.067 2290.89 113.4C2290.89 110.733 2292.22 109.4 2294.89 109.4C2297.56 109.4 2298.89 110.733 2298.89 113.4C2298.89 116.067 2297.56 117.4 2294.89 117.4ZM2294.89 149.4C2292.22 149.4 2290.89 148.067 2290.89 145.4C2290.89 142.733 2292.22 141.4 2294.89 141.4C2297.56 141.4 2298.89 142.733 2298.89 145.4C2298.89 148.067 2297.56 149.4 2294.89 149.4ZM2294.89 164.2C2292.22 164.2 2290.89 162.867 2290.89 160.2C2290.89 157.533 2292.22 156.2 2294.89 156.2C2297.56 156.2 2298.89 157.533 2298.89 160.2C2298.89 162.867 2297.56 164.2 2294.89 164.2ZM2294.89 180.2C2292.22 180.2 2290.89 178.867 2290.89 176.2C2290.89 173.533 2292.22 172.2 2294.89 172.2C2297.56 172.2 2298.89 173.533 2298.89 176.2C2298.89 178.867 2297.56 180.2 2294.89 180.2ZM2294.89 196.2C2292.22 196.2 2290.89 194.867 2290.89 192.2C2290.89 189.533 2292.22 188.2 2294.89 188.2C2297.56 188.2 2298.89 189.533 2298.89 192.2C2298.89 194.867 2297.56 196.2 2294.89 196.2ZM2294.89 23C2292.22 23 2290.89 21.6667 2290.89 19C2290.89 16.3333 2292.22 15 2294.89 15C2297.56 15 2298.89 16.3333 2298.89 19C2298.89 21.6667 2297.56 23 2294.89 23ZM2294.89 39C2292.22 39 2290.89 37.6666 2290.89 35C2290.89 32.3333 2292.22 31 2294.89 31C2297.56 31 2298.89 32.3333 2298.89 35C2298.89 37.6666 2297.56 39 2294.89 39ZM2294.89 54.2C2292.22 54.2 2290.89 52.8666 2290.89 50.2C2290.89 47.5333 2292.22 46.2 2294.89 46.2C2297.56 46.2 2298.89 47.5333 2298.89 50.2C2298.89 52.8666 2297.56 54.2 2294.89 54.2ZM2294.89 68.6C2292.22 68.6 2290.89 67.2667 2290.89 64.6C2290.89 61.9333 2292.22 60.6 2294.89 60.6C2297.56 60.6 2298.89 61.9333 2298.89 64.6C2298.89 67.2667 2297.56 68.6 2294.89 68.6ZM2294.89 133.4C2292.22 133.4 2290.89 132.067 2290.89 129.4C2290.89 126.733 2292.22 125.4 2294.89 125.4C2297.56 125.4 2298.89 126.733 2298.89 129.4C2298.89 132.067 2297.56 133.4 2294.89 133.4ZM2294.89 277C2292.22 277 2290.89 275.667 2290.89 273C2290.89 270.333 2292.22 269 2294.89 269C2297.56 269 2298.89 270.333 2298.89 273C2298.89 275.667 2297.56 277 2294.89 277ZM2294.89 293C2292.22 293 2290.89 291.667 2290.89 289C2290.89 286.333 2292.22 285 2294.89 285C2297.56 285 2298.89 286.333 2298.89 289C2298.89 291.667 2297.56 293 2294.89 293ZM2314.89 42.6C2312.22 42.6 2310.89 41.2667 2310.89 38.6C2310.89 35.9333 2312.22 34.6 2314.89 34.6C2317.56 34.6 2318.89 35.9333 2318.89 38.6C2318.89 41.2667 2317.56 42.6 2314.89 42.6ZM2305.29 30.6C2302.62 30.6 2301.29 29.2667 2301.29 26.6C2301.29 23.9333 2302.62 22.6 2305.29 22.6C2307.96 22.6 2309.29 23.9333 2309.29 26.6C2309.29 29.2667 2307.96 30.6 2305.29 30.6ZM2324.49 54.6C2321.82 54.6 2320.49 53.2667 2320.49 50.6C2320.49 47.9333 2321.82 46.6 2324.49 46.6C2327.16 46.6 2328.49 47.9333 2328.49 50.6C2328.49 53.2667 2327.16 54.6 2324.49 54.6ZM2334.09 66.6C2331.42 66.6 2330.09 65.2667 2330.09 62.6C2330.09 59.9333 2331.42 58.6 2334.09 58.6C2336.76 58.6 2338.09 59.9333 2338.09 62.6C2338.09 65.2667 2336.76 66.6 2334.09 66.6ZM2343.69 78.6C2341.02 78.6 2339.69 77.2667 2339.69 74.6C2339.69 71.9333 2341.02 70.6 2343.69 70.6C2346.36 70.6 2347.69 71.9333 2347.69 74.6C2347.69 77.2667 2346.36 78.6 2343.69 78.6ZM2353.29 90.6C2350.62 90.6 2349.29 89.2667 2349.29 86.6C2349.29 83.9333 2350.62 82.6 2353.29 82.6C2355.96 82.6 2357.29 83.9333 2357.29 86.6C2357.29 89.2667 2355.96 90.6 2353.29 90.6ZM2362.89 102.6C2360.22 102.6 2358.89 101.267 2358.89 98.6C2358.89 95.9333 2360.22 94.6 2362.89 94.6C2365.56 94.6 2366.89 95.9333 2366.89 98.6C2366.89 101.267 2365.56 102.6 2362.89 102.6ZM2372.49 114.6C2369.82 114.6 2368.49 113.267 2368.49 110.6C2368.49 107.933 2369.82 106.6 2372.49 106.6C2375.16 106.6 2376.49 107.933 2376.49 110.6C2376.49 113.267 2375.16 114.6 2372.49 114.6ZM2382.09 126.6C2379.42 126.6 2378.09 125.267 2378.09 122.6C2378.09 119.933 2379.42 118.6 2382.09 118.6C2384.76 118.6 2386.09 119.933 2386.09 122.6C2386.09 125.267 2384.76 126.6 2382.09 126.6ZM2391.69 138.6C2389.02 138.6 2387.69 137.267 2387.69 134.6C2387.69 131.933 2389.02 130.6 2391.69 130.6C2394.36 130.6 2395.69 131.933 2395.69 134.6C2395.69 137.267 2394.36 138.6 2391.69 138.6ZM2401.29 150.6C2398.62 150.6 2397.29 149.267 2397.29 146.6C2397.29 143.933 2398.62 142.6 2401.29 142.6C2403.96 142.6 2405.29 143.933 2405.29 146.6C2405.29 149.267 2403.96 150.6 2401.29 150.6ZM2410.89 162.6C2408.22 162.6 2406.89 161.267 2406.89 158.6C2406.89 155.933 2408.22 154.6 2410.89 154.6C2413.56 154.6 2414.89 155.933 2414.89 158.6C2414.89 161.267 2413.56 162.6 2410.89 162.6ZM2420.49 174.6C2417.82 174.6 2416.49 173.267 2416.49 170.6C2416.49 167.933 2417.82 166.6 2420.49 166.6C2423.16 166.6 2424.49 167.933 2424.49 170.6C2424.49 173.267 2423.16 174.6 2420.49 174.6ZM2430.09 186.6C2427.42 186.6 2426.09 185.267 2426.09 182.6C2426.09 179.933 2427.42 178.6 2430.09 178.6C2432.76 178.6 2434.09 179.933 2434.09 182.6C2434.09 185.267 2432.76 186.6 2430.09 186.6ZM2439.69 198.6C2437.02 198.6 2435.69 197.267 2435.69 194.6C2435.69 191.933 2437.02 190.6 2439.69 190.6C2442.36 190.6 2443.69 191.933 2443.69 194.6C2443.69 197.267 2442.36 198.6 2439.69 198.6ZM2449.29 210.6C2446.62 210.6 2445.29 209.267 2445.29 206.6C2445.29 203.933 2446.62 202.6 2449.29 202.6C2451.96 202.6 2453.29 203.933 2453.29 206.6C2453.29 209.267 2451.96 210.6 2449.29 210.6ZM2458.89 222.6C2456.22 222.6 2454.89 221.267 2454.89 218.6C2454.89 215.933 2456.22 214.6 2458.89 214.6C2461.56 214.6 2462.89 215.933 2462.89 218.6C2462.89 221.267 2461.56 222.6 2458.89 222.6ZM2468.49 234.6C2465.82 234.6 2464.49 233.267 2464.49 230.6C2464.49 227.933 2465.82 226.6 2468.49 226.6C2471.16 226.6 2472.49 227.933 2472.49 230.6C2472.49 233.267 2471.16 234.6 2468.49 234.6ZM2478.09 246.6C2475.42 246.6 2474.09 245.267 2474.09 242.6C2474.09 239.933 2475.42 238.6 2478.09 238.6C2480.76 238.6 2482.09 239.933 2482.09 242.6C2482.09 245.267 2480.76 246.6 2478.09 246.6ZM2487.69 258.6C2485.02 258.6 2483.69 257.267 2483.69 254.6C2483.69 251.933 2485.02 250.6 2487.69 250.6C2490.36 250.6 2491.69 251.933 2491.69 254.6C2491.69 257.267 2490.36 258.6 2487.69 258.6ZM2497.29 270.6C2494.62 270.6 2493.29 269.267 2493.29 266.6C2493.29 263.933 2494.62 262.6 2497.29 262.6C2499.96 262.6 2501.29 263.933 2501.29 266.6C2501.29 269.267 2499.96 270.6 2497.29 270.6ZM2506.89 282.6C2504.22 282.6 2502.89 281.267 2502.89 278.6C2502.89 275.933 2504.22 274.6 2506.89 274.6C2509.56 274.6 2510.89 275.933 2510.89 278.6C2510.89 281.267 2509.56 282.6 2506.89 282.6ZM2516.49 211.8C2513.82 211.8 2512.49 210.467 2512.49 207.8C2512.49 205.133 2513.82 203.8 2516.49 203.8C2519.16 203.8 2520.49 205.133 2520.49 207.8C2520.49 210.467 2519.16 211.8 2516.49 211.8ZM2516.49 228.2C2513.82 228.2 2512.49 226.867 2512.49 224.2C2512.49 221.533 2513.82 220.2 2516.49 220.2C2519.16 220.2 2520.49 221.533 2520.49 224.2C2520.49 226.867 2519.16 228.2 2516.49 228.2ZM2516.49 244.6C2513.82 244.6 2512.49 243.267 2512.49 240.6C2512.49 237.933 2513.82 236.6 2516.49 236.6C2519.16 236.6 2520.49 237.933 2520.49 240.6C2520.49 243.267 2519.16 244.6 2516.49 244.6ZM2516.49 261C2513.82 261 2512.49 259.667 2512.49 257C2512.49 254.333 2513.82 253 2516.49 253C2519.16 253 2520.49 254.333 2520.49 257C2520.49 259.667 2519.16 261 2516.49 261ZM2516.49 84.6C2513.82 84.6 2512.49 83.2667 2512.49 80.6C2512.49 77.9333 2513.82 76.6 2516.49 76.6C2519.16 76.6 2520.49 77.9333 2520.49 80.6C2520.49 83.2667 2519.16 84.6 2516.49 84.6ZM2516.49 100.2C2513.82 100.2 2512.49 98.8667 2512.49 96.2C2512.49 93.5333 2513.82 92.2 2516.49 92.2C2519.16 92.2 2520.49 93.5333 2520.49 96.2C2520.49 98.8667 2519.16 100.2 2516.49 100.2ZM2516.49 117.4C2513.82 117.4 2512.49 116.067 2512.49 113.4C2512.49 110.733 2513.82 109.4 2516.49 109.4C2519.16 109.4 2520.49 110.733 2520.49 113.4C2520.49 116.067 2519.16 117.4 2516.49 117.4ZM2516.49 149.4C2513.82 149.4 2512.49 148.067 2512.49 145.4C2512.49 142.733 2513.82 141.4 2516.49 141.4C2519.16 141.4 2520.49 142.733 2520.49 145.4C2520.49 148.067 2519.16 149.4 2516.49 149.4ZM2516.49 164.2C2513.82 164.2 2512.49 162.867 2512.49 160.2C2512.49 157.533 2513.82 156.2 2516.49 156.2C2519.16 156.2 2520.49 157.533 2520.49 160.2C2520.49 162.867 2519.16 164.2 2516.49 164.2ZM2516.49 180.2C2513.82 180.2 2512.49 178.867 2512.49 176.2C2512.49 173.533 2513.82 172.2 2516.49 172.2C2519.16 172.2 2520.49 173.533 2520.49 176.2C2520.49 178.867 2519.16 180.2 2516.49 180.2ZM2516.49 196.2C2513.82 196.2 2512.49 194.867 2512.49 192.2C2512.49 189.533 2513.82 188.2 2516.49 188.2C2519.16 188.2 2520.49 189.533 2520.49 192.2C2520.49 194.867 2519.16 196.2 2516.49 196.2ZM2516.49 23C2513.82 23 2512.49 21.6667 2512.49 19C2512.49 16.3333 2513.82 15 2516.49 15C2519.16 15 2520.49 16.3333 2520.49 19C2520.49 21.6667 2519.16 23 2516.49 23ZM2516.49 39C2513.82 39 2512.49 37.6666 2512.49 35C2512.49 32.3333 2513.82 31 2516.49 31C2519.16 31 2520.49 32.3333 2520.49 35C2520.49 37.6666 2519.16 39 2516.49 39ZM2516.49 54.2C2513.82 54.2 2512.49 52.8666 2512.49 50.2C2512.49 47.5333 2513.82 46.2 2516.49 46.2C2519.16 46.2 2520.49 47.5333 2520.49 50.2C2520.49 52.8666 2519.16 54.2 2516.49 54.2ZM2516.49 68.6C2513.82 68.6 2512.49 67.2667 2512.49 64.6C2512.49 61.9333 2513.82 60.6 2516.49 60.6C2519.16 60.6 2520.49 61.9333 2520.49 64.6C2520.49 67.2667 2519.16 68.6 2516.49 68.6ZM2516.49 133.4C2513.82 133.4 2512.49 132.067 2512.49 129.4C2512.49 126.733 2513.82 125.4 2516.49 125.4C2519.16 125.4 2520.49 126.733 2520.49 129.4C2520.49 132.067 2519.16 133.4 2516.49 133.4ZM2516.49 277C2513.82 277 2512.49 275.667 2512.49 273C2512.49 270.333 2513.82 269 2516.49 269C2519.16 269 2520.49 270.333 2520.49 273C2520.49 275.667 2519.16 277 2516.49 277ZM2516.49 293C2513.82 293 2512.49 291.667 2512.49 289C2512.49 286.333 2513.82 285 2516.49 285C2519.16 285 2520.49 286.333 2520.49 289C2520.49 291.667 2519.16 293 2516.49 293Z" fill="white" fill-opacity="0.8"/>
</g>
<defs>
<filter id="filter0_f" x="0.981201" y="0.599976" width="2523.51" height="298.4" filterUnits="userSpaceOnUse" color-interpolation-filters="sRGB">
<feFlood flood-opacity="0" result="BackgroundImageFix"/>
<feBlend mode="normal" in="SourceGraphic" in2="BackgroundImageFix" result="shape"/>
<feGaussianBlur stdDeviation="2" result="effect1_foregroundBlur"/>
</filter>
</defs>
</svg>
