<svg width="2472" height="296" viewBox="0 0 2472 296" fill="none" xmlns="http://www.w3.org/2000/svg">
<g filter="url(#filter0_f)">
<path d="M142.866 13.8C140.199 13.8 138.866 12.4667 138.866 9.79999C138.866 7.13333 140.199 5.8 142.866 5.8C145.532 5.8 146.866 7.13333 146.866 9.79999C146.866 12.4667 145.532 13.8 142.866 13.8ZM126.466 13.8C123.799 13.8 122.466 12.4667 122.466 9.79999C122.466 7.13333 123.799 5.8 126.466 5.8C129.132 5.8 130.466 7.13333 130.466 9.79999C130.466 12.4667 129.132 13.8 126.466 13.8ZM110.466 16.2C107.799 16.2 106.466 14.8667 106.466 12.2C106.466 9.53332 107.799 8.19999 110.466 8.19999C113.132 8.19999 114.466 9.53332 114.466 12.2C114.466 14.8667 113.132 16.2 110.466 16.2ZM94.4656 20.6C91.799 20.6 90.4656 19.2667 90.4656 16.6C90.4656 13.9333 91.799 12.6 94.4656 12.6C97.1323 12.6 98.4656 13.9333 98.4656 16.6C98.4656 19.2667 97.1323 20.6 94.4656 20.6ZM79.2656 27C76.599 27 75.2656 25.6667 75.2656 23C75.2656 20.3333 76.599 19 79.2656 19C81.9323 19 83.2656 20.3333 83.2656 23C83.2656 25.6667 81.9323 27 79.2656 27ZM64.4656 36.2C61.799 36.2 60.4656 34.8667 60.4656 32.2C60.4656 29.5333 61.799 28.2 64.4656 28.2C67.1323 28.2 68.4656 29.5333 68.4656 32.2C68.4656 34.8667 67.1323 36.2 64.4656 36.2ZM51.2656 47.4C48.599 47.4 47.2656 46.0667 47.2656 43.4C47.2656 40.7333 48.599 39.4 51.2656 39.4C53.9323 39.4 55.2656 40.7333 55.2656 43.4C55.2656 46.0667 53.9323 47.4 51.2656 47.4ZM39.6656 60.2C36.999 60.2 35.6656 58.8667 35.6656 56.2C35.6656 53.5333 36.999 52.2 39.6656 52.2C42.3323 52.2 43.6656 53.5333 43.6656 56.2C43.6656 58.8667 42.3323 60.2 39.6656 60.2ZM30.0656 73.8C27.399 73.8 26.0656 72.4666 26.0656 69.8C26.0656 67.1333 27.399 65.8 30.0656 65.8C32.7323 65.8 34.0656 67.1333 34.0656 69.8C34.0656 72.4666 32.7323 73.8 30.0656 73.8ZM22.0656 88.2C19.399 88.2 18.0656 86.8667 18.0656 84.2C18.0656 81.5333 19.399 80.2 22.0656 80.2C24.7323 80.2 26.0656 81.5333 26.0656 84.2C26.0656 86.8667 24.7323 88.2 22.0656 88.2ZM16.0656 104.2C13.399 104.2 12.0656 102.867 12.0656 100.2C12.0656 97.5333 13.399 96.2 16.0656 96.2C18.7323 96.2 20.0656 97.5333 20.0656 100.2C20.0656 102.867 18.7323 104.2 16.0656 104.2ZM11.6656 120.2C8.99896 120.2 7.66562 118.867 7.66562 116.2C7.66562 113.533 8.99896 112.2 11.6656 112.2C14.3323 112.2 15.6656 113.533 15.6656 116.2C15.6656 118.867 14.3323 120.2 11.6656 120.2ZM9.26563 136.6C6.59896 136.6 5.26563 135.267 5.26563 132.6C5.26563 129.933 6.59896 128.6 9.26563 128.6C11.9323 128.6 13.2656 129.933 13.2656 132.6C13.2656 135.267 11.9323 136.6 9.26563 136.6ZM8.86563 153.8C6.19896 153.8 4.86563 152.467 4.86563 149.8C4.86563 147.133 6.19896 145.8 8.86563 145.8C11.5323 145.8 12.8656 147.133 12.8656 149.8C12.8656 152.467 11.5323 153.8 8.86563 153.8ZM10.0656 170.6C7.39896 170.6 6.06563 169.267 6.06563 166.6C6.06563 163.933 7.39896 162.6 10.0656 162.6C12.7323 162.6 14.0656 163.933 14.0656 166.6C14.0656 169.267 12.7323 170.6 10.0656 170.6ZM13.2656 187.8C10.599 187.8 9.26563 186.467 9.26563 183.8C9.26563 181.133 10.599 179.8 13.2656 179.8C15.9323 179.8 17.2656 181.133 17.2656 183.8C17.2656 186.467 15.9323 187.8 13.2656 187.8ZM18.8656 203.8C16.199 203.8 14.8656 202.467 14.8656 199.8C14.8656 197.133 16.199 195.8 18.8656 195.8C21.5323 195.8 22.8656 197.133 22.8656 199.8C22.8656 202.467 21.5323 203.8 18.8656 203.8ZM25.6656 218.6C22.999 218.6 21.6656 217.267 21.6656 214.6C21.6656 211.933 22.999 210.6 25.6656 210.6C28.3323 210.6 29.6656 211.933 29.6656 214.6C29.6656 217.267 28.3323 218.6 25.6656 218.6ZM33.6656 232.6C30.999 232.6 29.6656 231.267 29.6656 228.6C29.6656 225.933 30.999 224.6 33.6656 224.6C36.3323 224.6 37.6656 225.933 37.6656 228.6C37.6656 231.267 36.3323 232.6 33.6656 232.6ZM44.0656 245.4C41.399 245.4 40.0656 244.067 40.0656 241.4C40.0656 238.733 41.399 237.4 44.0656 237.4C46.7323 237.4 48.0656 238.733 48.0656 241.4C48.0656 244.067 46.7323 245.4 44.0656 245.4ZM55.6656 257C52.999 257 51.6656 255.667 51.6656 253C51.6656 250.333 52.999 249 55.6656 249C58.3323 249 59.6656 250.333 59.6656 253C59.6656 255.667 58.3323 257 55.6656 257ZM68.0656 267C65.399 267 64.0656 265.667 64.0656 263C64.0656 260.333 65.399 259 68.0656 259C70.7323 259 72.0656 260.333 72.0656 263C72.0656 265.667 70.7323 267 68.0656 267ZM81.6656 275.4C78.999 275.4 77.6656 274.067 77.6656 271.4C77.6656 268.733 78.999 267.4 81.6656 267.4C84.3323 267.4 85.6656 268.733 85.6656 271.4C85.6656 274.067 84.3323 275.4 81.6656 275.4ZM97.2656 282.6C94.599 282.6 93.2656 281.267 93.2656 278.6C93.2656 275.933 94.599 274.6 97.2656 274.6C99.9323 274.6 101.266 275.933 101.266 278.6C101.266 281.267 99.9323 282.6 97.2656 282.6ZM111.666 287C108.999 287 107.666 285.667 107.666 283C107.666 280.333 108.999 279 111.666 279C114.332 279 115.666 280.333 115.666 283C115.666 285.667 114.332 287 111.666 287ZM126.866 289C124.199 289 122.866 287.667 122.866 285C122.866 282.333 124.199 281 126.866 281C129.532 281 130.866 282.333 130.866 285C130.866 287.667 129.532 289 126.866 289ZM142.066 289C139.399 289 138.066 287.667 138.066 285C138.066 282.333 139.399 281 142.066 281C144.732 281 146.066 282.333 146.066 285C146.066 287.667 144.732 289 142.066 289ZM157.266 287C154.599 287 153.266 285.667 153.266 283C153.266 280.333 154.599 279 157.266 279C159.932 279 161.266 280.333 161.266 283C161.266 285.667 159.932 287 157.266 287ZM173.266 282.6C170.599 282.6 169.266 281.267 169.266 278.6C169.266 275.933 170.599 274.6 173.266 274.6C175.932 274.6 177.266 275.933 177.266 278.6C177.266 281.267 175.932 282.6 173.266 282.6ZM188.466 276.2C185.799 276.2 184.466 274.867 184.466 272.2C184.466 269.533 185.799 268.2 188.466 268.2C191.132 268.2 192.466 269.533 192.466 272.2C192.466 274.867 191.132 276.2 188.466 276.2ZM202.066 267.8C199.399 267.8 198.066 266.467 198.066 263.8C198.066 261.133 199.399 259.8 202.066 259.8C204.732 259.8 206.066 261.133 206.066 263.8C206.066 266.467 204.732 267.8 202.066 267.8ZM214.466 257.8C211.799 257.8 210.466 256.467 210.466 253.8C210.466 251.133 211.799 249.8 214.466 249.8C217.132 249.8 218.466 251.133 218.466 253.8C218.466 256.467 217.132 257.8 214.466 257.8ZM226.066 246.2C223.399 246.2 222.066 244.867 222.066 242.2C222.066 239.533 223.399 238.2 226.066 238.2C228.732 238.2 230.066 239.533 230.066 242.2C230.066 244.867 228.732 246.2 226.066 246.2ZM236.466 233.4C233.799 233.4 232.466 232.067 232.466 229.4C232.466 226.733 233.799 225.4 236.466 225.4C239.132 225.4 240.466 226.733 240.466 229.4C240.466 232.067 239.132 233.4 236.466 233.4ZM244.466 219.4C241.799 219.4 240.466 218.067 240.466 215.4C240.466 212.733 241.799 211.4 244.466 211.4C247.132 211.4 248.466 212.733 248.466 215.4C248.466 218.067 247.132 219.4 244.466 219.4ZM251.266 204.6C248.599 204.6 247.266 203.267 247.266 200.6C247.266 197.933 248.599 196.6 251.266 196.6C253.932 196.6 255.266 197.933 255.266 200.6C255.266 203.267 253.932 204.6 251.266 204.6ZM256.866 188.6C254.199 188.6 252.866 187.267 252.866 184.6C252.866 181.933 254.199 180.6 256.866 180.6C259.532 180.6 260.866 181.933 260.866 184.6C260.866 187.267 259.532 188.6 256.866 188.6ZM260.066 171.4C257.399 171.4 256.066 170.067 256.066 167.4C256.066 164.733 257.399 163.4 260.066 163.4C262.732 163.4 264.066 164.733 264.066 167.4C264.066 170.067 262.732 171.4 260.066 171.4ZM261.266 154.6C258.599 154.6 257.266 153.267 257.266 150.6C257.266 147.933 258.599 146.6 261.266 146.6C263.932 146.6 265.266 147.933 265.266 150.6C265.266 153.267 263.932 154.6 261.266 154.6ZM260.866 137.4C258.199 137.4 256.866 136.067 256.866 133.4C256.866 130.733 258.199 129.4 260.866 129.4C263.532 129.4 264.866 130.733 264.866 133.4C264.866 136.067 263.532 137.4 260.866 137.4ZM258.466 121C255.799 121 254.466 119.667 254.466 117C254.466 114.333 255.799 113 258.466 113C261.132 113 262.466 114.333 262.466 117C262.466 119.667 261.132 121 258.466 121ZM254.066 105C251.399 105 250.066 103.667 250.066 101C250.066 98.3333 251.399 97 254.066 97C256.732 97 258.066 98.3333 258.066 101C258.066 103.667 256.732 105 254.066 105ZM248.066 89C245.399 89 244.066 87.6667 244.066 85C244.066 82.3333 245.399 81 248.066 81C250.732 81 252.066 82.3333 252.066 85C252.066 87.6667 250.732 89 248.066 89ZM240.066 74.6C237.399 74.6 236.066 73.2667 236.066 70.6C236.066 67.9333 237.399 66.6 240.066 66.6C242.732 66.6 244.066 67.9333 244.066 70.6C244.066 73.2667 242.732 74.6 240.066 74.6ZM230.466 61C227.799 61 226.466 59.6666 226.466 57C226.466 54.3333 227.799 53 230.466 53C233.132 53 234.466 54.3333 234.466 57C234.466 59.6666 233.132 61 230.466 61ZM218.466 47.4C215.799 47.4 214.466 46.0667 214.466 43.4C214.466 40.7333 215.799 39.4 218.466 39.4C221.132 39.4 222.466 40.7333 222.466 43.4C222.466 46.0667 221.132 47.4 218.466 47.4ZM205.266 36.2C202.599 36.2 201.266 34.8667 201.266 32.2C201.266 29.5333 202.599 28.2 205.266 28.2C207.932 28.2 209.266 29.5333 209.266 32.2C209.266 34.8667 207.932 36.2 205.266 36.2ZM190.466 27C187.799 27 186.466 25.6667 186.466 23C186.466 20.3333 187.799 19 190.466 19C193.132 19 194.466 20.3333 194.466 23C194.466 25.6667 193.132 27 190.466 27ZM175.266 20.6C172.599 20.6 171.266 19.2667 171.266 16.6C171.266 13.9333 172.599 12.6 175.266 12.6C177.932 12.6 179.266 13.9333 179.266 16.6C179.266 19.2667 177.932 20.6 175.266 20.6ZM158.866 15.8C156.199 15.8 154.866 14.4667 154.866 11.8C154.866 9.13333 156.199 7.8 158.866 7.8C161.532 7.8 162.866 9.13333 162.866 11.8C162.866 14.4667 161.532 15.8 158.866 15.8ZM491.934 34.6C494.601 34.6 495.934 35.9333 495.934 38.6C495.934 41.2666 494.601 42.6 491.934 42.6C489.268 42.6 487.934 41.2666 487.934 38.6C487.934 35.9333 489.268 34.6 491.934 34.6ZM479.534 23.8C482.201 23.8 483.534 25.1333 483.534 27.8C483.534 30.4667 482.201 31.8 479.534 31.8C476.868 31.8 475.534 30.4667 475.534 27.8C475.534 25.1333 476.868 23.8 479.534 23.8ZM464.734 15.4C467.401 15.4 468.734 16.7333 468.734 19.4C468.734 22.0667 467.401 23.4 464.734 23.4C462.068 23.4 460.734 22.0667 460.734 19.4C460.734 16.7333 462.068 15.4 464.734 15.4ZM449.534 9.79999C452.201 9.79999 453.534 11.1333 453.534 13.8C453.534 16.4667 452.201 17.8 449.534 17.8C446.868 17.8 445.534 16.4667 445.534 13.8C445.534 11.1333 446.868 9.79999 449.534 9.79999ZM433.934 5.8C436.601 5.8 437.934 7.13333 437.934 9.79999C437.934 12.4667 436.601 13.8 433.934 13.8C431.268 13.8 429.934 12.4667 429.934 9.79999C429.934 7.13333 431.268 5.8 433.934 5.8ZM417.934 4.2C420.601 4.2 421.934 5.53333 421.934 8.19999C421.934 10.8667 420.601 12.2 417.934 12.2C415.268 12.2 413.934 10.8667 413.934 8.19999C413.934 5.53333 415.268 4.2 417.934 4.2ZM401.934 4.59999C404.601 4.59999 405.934 5.93332 405.934 8.59999C405.934 11.2667 404.601 12.6 401.934 12.6C399.268 12.6 397.934 11.2667 397.934 8.59999C397.934 5.93332 399.268 4.59999 401.934 4.59999ZM385.934 6.59999C388.601 6.59999 389.934 7.93332 389.934 10.6C389.934 13.2666 388.601 14.6 385.934 14.6C383.268 14.6 381.934 13.2666 381.934 10.6C381.934 7.93332 383.268 6.59999 385.934 6.59999ZM369.134 10.2C371.801 10.2 373.134 11.5333 373.134 14.2C373.134 16.8666 371.801 18.2 369.134 18.2C366.468 18.2 365.134 16.8666 365.134 14.2C365.134 11.5333 366.468 10.2 369.134 10.2ZM353.534 17C356.201 17 357.534 18.3333 357.534 21C357.534 23.6667 356.201 25 353.534 25C350.868 25 349.534 23.6667 349.534 21C349.534 18.3333 350.868 17 353.534 17ZM319.134 86.6C321.801 86.6 323.134 87.9333 323.134 90.6C323.134 93.2667 321.801 94.6 319.134 94.6C316.468 94.6 315.134 93.2667 315.134 90.6C315.134 87.9333 316.468 86.6 319.134 86.6ZM318.334 69.4C321.001 69.4 322.334 70.7333 322.334 73.4C322.334 76.0667 321.001 77.4 318.334 77.4C315.668 77.4 314.334 76.0667 314.334 73.4C314.334 70.7333 315.668 69.4 318.334 69.4ZM321.934 53.8C324.601 53.8 325.934 55.1333 325.934 57.8C325.934 60.4667 324.601 61.8 321.934 61.8C319.268 61.8 317.934 60.4667 317.934 57.8C317.934 55.1333 319.268 53.8 321.934 53.8ZM329.134 39C331.801 39 333.134 40.3333 333.134 43C333.134 45.6667 331.801 47 329.134 47C326.468 47 325.134 45.6667 325.134 43C325.134 40.3333 326.468 39 329.134 39ZM339.934 26.6C342.601 26.6 343.934 27.9333 343.934 30.6C343.934 33.2667 342.601 34.6 339.934 34.6C337.268 34.6 335.934 33.2667 335.934 30.6C335.934 27.9333 337.268 26.6 339.934 26.6ZM324.334 102.2C327.001 102.2 328.334 103.533 328.334 106.2C328.334 108.867 327.001 110.2 324.334 110.2C321.668 110.2 320.334 108.867 320.334 106.2C320.334 103.533 321.668 102.2 324.334 102.2ZM334.734 115.4C337.401 115.4 338.734 116.733 338.734 119.4C338.734 122.067 337.401 123.4 334.734 123.4C332.068 123.4 330.734 122.067 330.734 119.4C330.734 116.733 332.068 115.4 334.734 115.4ZM348.334 125C351.001 125 352.334 126.333 352.334 129C352.334 131.667 351.001 133 348.334 133C345.668 133 344.334 131.667 344.334 129C344.334 126.333 345.668 125 348.334 125ZM363.134 131C365.801 131 367.134 132.333 367.134 135C367.134 137.667 365.801 139 363.134 139C360.468 139 359.134 137.667 359.134 135C359.134 132.333 360.468 131 363.134 131ZM379.534 135.4C382.201 135.4 383.534 136.733 383.534 139.4C383.534 142.067 382.201 143.4 379.534 143.4C376.868 143.4 375.534 142.067 375.534 139.4C375.534 136.733 376.868 135.4 379.534 135.4ZM395.934 139C398.601 139 399.934 140.333 399.934 143C399.934 145.667 398.601 147 395.934 147C393.268 147 391.934 145.667 391.934 143C391.934 140.333 393.268 139 395.934 139ZM411.934 142.6C414.601 142.6 415.934 143.933 415.934 146.6C415.934 149.267 414.601 150.6 411.934 150.6C409.268 150.6 407.934 149.267 407.934 146.6C407.934 143.933 409.268 142.6 411.934 142.6ZM428.334 146.2C431.001 146.2 432.334 147.533 432.334 150.2C432.334 152.867 431.001 154.2 428.334 154.2C425.668 154.2 424.334 152.867 424.334 150.2C424.334 147.533 425.668 146.2 428.334 146.2ZM444.734 149.8C447.401 149.8 448.734 151.133 448.734 153.8C448.734 156.467 447.401 157.8 444.734 157.8C442.068 157.8 440.734 156.467 440.734 153.8C440.734 151.133 442.068 149.8 444.734 149.8ZM460.334 155.4C463.001 155.4 464.334 156.733 464.334 159.4C464.334 162.067 463.001 163.4 460.334 163.4C457.668 163.4 456.334 162.067 456.334 159.4C456.334 156.733 457.668 155.4 460.334 155.4ZM475.134 162.2C477.801 162.2 479.134 163.533 479.134 166.2C479.134 168.867 477.801 170.2 475.134 170.2C472.468 170.2 471.134 168.867 471.134 166.2C471.134 163.533 472.468 162.2 475.134 162.2ZM488.734 171.4C491.401 171.4 492.734 172.733 492.734 175.4C492.734 178.067 491.401 179.4 488.734 179.4C486.068 179.4 484.734 178.067 484.734 175.4C484.734 172.733 486.068 171.4 488.734 171.4ZM499.534 183.4C502.201 183.4 503.534 184.733 503.534 187.4C503.534 190.067 502.201 191.4 499.534 191.4C496.868 191.4 495.534 190.067 495.534 187.4C495.534 184.733 496.868 183.4 499.534 183.4ZM505.934 198.2C508.601 198.2 509.934 199.533 509.934 202.2C509.934 204.867 508.601 206.2 505.934 206.2C503.268 206.2 501.934 204.867 501.934 202.2C501.934 199.533 503.268 198.2 505.934 198.2ZM507.934 213.8C510.601 213.8 511.934 215.133 511.934 217.8C511.934 220.467 510.601 221.8 507.934 221.8C505.268 221.8 503.934 220.467 503.934 217.8C503.934 215.133 505.268 213.8 507.934 213.8ZM506.334 229.4C509.001 229.4 510.334 230.733 510.334 233.4C510.334 236.067 509.001 237.4 506.334 237.4C503.668 237.4 502.334 236.067 502.334 233.4C502.334 230.733 503.668 229.4 506.334 229.4ZM501.534 244.2C504.201 244.2 505.534 245.533 505.534 248.2C505.534 250.867 504.201 252.2 501.534 252.2C498.868 252.2 497.534 250.867 497.534 248.2C497.534 245.533 498.868 244.2 501.534 244.2ZM493.134 257C495.801 257 497.134 258.333 497.134 261C497.134 263.667 495.801 265 493.134 265C490.468 265 489.134 263.667 489.134 261C489.134 258.333 490.468 257 493.134 257ZM481.534 267.4C484.201 267.4 485.534 268.733 485.534 271.4C485.534 274.067 484.201 275.4 481.534 275.4C478.868 275.4 477.534 274.067 477.534 271.4C477.534 268.733 478.868 267.4 481.534 267.4ZM467.134 273.8C469.801 273.8 471.134 275.133 471.134 277.8C471.134 280.467 469.801 281.8 467.134 281.8C464.468 281.8 463.134 280.467 463.134 277.8C463.134 275.133 464.468 273.8 467.134 273.8ZM452.334 278.2C455.001 278.2 456.334 279.533 456.334 282.2C456.334 284.867 455.001 286.2 452.334 286.2C449.668 286.2 448.334 284.867 448.334 282.2C448.334 279.533 449.668 278.2 452.334 278.2ZM437.534 281.4C440.201 281.4 441.534 282.733 441.534 285.4C441.534 288.067 440.201 289.4 437.534 289.4C434.868 289.4 433.534 288.067 433.534 285.4C433.534 282.733 434.868 281.4 437.534 281.4ZM422.334 283.4C425.001 283.4 426.334 284.733 426.334 287.4C426.334 290.067 425.001 291.4 422.334 291.4C419.668 291.4 418.334 290.067 418.334 287.4C418.334 284.733 419.668 283.4 422.334 283.4ZM406.734 282.6C409.401 282.6 410.734 283.933 410.734 286.6C410.734 289.267 409.401 290.6 406.734 290.6C404.068 290.6 402.734 289.267 402.734 286.6C402.734 283.933 404.068 282.6 406.734 282.6ZM391.134 281C393.801 281 395.134 282.333 395.134 285C395.134 287.667 393.801 289 391.134 289C388.468 289 387.134 287.667 387.134 285C387.134 282.333 388.468 281 391.134 281ZM375.934 277.4C378.601 277.4 379.934 278.733 379.934 281.4C379.934 284.067 378.601 285.4 375.934 285.4C373.268 285.4 371.934 284.067 371.934 281.4C371.934 278.733 373.268 277.4 375.934 277.4ZM361.534 273C364.201 273 365.534 274.333 365.534 277C365.534 279.667 364.201 281 361.534 281C358.868 281 357.534 279.667 357.534 277C357.534 274.333 358.868 273 361.534 273ZM347.534 267.4C350.201 267.4 351.534 268.733 351.534 271.4C351.534 274.067 350.201 275.4 347.534 275.4C344.868 275.4 343.534 274.067 343.534 271.4C343.534 268.733 344.868 267.4 347.534 267.4ZM334.334 260.2C337.001 260.2 338.334 261.533 338.334 264.2C338.334 266.867 337.001 268.2 334.334 268.2C331.668 268.2 330.334 266.867 330.334 264.2C330.334 261.533 331.668 260.2 334.334 260.2ZM321.534 251.4C324.201 251.4 325.534 252.733 325.534 255.4C325.534 258.067 324.201 259.4 321.534 259.4C318.868 259.4 317.534 258.067 317.534 255.4C317.534 252.733 318.868 251.4 321.534 251.4ZM309.134 240.6C311.801 240.6 313.134 241.933 313.134 244.6C313.134 247.267 311.801 248.6 309.134 248.6C306.468 248.6 305.134 247.267 305.134 244.6C305.134 241.933 306.468 240.6 309.134 240.6ZM692.866 13.8C690.199 13.8 688.866 12.4667 688.866 9.79999C688.866 7.13333 690.199 5.8 692.866 5.8C695.532 5.8 696.866 7.13333 696.866 9.79999C696.866 12.4667 695.532 13.8 692.866 13.8ZM676.466 13.8C673.799 13.8 672.466 12.4667 672.466 9.79999C672.466 7.13333 673.799 5.8 676.466 5.8C679.132 5.8 680.466 7.13333 680.466 9.79999C680.466 12.4667 679.132 13.8 676.466 13.8ZM660.466 16.2C657.799 16.2 656.466 14.8667 656.466 12.2C656.466 9.53332 657.799 8.19999 660.466 8.19999C663.132 8.19999 664.466 9.53332 664.466 12.2C664.466 14.8667 663.132 16.2 660.466 16.2ZM644.466 20.6C641.799 20.6 640.466 19.2667 640.466 16.6C640.466 13.9333 641.799 12.6 644.466 12.6C647.132 12.6 648.466 13.9333 648.466 16.6C648.466 19.2667 647.132 20.6 644.466 20.6ZM629.266 27C626.599 27 625.266 25.6667 625.266 23C625.266 20.3333 626.599 19 629.266 19C631.932 19 633.266 20.3333 633.266 23C633.266 25.6667 631.932 27 629.266 27ZM614.466 36.2C611.799 36.2 610.466 34.8667 610.466 32.2C610.466 29.5333 611.799 28.2 614.466 28.2C617.132 28.2 618.466 29.5333 618.466 32.2C618.466 34.8667 617.132 36.2 614.466 36.2ZM601.266 47.4C598.599 47.4 597.266 46.0667 597.266 43.4C597.266 40.7333 598.599 39.4 601.266 39.4C603.932 39.4 605.266 40.7333 605.266 43.4C605.266 46.0667 603.932 47.4 601.266 47.4ZM589.666 60.2C586.999 60.2 585.666 58.8667 585.666 56.2C585.666 53.5333 586.999 52.2 589.666 52.2C592.332 52.2 593.666 53.5333 593.666 56.2C593.666 58.8667 592.332 60.2 589.666 60.2ZM580.066 73.8C577.399 73.8 576.066 72.4666 576.066 69.8C576.066 67.1333 577.399 65.8 580.066 65.8C582.732 65.8 584.066 67.1333 584.066 69.8C584.066 72.4666 582.732 73.8 580.066 73.8ZM572.066 88.2C569.399 88.2 568.066 86.8667 568.066 84.2C568.066 81.5333 569.399 80.2 572.066 80.2C574.732 80.2 576.066 81.5333 576.066 84.2C576.066 86.8667 574.732 88.2 572.066 88.2ZM566.066 104.2C563.399 104.2 562.066 102.867 562.066 100.2C562.066 97.5333 563.399 96.2 566.066 96.2C568.732 96.2 570.066 97.5333 570.066 100.2C570.066 102.867 568.732 104.2 566.066 104.2ZM561.666 120.2C558.999 120.2 557.666 118.867 557.666 116.2C557.666 113.533 558.999 112.2 561.666 112.2C564.332 112.2 565.666 113.533 565.666 116.2C565.666 118.867 564.332 120.2 561.666 120.2ZM559.266 136.6C556.599 136.6 555.266 135.267 555.266 132.6C555.266 129.933 556.599 128.6 559.266 128.6C561.932 128.6 563.266 129.933 563.266 132.6C563.266 135.267 561.932 136.6 559.266 136.6ZM558.866 153.8C556.199 153.8 554.866 152.467 554.866 149.8C554.866 147.133 556.199 145.8 558.866 145.8C561.532 145.8 562.866 147.133 562.866 149.8C562.866 152.467 561.532 153.8 558.866 153.8ZM560.066 170.6C557.399 170.6 556.066 169.267 556.066 166.6C556.066 163.933 557.399 162.6 560.066 162.6C562.732 162.6 564.066 163.933 564.066 166.6C564.066 169.267 562.732 170.6 560.066 170.6ZM563.266 187.8C560.599 187.8 559.266 186.467 559.266 183.8C559.266 181.133 560.599 179.8 563.266 179.8C565.932 179.8 567.266 181.133 567.266 183.8C567.266 186.467 565.932 187.8 563.266 187.8ZM568.866 203.8C566.199 203.8 564.866 202.467 564.866 199.8C564.866 197.133 566.199 195.8 568.866 195.8C571.532 195.8 572.866 197.133 572.866 199.8C572.866 202.467 571.532 203.8 568.866 203.8ZM575.666 218.6C572.999 218.6 571.666 217.267 571.666 214.6C571.666 211.933 572.999 210.6 575.666 210.6C578.332 210.6 579.666 211.933 579.666 214.6C579.666 217.267 578.332 218.6 575.666 218.6ZM583.666 232.6C580.999 232.6 579.666 231.267 579.666 228.6C579.666 225.933 580.999 224.6 583.666 224.6C586.332 224.6 587.666 225.933 587.666 228.6C587.666 231.267 586.332 232.6 583.666 232.6ZM594.066 245.4C591.399 245.4 590.066 244.067 590.066 241.4C590.066 238.733 591.399 237.4 594.066 237.4C596.732 237.4 598.066 238.733 598.066 241.4C598.066 244.067 596.732 245.4 594.066 245.4ZM605.666 257C602.999 257 601.666 255.667 601.666 253C601.666 250.333 602.999 249 605.666 249C608.332 249 609.666 250.333 609.666 253C609.666 255.667 608.332 257 605.666 257ZM618.066 267C615.399 267 614.066 265.667 614.066 263C614.066 260.333 615.399 259 618.066 259C620.732 259 622.066 260.333 622.066 263C622.066 265.667 620.732 267 618.066 267ZM631.666 275.4C628.999 275.4 627.666 274.067 627.666 271.4C627.666 268.733 628.999 267.4 631.666 267.4C634.332 267.4 635.666 268.733 635.666 271.4C635.666 274.067 634.332 275.4 631.666 275.4ZM647.266 282.6C644.599 282.6 643.266 281.267 643.266 278.6C643.266 275.933 644.599 274.6 647.266 274.6C649.932 274.6 651.266 275.933 651.266 278.6C651.266 281.267 649.932 282.6 647.266 282.6ZM661.666 287C658.999 287 657.666 285.667 657.666 283C657.666 280.333 658.999 279 661.666 279C664.332 279 665.666 280.333 665.666 283C665.666 285.667 664.332 287 661.666 287ZM676.866 289C674.199 289 672.866 287.667 672.866 285C672.866 282.333 674.199 281 676.866 281C679.532 281 680.866 282.333 680.866 285C680.866 287.667 679.532 289 676.866 289ZM692.066 289C689.399 289 688.066 287.667 688.066 285C688.066 282.333 689.399 281 692.066 281C694.732 281 696.066 282.333 696.066 285C696.066 287.667 694.732 289 692.066 289ZM707.266 287C704.599 287 703.266 285.667 703.266 283C703.266 280.333 704.599 279 707.266 279C709.932 279 711.266 280.333 711.266 283C711.266 285.667 709.932 287 707.266 287ZM723.266 282.6C720.599 282.6 719.266 281.267 719.266 278.6C719.266 275.933 720.599 274.6 723.266 274.6C725.932 274.6 727.266 275.933 727.266 278.6C727.266 281.267 725.932 282.6 723.266 282.6ZM738.466 276.2C735.799 276.2 734.466 274.867 734.466 272.2C734.466 269.533 735.799 268.2 738.466 268.2C741.132 268.2 742.466 269.533 742.466 272.2C742.466 274.867 741.132 276.2 738.466 276.2ZM752.066 267.8C749.399 267.8 748.066 266.467 748.066 263.8C748.066 261.133 749.399 259.8 752.066 259.8C754.732 259.8 756.066 261.133 756.066 263.8C756.066 266.467 754.732 267.8 752.066 267.8ZM764.466 257.8C761.799 257.8 760.466 256.467 760.466 253.8C760.466 251.133 761.799 249.8 764.466 249.8C767.132 249.8 768.466 251.133 768.466 253.8C768.466 256.467 767.132 257.8 764.466 257.8ZM776.066 246.2C773.399 246.2 772.066 244.867 772.066 242.2C772.066 239.533 773.399 238.2 776.066 238.2C778.732 238.2 780.066 239.533 780.066 242.2C780.066 244.867 778.732 246.2 776.066 246.2ZM786.466 233.4C783.799 233.4 782.466 232.067 782.466 229.4C782.466 226.733 783.799 225.4 786.466 225.4C789.132 225.4 790.466 226.733 790.466 229.4C790.466 232.067 789.132 233.4 786.466 233.4ZM794.466 219.4C791.799 219.4 790.466 218.067 790.466 215.4C790.466 212.733 791.799 211.4 794.466 211.4C797.132 211.4 798.466 212.733 798.466 215.4C798.466 218.067 797.132 219.4 794.466 219.4ZM801.266 204.6C798.599 204.6 797.266 203.267 797.266 200.6C797.266 197.933 798.599 196.6 801.266 196.6C803.932 196.6 805.266 197.933 805.266 200.6C805.266 203.267 803.932 204.6 801.266 204.6ZM806.866 188.6C804.199 188.6 802.866 187.267 802.866 184.6C802.866 181.933 804.199 180.6 806.866 180.6C809.532 180.6 810.866 181.933 810.866 184.6C810.866 187.267 809.532 188.6 806.866 188.6ZM810.066 171.4C807.399 171.4 806.066 170.067 806.066 167.4C806.066 164.733 807.399 163.4 810.066 163.4C812.732 163.4 814.066 164.733 814.066 167.4C814.066 170.067 812.732 171.4 810.066 171.4ZM811.266 154.6C808.599 154.6 807.266 153.267 807.266 150.6C807.266 147.933 808.599 146.6 811.266 146.6C813.932 146.6 815.266 147.933 815.266 150.6C815.266 153.267 813.932 154.6 811.266 154.6ZM810.866 137.4C808.199 137.4 806.866 136.067 806.866 133.4C806.866 130.733 808.199 129.4 810.866 129.4C813.532 129.4 814.866 130.733 814.866 133.4C814.866 136.067 813.532 137.4 810.866 137.4ZM808.466 121C805.799 121 804.466 119.667 804.466 117C804.466 114.333 805.799 113 808.466 113C811.132 113 812.466 114.333 812.466 117C812.466 119.667 811.132 121 808.466 121ZM804.066 105C801.399 105 800.066 103.667 800.066 101C800.066 98.3333 801.399 97 804.066 97C806.732 97 808.066 98.3333 808.066 101C808.066 103.667 806.732 105 804.066 105ZM798.066 89C795.399 89 794.066 87.6667 794.066 85C794.066 82.3333 795.399 81 798.066 81C800.732 81 802.066 82.3333 802.066 85C802.066 87.6667 800.732 89 798.066 89ZM790.066 74.6C787.399 74.6 786.066 73.2667 786.066 70.6C786.066 67.9333 787.399 66.6 790.066 66.6C792.732 66.6 794.066 67.9333 794.066 70.6C794.066 73.2667 792.732 74.6 790.066 74.6ZM780.466 61C777.799 61 776.466 59.6666 776.466 57C776.466 54.3333 777.799 53 780.466 53C783.132 53 784.466 54.3333 784.466 57C784.466 59.6666 783.132 61 780.466 61ZM768.466 47.4C765.799 47.4 764.466 46.0667 764.466 43.4C764.466 40.7333 765.799 39.4 768.466 39.4C771.132 39.4 772.466 40.7333 772.466 43.4C772.466 46.0667 771.132 47.4 768.466 47.4ZM755.266 36.2C752.599 36.2 751.266 34.8667 751.266 32.2C751.266 29.5333 752.599 28.2 755.266 28.2C757.932 28.2 759.266 29.5333 759.266 32.2C759.266 34.8667 757.932 36.2 755.266 36.2ZM740.466 27C737.799 27 736.466 25.6667 736.466 23C736.466 20.3333 737.799 19 740.466 19C743.132 19 744.466 20.3333 744.466 23C744.466 25.6667 743.132 27 740.466 27ZM725.266 20.6C722.599 20.6 721.266 19.2667 721.266 16.6C721.266 13.9333 722.599 12.6 725.266 12.6C727.932 12.6 729.266 13.9333 729.266 16.6C729.266 19.2667 727.932 20.6 725.266 20.6ZM708.866 15.8C706.199 15.8 704.866 14.4667 704.866 11.8C704.866 9.13333 706.199 7.8 708.866 7.8C711.532 7.8 712.866 9.13333 712.866 11.8C712.866 14.4667 711.532 15.8 708.866 15.8ZM1041.93 34.6C1044.6 34.6 1045.93 35.9333 1045.93 38.6C1045.93 41.2666 1044.6 42.6 1041.93 42.6C1039.27 42.6 1037.93 41.2666 1037.93 38.6C1037.93 35.9333 1039.27 34.6 1041.93 34.6ZM1029.53 23.8C1032.2 23.8 1033.53 25.1333 1033.53 27.8C1033.53 30.4667 1032.2 31.8 1029.53 31.8C1026.87 31.8 1025.53 30.4667 1025.53 27.8C1025.53 25.1333 1026.87 23.8 1029.53 23.8ZM1014.73 15.4C1017.4 15.4 1018.73 16.7333 1018.73 19.4C1018.73 22.0667 1017.4 23.4 1014.73 23.4C1012.07 23.4 1010.73 22.0667 1010.73 19.4C1010.73 16.7333 1012.07 15.4 1014.73 15.4ZM999.534 9.79999C1002.2 9.79999 1003.53 11.1333 1003.53 13.8C1003.53 16.4667 1002.2 17.8 999.534 17.8C996.868 17.8 995.534 16.4667 995.534 13.8C995.534 11.1333 996.868 9.79999 999.534 9.79999ZM983.934 5.8C986.601 5.8 987.934 7.13333 987.934 9.79999C987.934 12.4667 986.601 13.8 983.934 13.8C981.268 13.8 979.934 12.4667 979.934 9.79999C979.934 7.13333 981.268 5.8 983.934 5.8ZM967.934 4.2C970.601 4.2 971.934 5.53333 971.934 8.19999C971.934 10.8667 970.601 12.2 967.934 12.2C965.268 12.2 963.934 10.8667 963.934 8.19999C963.934 5.53333 965.268 4.2 967.934 4.2ZM951.934 4.59999C954.601 4.59999 955.934 5.93332 955.934 8.59999C955.934 11.2667 954.601 12.6 951.934 12.6C949.268 12.6 947.934 11.2667 947.934 8.59999C947.934 5.93332 949.268 4.59999 951.934 4.59999ZM935.934 6.59999C938.601 6.59999 939.934 7.93332 939.934 10.6C939.934 13.2666 938.601 14.6 935.934 14.6C933.268 14.6 931.934 13.2666 931.934 10.6C931.934 7.93332 933.268 6.59999 935.934 6.59999ZM919.134 10.2C921.801 10.2 923.134 11.5333 923.134 14.2C923.134 16.8666 921.801 18.2 919.134 18.2C916.468 18.2 915.134 16.8666 915.134 14.2C915.134 11.5333 916.468 10.2 919.134 10.2ZM903.534 17C906.201 17 907.534 18.3333 907.534 21C907.534 23.6667 906.201 25 903.534 25C900.868 25 899.534 23.6667 899.534 21C899.534 18.3333 900.868 17 903.534 17ZM869.134 86.6C871.801 86.6 873.134 87.9333 873.134 90.6C873.134 93.2667 871.801 94.6 869.134 94.6C866.468 94.6 865.134 93.2667 865.134 90.6C865.134 87.9333 866.468 86.6 869.134 86.6ZM868.334 69.4C871.001 69.4 872.334 70.7333 872.334 73.4C872.334 76.0667 871.001 77.4 868.334 77.4C865.668 77.4 864.334 76.0667 864.334 73.4C864.334 70.7333 865.668 69.4 868.334 69.4ZM871.934 53.8C874.601 53.8 875.934 55.1333 875.934 57.8C875.934 60.4667 874.601 61.8 871.934 61.8C869.268 61.8 867.934 60.4667 867.934 57.8C867.934 55.1333 869.268 53.8 871.934 53.8ZM879.134 39C881.801 39 883.134 40.3333 883.134 43C883.134 45.6667 881.801 47 879.134 47C876.468 47 875.134 45.6667 875.134 43C875.134 40.3333 876.468 39 879.134 39ZM889.934 26.6C892.601 26.6 893.934 27.9333 893.934 30.6C893.934 33.2667 892.601 34.6 889.934 34.6C887.268 34.6 885.934 33.2667 885.934 30.6C885.934 27.9333 887.268 26.6 889.934 26.6ZM874.334 102.2C877.001 102.2 878.334 103.533 878.334 106.2C878.334 108.867 877.001 110.2 874.334 110.2C871.668 110.2 870.334 108.867 870.334 106.2C870.334 103.533 871.668 102.2 874.334 102.2ZM884.734 115.4C887.401 115.4 888.734 116.733 888.734 119.4C888.734 122.067 887.401 123.4 884.734 123.4C882.068 123.4 880.734 122.067 880.734 119.4C880.734 116.733 882.068 115.4 884.734 115.4ZM898.334 125C901.001 125 902.334 126.333 902.334 129C902.334 131.667 901.001 133 898.334 133C895.668 133 894.334 131.667 894.334 129C894.334 126.333 895.668 125 898.334 125ZM913.134 131C915.801 131 917.134 132.333 917.134 135C917.134 137.667 915.801 139 913.134 139C910.468 139 909.134 137.667 909.134 135C909.134 132.333 910.468 131 913.134 131ZM929.534 135.4C932.201 135.4 933.534 136.733 933.534 139.4C933.534 142.067 932.201 143.4 929.534 143.4C926.868 143.4 925.534 142.067 925.534 139.4C925.534 136.733 926.868 135.4 929.534 135.4ZM945.934 139C948.601 139 949.934 140.333 949.934 143C949.934 145.667 948.601 147 945.934 147C943.268 147 941.934 145.667 941.934 143C941.934 140.333 943.268 139 945.934 139ZM961.934 142.6C964.601 142.6 965.934 143.933 965.934 146.6C965.934 149.267 964.601 150.6 961.934 150.6C959.268 150.6 957.934 149.267 957.934 146.6C957.934 143.933 959.268 142.6 961.934 142.6ZM978.334 146.2C981.001 146.2 982.334 147.533 982.334 150.2C982.334 152.867 981.001 154.2 978.334 154.2C975.668 154.2 974.334 152.867 974.334 150.2C974.334 147.533 975.668 146.2 978.334 146.2ZM994.734 149.8C997.401 149.8 998.734 151.133 998.734 153.8C998.734 156.467 997.401 157.8 994.734 157.8C992.068 157.8 990.734 156.467 990.734 153.8C990.734 151.133 992.068 149.8 994.734 149.8ZM1010.33 155.4C1013 155.4 1014.33 156.733 1014.33 159.4C1014.33 162.067 1013 163.4 1010.33 163.4C1007.67 163.4 1006.33 162.067 1006.33 159.4C1006.33 156.733 1007.67 155.4 1010.33 155.4ZM1025.13 162.2C1027.8 162.2 1029.13 163.533 1029.13 166.2C1029.13 168.867 1027.8 170.2 1025.13 170.2C1022.47 170.2 1021.13 168.867 1021.13 166.2C1021.13 163.533 1022.47 162.2 1025.13 162.2ZM1038.73 171.4C1041.4 171.4 1042.73 172.733 1042.73 175.4C1042.73 178.067 1041.4 179.4 1038.73 179.4C1036.07 179.4 1034.73 178.067 1034.73 175.4C1034.73 172.733 1036.07 171.4 1038.73 171.4ZM1049.53 183.4C1052.2 183.4 1053.53 184.733 1053.53 187.4C1053.53 190.067 1052.2 191.4 1049.53 191.4C1046.87 191.4 1045.53 190.067 1045.53 187.4C1045.53 184.733 1046.87 183.4 1049.53 183.4ZM1055.93 198.2C1058.6 198.2 1059.93 199.533 1059.93 202.2C1059.93 204.867 1058.6 206.2 1055.93 206.2C1053.27 206.2 1051.93 204.867 1051.93 202.2C1051.93 199.533 1053.27 198.2 1055.93 198.2ZM1057.93 213.8C1060.6 213.8 1061.93 215.133 1061.93 217.8C1061.93 220.467 1060.6 221.8 1057.93 221.8C1055.27 221.8 1053.93 220.467 1053.93 217.8C1053.93 215.133 1055.27 213.8 1057.93 213.8ZM1056.33 229.4C1059 229.4 1060.33 230.733 1060.33 233.4C1060.33 236.067 1059 237.4 1056.33 237.4C1053.67 237.4 1052.33 236.067 1052.33 233.4C1052.33 230.733 1053.67 229.4 1056.33 229.4ZM1051.53 244.2C1054.2 244.2 1055.53 245.533 1055.53 248.2C1055.53 250.867 1054.2 252.2 1051.53 252.2C1048.87 252.2 1047.53 250.867 1047.53 248.2C1047.53 245.533 1048.87 244.2 1051.53 244.2ZM1043.13 257C1045.8 257 1047.13 258.333 1047.13 261C1047.13 263.667 1045.8 265 1043.13 265C1040.47 265 1039.13 263.667 1039.13 261C1039.13 258.333 1040.47 257 1043.13 257ZM1031.53 267.4C1034.2 267.4 1035.53 268.733 1035.53 271.4C1035.53 274.067 1034.2 275.4 1031.53 275.4C1028.87 275.4 1027.53 274.067 1027.53 271.4C1027.53 268.733 1028.87 267.4 1031.53 267.4ZM1017.13 273.8C1019.8 273.8 1021.13 275.133 1021.13 277.8C1021.13 280.467 1019.8 281.8 1017.13 281.8C1014.47 281.8 1013.13 280.467 1013.13 277.8C1013.13 275.133 1014.47 273.8 1017.13 273.8ZM1002.33 278.2C1005 278.2 1006.33 279.533 1006.33 282.2C1006.33 284.867 1005 286.2 1002.33 286.2C999.668 286.2 998.334 284.867 998.334 282.2C998.334 279.533 999.668 278.2 1002.33 278.2ZM987.534 281.4C990.201 281.4 991.534 282.733 991.534 285.4C991.534 288.067 990.201 289.4 987.534 289.4C984.868 289.4 983.534 288.067 983.534 285.4C983.534 282.733 984.868 281.4 987.534 281.4ZM972.334 283.4C975.001 283.4 976.334 284.733 976.334 287.4C976.334 290.067 975.001 291.4 972.334 291.4C969.668 291.4 968.334 290.067 968.334 287.4C968.334 284.733 969.668 283.4 972.334 283.4ZM956.734 282.6C959.401 282.6 960.734 283.933 960.734 286.6C960.734 289.267 959.401 290.6 956.734 290.6C954.068 290.6 952.734 289.267 952.734 286.6C952.734 283.933 954.068 282.6 956.734 282.6ZM941.134 281C943.801 281 945.134 282.333 945.134 285C945.134 287.667 943.801 289 941.134 289C938.468 289 937.134 287.667 937.134 285C937.134 282.333 938.468 281 941.134 281ZM925.934 277.4C928.601 277.4 929.934 278.733 929.934 281.4C929.934 284.067 928.601 285.4 925.934 285.4C923.268 285.4 921.934 284.067 921.934 281.4C921.934 278.733 923.268 277.4 925.934 277.4ZM911.534 273C914.201 273 915.534 274.333 915.534 277C915.534 279.667 914.201 281 911.534 281C908.868 281 907.534 279.667 907.534 277C907.534 274.333 908.868 273 911.534 273ZM897.534 267.4C900.201 267.4 901.534 268.733 901.534 271.4C901.534 274.067 900.201 275.4 897.534 275.4C894.868 275.4 893.534 274.067 893.534 271.4C893.534 268.733 894.868 267.4 897.534 267.4ZM884.334 260.2C887.001 260.2 888.334 261.533 888.334 264.2C888.334 266.867 887.001 268.2 884.334 268.2C881.668 268.2 880.334 266.867 880.334 264.2C880.334 261.533 881.668 260.2 884.334 260.2ZM871.534 251.4C874.201 251.4 875.534 252.733 875.534 255.4C875.534 258.067 874.201 259.4 871.534 259.4C868.868 259.4 867.534 258.067 867.534 255.4C867.534 252.733 868.868 251.4 871.534 251.4ZM859.134 240.6C861.801 240.6 863.134 241.933 863.134 244.6C863.134 247.267 861.801 248.6 859.134 248.6C856.468 248.6 855.134 247.267 855.134 244.6C855.134 241.933 856.468 240.6 859.134 240.6ZM1242.87 13.8C1240.2 13.8 1238.87 12.4667 1238.87 9.79999C1238.87 7.13333 1240.2 5.8 1242.87 5.8C1245.53 5.8 1246.87 7.13333 1246.87 9.79999C1246.87 12.4667 1245.53 13.8 1242.87 13.8ZM1226.47 13.8C1223.8 13.8 1222.47 12.4667 1222.47 9.79999C1222.47 7.13333 1223.8 5.8 1226.47 5.8C1229.13 5.8 1230.47 7.13333 1230.47 9.79999C1230.47 12.4667 1229.13 13.8 1226.47 13.8ZM1210.47 16.2C1207.8 16.2 1206.47 14.8667 1206.47 12.2C1206.47 9.53332 1207.8 8.19999 1210.47 8.19999C1213.13 8.19999 1214.47 9.53332 1214.47 12.2C1214.47 14.8667 1213.13 16.2 1210.47 16.2ZM1194.47 20.6C1191.8 20.6 1190.47 19.2667 1190.47 16.6C1190.47 13.9333 1191.8 12.6 1194.47 12.6C1197.13 12.6 1198.47 13.9333 1198.47 16.6C1198.47 19.2667 1197.13 20.6 1194.47 20.6ZM1179.27 27C1176.6 27 1175.27 25.6667 1175.27 23C1175.27 20.3333 1176.6 19 1179.27 19C1181.93 19 1183.27 20.3333 1183.27 23C1183.27 25.6667 1181.93 27 1179.27 27ZM1164.47 36.2C1161.8 36.2 1160.47 34.8667 1160.47 32.2C1160.47 29.5333 1161.8 28.2 1164.47 28.2C1167.13 28.2 1168.47 29.5333 1168.47 32.2C1168.47 34.8667 1167.13 36.2 1164.47 36.2ZM1151.27 47.4C1148.6 47.4 1147.27 46.0667 1147.27 43.4C1147.27 40.7333 1148.6 39.4 1151.27 39.4C1153.93 39.4 1155.27 40.7333 1155.27 43.4C1155.27 46.0667 1153.93 47.4 1151.27 47.4ZM1139.67 60.2C1137 60.2 1135.67 58.8667 1135.67 56.2C1135.67 53.5333 1137 52.2 1139.67 52.2C1142.33 52.2 1143.67 53.5333 1143.67 56.2C1143.67 58.8667 1142.33 60.2 1139.67 60.2ZM1130.07 73.8C1127.4 73.8 1126.07 72.4666 1126.07 69.8C1126.07 67.1333 1127.4 65.8 1130.07 65.8C1132.73 65.8 1134.07 67.1333 1134.07 69.8C1134.07 72.4666 1132.73 73.8 1130.07 73.8ZM1122.07 88.2C1119.4 88.2 1118.07 86.8667 1118.07 84.2C1118.07 81.5333 1119.4 80.2 1122.07 80.2C1124.73 80.2 1126.07 81.5333 1126.07 84.2C1126.07 86.8667 1124.73 88.2 1122.07 88.2ZM1116.07 104.2C1113.4 104.2 1112.07 102.867 1112.07 100.2C1112.07 97.5333 1113.4 96.2 1116.07 96.2C1118.73 96.2 1120.07 97.5333 1120.07 100.2C1120.07 102.867 1118.73 104.2 1116.07 104.2ZM1111.67 120.2C1109 120.2 1107.67 118.867 1107.67 116.2C1107.67 113.533 1109 112.2 1111.67 112.2C1114.33 112.2 1115.67 113.533 1115.67 116.2C1115.67 118.867 1114.33 120.2 1111.67 120.2ZM1109.27 136.6C1106.6 136.6 1105.27 135.267 1105.27 132.6C1105.27 129.933 1106.6 128.6 1109.27 128.6C1111.93 128.6 1113.27 129.933 1113.27 132.6C1113.27 135.267 1111.93 136.6 1109.27 136.6ZM1108.87 153.8C1106.2 153.8 1104.87 152.467 1104.87 149.8C1104.87 147.133 1106.2 145.8 1108.87 145.8C1111.53 145.8 1112.87 147.133 1112.87 149.8C1112.87 152.467 1111.53 153.8 1108.87 153.8ZM1110.07 170.6C1107.4 170.6 1106.07 169.267 1106.07 166.6C1106.07 163.933 1107.4 162.6 1110.07 162.6C1112.73 162.6 1114.07 163.933 1114.07 166.6C1114.07 169.267 1112.73 170.6 1110.07 170.6ZM1113.27 187.8C1110.6 187.8 1109.27 186.467 1109.27 183.8C1109.27 181.133 1110.6 179.8 1113.27 179.8C1115.93 179.8 1117.27 181.133 1117.27 183.8C1117.27 186.467 1115.93 187.8 1113.27 187.8ZM1118.87 203.8C1116.2 203.8 1114.87 202.467 1114.87 199.8C1114.87 197.133 1116.2 195.8 1118.87 195.8C1121.53 195.8 1122.87 197.133 1122.87 199.8C1122.87 202.467 1121.53 203.8 1118.87 203.8ZM1125.67 218.6C1123 218.6 1121.67 217.267 1121.67 214.6C1121.67 211.933 1123 210.6 1125.67 210.6C1128.33 210.6 1129.67 211.933 1129.67 214.6C1129.67 217.267 1128.33 218.6 1125.67 218.6ZM1133.67 232.6C1131 232.6 1129.67 231.267 1129.67 228.6C1129.67 225.933 1131 224.6 1133.67 224.6C1136.33 224.6 1137.67 225.933 1137.67 228.6C1137.67 231.267 1136.33 232.6 1133.67 232.6ZM1144.07 245.4C1141.4 245.4 1140.07 244.067 1140.07 241.4C1140.07 238.733 1141.4 237.4 1144.07 237.4C1146.73 237.4 1148.07 238.733 1148.07 241.4C1148.07 244.067 1146.73 245.4 1144.07 245.4ZM1155.67 257C1153 257 1151.67 255.667 1151.67 253C1151.67 250.333 1153 249 1155.67 249C1158.33 249 1159.67 250.333 1159.67 253C1159.67 255.667 1158.33 257 1155.67 257ZM1168.07 267C1165.4 267 1164.07 265.667 1164.07 263C1164.07 260.333 1165.4 259 1168.07 259C1170.73 259 1172.07 260.333 1172.07 263C1172.07 265.667 1170.73 267 1168.07 267ZM1181.67 275.4C1179 275.4 1177.67 274.067 1177.67 271.4C1177.67 268.733 1179 267.4 1181.67 267.4C1184.33 267.4 1185.67 268.733 1185.67 271.4C1185.67 274.067 1184.33 275.4 1181.67 275.4ZM1197.27 282.6C1194.6 282.6 1193.27 281.267 1193.27 278.6C1193.27 275.933 1194.6 274.6 1197.27 274.6C1199.93 274.6 1201.27 275.933 1201.27 278.6C1201.27 281.267 1199.93 282.6 1197.27 282.6ZM1211.67 287C1209 287 1207.67 285.667 1207.67 283C1207.67 280.333 1209 279 1211.67 279C1214.33 279 1215.67 280.333 1215.67 283C1215.67 285.667 1214.33 287 1211.67 287ZM1226.87 289C1224.2 289 1222.87 287.667 1222.87 285C1222.87 282.333 1224.2 281 1226.87 281C1229.53 281 1230.87 282.333 1230.87 285C1230.87 287.667 1229.53 289 1226.87 289ZM1242.07 289C1239.4 289 1238.07 287.667 1238.07 285C1238.07 282.333 1239.4 281 1242.07 281C1244.73 281 1246.07 282.333 1246.07 285C1246.07 287.667 1244.73 289 1242.07 289ZM1257.27 287C1254.6 287 1253.27 285.667 1253.27 283C1253.27 280.333 1254.6 279 1257.27 279C1259.93 279 1261.27 280.333 1261.27 283C1261.27 285.667 1259.93 287 1257.27 287ZM1273.27 282.6C1270.6 282.6 1269.27 281.267 1269.27 278.6C1269.27 275.933 1270.6 274.6 1273.27 274.6C1275.93 274.6 1277.27 275.933 1277.27 278.6C1277.27 281.267 1275.93 282.6 1273.27 282.6ZM1288.47 276.2C1285.8 276.2 1284.47 274.867 1284.47 272.2C1284.47 269.533 1285.8 268.2 1288.47 268.2C1291.13 268.2 1292.47 269.533 1292.47 272.2C1292.47 274.867 1291.13 276.2 1288.47 276.2ZM1302.07 267.8C1299.4 267.8 1298.07 266.467 1298.07 263.8C1298.07 261.133 1299.4 259.8 1302.07 259.8C1304.73 259.8 1306.07 261.133 1306.07 263.8C1306.07 266.467 1304.73 267.8 1302.07 267.8ZM1314.47 257.8C1311.8 257.8 1310.47 256.467 1310.47 253.8C1310.47 251.133 1311.8 249.8 1314.47 249.8C1317.13 249.8 1318.47 251.133 1318.47 253.8C1318.47 256.467 1317.13 257.8 1314.47 257.8ZM1326.07 246.2C1323.4 246.2 1322.07 244.867 1322.07 242.2C1322.07 239.533 1323.4 238.2 1326.07 238.2C1328.73 238.2 1330.07 239.533 1330.07 242.2C1330.07 244.867 1328.73 246.2 1326.07 246.2ZM1336.47 233.4C1333.8 233.4 1332.47 232.067 1332.47 229.4C1332.47 226.733 1333.8 225.4 1336.47 225.4C1339.13 225.4 1340.47 226.733 1340.47 229.4C1340.47 232.067 1339.13 233.4 1336.47 233.4ZM1344.47 219.4C1341.8 219.4 1340.47 218.067 1340.47 215.4C1340.47 212.733 1341.8 211.4 1344.47 211.4C1347.13 211.4 1348.47 212.733 1348.47 215.4C1348.47 218.067 1347.13 219.4 1344.47 219.4ZM1351.27 204.6C1348.6 204.6 1347.27 203.267 1347.27 200.6C1347.27 197.933 1348.6 196.6 1351.27 196.6C1353.93 196.6 1355.27 197.933 1355.27 200.6C1355.27 203.267 1353.93 204.6 1351.27 204.6ZM1356.87 188.6C1354.2 188.6 1352.87 187.267 1352.87 184.6C1352.87 181.933 1354.2 180.6 1356.87 180.6C1359.53 180.6 1360.87 181.933 1360.87 184.6C1360.87 187.267 1359.53 188.6 1356.87 188.6ZM1360.07 171.4C1357.4 171.4 1356.07 170.067 1356.07 167.4C1356.07 164.733 1357.4 163.4 1360.07 163.4C1362.73 163.4 1364.07 164.733 1364.07 167.4C1364.07 170.067 1362.73 171.4 1360.07 171.4ZM1361.27 154.6C1358.6 154.6 1357.27 153.267 1357.27 150.6C1357.27 147.933 1358.6 146.6 1361.27 146.6C1363.93 146.6 1365.27 147.933 1365.27 150.6C1365.27 153.267 1363.93 154.6 1361.27 154.6ZM1360.87 137.4C1358.2 137.4 1356.87 136.067 1356.87 133.4C1356.87 130.733 1358.2 129.4 1360.87 129.4C1363.53 129.4 1364.87 130.733 1364.87 133.4C1364.87 136.067 1363.53 137.4 1360.87 137.4ZM1358.47 121C1355.8 121 1354.47 119.667 1354.47 117C1354.47 114.333 1355.8 113 1358.47 113C1361.13 113 1362.47 114.333 1362.47 117C1362.47 119.667 1361.13 121 1358.47 121ZM1354.07 105C1351.4 105 1350.07 103.667 1350.07 101C1350.07 98.3333 1351.4 97 1354.07 97C1356.73 97 1358.07 98.3333 1358.07 101C1358.07 103.667 1356.73 105 1354.07 105ZM1348.07 89C1345.4 89 1344.07 87.6667 1344.07 85C1344.07 82.3333 1345.4 81 1348.07 81C1350.73 81 1352.07 82.3333 1352.07 85C1352.07 87.6667 1350.73 89 1348.07 89ZM1340.07 74.6C1337.4 74.6 1336.07 73.2667 1336.07 70.6C1336.07 67.9333 1337.4 66.6 1340.07 66.6C1342.73 66.6 1344.07 67.9333 1344.07 70.6C1344.07 73.2667 1342.73 74.6 1340.07 74.6ZM1330.47 61C1327.8 61 1326.47 59.6666 1326.47 57C1326.47 54.3333 1327.8 53 1330.47 53C1333.13 53 1334.47 54.3333 1334.47 57C1334.47 59.6666 1333.13 61 1330.47 61ZM1318.47 47.4C1315.8 47.4 1314.47 46.0667 1314.47 43.4C1314.47 40.7333 1315.8 39.4 1318.47 39.4C1321.13 39.4 1322.47 40.7333 1322.47 43.4C1322.47 46.0667 1321.13 47.4 1318.47 47.4ZM1305.27 36.2C1302.6 36.2 1301.27 34.8667 1301.27 32.2C1301.27 29.5333 1302.6 28.2 1305.27 28.2C1307.93 28.2 1309.27 29.5333 1309.27 32.2C1309.27 34.8667 1307.93 36.2 1305.27 36.2ZM1290.47 27C1287.8 27 1286.47 25.6667 1286.47 23C1286.47 20.3333 1287.8 19 1290.47 19C1293.13 19 1294.47 20.3333 1294.47 23C1294.47 25.6667 1293.13 27 1290.47 27ZM1275.27 20.6C1272.6 20.6 1271.27 19.2667 1271.27 16.6C1271.27 13.9333 1272.6 12.6 1275.27 12.6C1277.93 12.6 1279.27 13.9333 1279.27 16.6C1279.27 19.2667 1277.93 20.6 1275.27 20.6ZM1258.87 15.8C1256.2 15.8 1254.87 14.4667 1254.87 11.8C1254.87 9.13333 1256.2 7.8 1258.87 7.8C1261.53 7.8 1262.87 9.13333 1262.87 11.8C1262.87 14.4667 1261.53 15.8 1258.87 15.8ZM1548.33 13.8C1545.67 13.8 1544.33 12.4667 1544.33 9.79999C1544.33 7.13333 1545.67 5.8 1548.33 5.8C1551 5.8 1552.33 7.13333 1552.33 9.79999C1552.33 12.4667 1551 13.8 1548.33 13.8ZM1531.93 13.8C1529.27 13.8 1527.93 12.4667 1527.93 9.79999C1527.93 7.13333 1529.27 5.8 1531.93 5.8C1534.6 5.8 1535.93 7.13333 1535.93 9.79999C1535.93 12.4667 1534.6 13.8 1531.93 13.8ZM1515.93 16.2C1513.27 16.2 1511.93 14.8667 1511.93 12.2C1511.93 9.53332 1513.27 8.19999 1515.93 8.19999C1518.6 8.19999 1519.93 9.53332 1519.93 12.2C1519.93 14.8667 1518.6 16.2 1515.93 16.2ZM1499.93 20.6C1497.27 20.6 1495.93 19.2667 1495.93 16.6C1495.93 13.9333 1497.27 12.6 1499.93 12.6C1502.6 12.6 1503.93 13.9333 1503.93 16.6C1503.93 19.2667 1502.6 20.6 1499.93 20.6ZM1484.73 27C1482.07 27 1480.73 25.6667 1480.73 23C1480.73 20.3333 1482.07 19 1484.73 19C1487.4 19 1488.73 20.3333 1488.73 23C1488.73 25.6667 1487.4 27 1484.73 27ZM1469.93 36.2C1467.27 36.2 1465.93 34.8667 1465.93 32.2C1465.93 29.5333 1467.27 28.2 1469.93 28.2C1472.6 28.2 1473.93 29.5333 1473.93 32.2C1473.93 34.8667 1472.6 36.2 1469.93 36.2ZM1456.73 47.4C1454.07 47.4 1452.73 46.0667 1452.73 43.4C1452.73 40.7333 1454.07 39.4 1456.73 39.4C1459.4 39.4 1460.73 40.7333 1460.73 43.4C1460.73 46.0667 1459.4 47.4 1456.73 47.4ZM1445.13 60.2C1442.47 60.2 1441.13 58.8667 1441.13 56.2C1441.13 53.5333 1442.47 52.2 1445.13 52.2C1447.8 52.2 1449.13 53.5333 1449.13 56.2C1449.13 58.8667 1447.8 60.2 1445.13 60.2ZM1435.53 73.8C1432.87 73.8 1431.53 72.4666 1431.53 69.8C1431.53 67.1333 1432.87 65.8 1435.53 65.8C1438.2 65.8 1439.53 67.1333 1439.53 69.8C1439.53 72.4666 1438.2 73.8 1435.53 73.8ZM1427.53 88.2C1424.87 88.2 1423.53 86.8667 1423.53 84.2C1423.53 81.5333 1424.87 80.2 1427.53 80.2C1430.2 80.2 1431.53 81.5333 1431.53 84.2C1431.53 86.8667 1430.2 88.2 1427.53 88.2ZM1421.53 104.2C1418.87 104.2 1417.53 102.867 1417.53 100.2C1417.53 97.5333 1418.87 96.2 1421.53 96.2C1424.2 96.2 1425.53 97.5333 1425.53 100.2C1425.53 102.867 1424.2 104.2 1421.53 104.2ZM1417.13 120.2C1414.47 120.2 1413.13 118.867 1413.13 116.2C1413.13 113.533 1414.47 112.2 1417.13 112.2C1419.8 112.2 1421.13 113.533 1421.13 116.2C1421.13 118.867 1419.8 120.2 1417.13 120.2ZM1414.73 136.6C1412.07 136.6 1410.73 135.267 1410.73 132.6C1410.73 129.933 1412.07 128.6 1414.73 128.6C1417.4 128.6 1418.73 129.933 1418.73 132.6C1418.73 135.267 1417.4 136.6 1414.73 136.6ZM1414.33 153.8C1411.67 153.8 1410.33 152.467 1410.33 149.8C1410.33 147.133 1411.67 145.8 1414.33 145.8C1417 145.8 1418.33 147.133 1418.33 149.8C1418.33 152.467 1417 153.8 1414.33 153.8ZM1415.53 170.6C1412.87 170.6 1411.53 169.267 1411.53 166.6C1411.53 163.933 1412.87 162.6 1415.53 162.6C1418.2 162.6 1419.53 163.933 1419.53 166.6C1419.53 169.267 1418.2 170.6 1415.53 170.6ZM1418.73 187.8C1416.07 187.8 1414.73 186.467 1414.73 183.8C1414.73 181.133 1416.07 179.8 1418.73 179.8C1421.4 179.8 1422.73 181.133 1422.73 183.8C1422.73 186.467 1421.4 187.8 1418.73 187.8ZM1424.33 203.8C1421.67 203.8 1420.33 202.467 1420.33 199.8C1420.33 197.133 1421.67 195.8 1424.33 195.8C1427 195.8 1428.33 197.133 1428.33 199.8C1428.33 202.467 1427 203.8 1424.33 203.8ZM1431.13 218.6C1428.47 218.6 1427.13 217.267 1427.13 214.6C1427.13 211.933 1428.47 210.6 1431.13 210.6C1433.8 210.6 1435.13 211.933 1435.13 214.6C1435.13 217.267 1433.8 218.6 1431.13 218.6ZM1439.13 232.6C1436.47 232.6 1435.13 231.267 1435.13 228.6C1435.13 225.933 1436.47 224.6 1439.13 224.6C1441.8 224.6 1443.13 225.933 1443.13 228.6C1443.13 231.267 1441.8 232.6 1439.13 232.6ZM1449.53 245.4C1446.87 245.4 1445.53 244.067 1445.53 241.4C1445.53 238.733 1446.87 237.4 1449.53 237.4C1452.2 237.4 1453.53 238.733 1453.53 241.4C1453.53 244.067 1452.2 245.4 1449.53 245.4ZM1461.13 257C1458.47 257 1457.13 255.667 1457.13 253C1457.13 250.333 1458.47 249 1461.13 249C1463.8 249 1465.13 250.333 1465.13 253C1465.13 255.667 1463.8 257 1461.13 257ZM1473.53 267C1470.87 267 1469.53 265.667 1469.53 263C1469.53 260.333 1470.87 259 1473.53 259C1476.2 259 1477.53 260.333 1477.53 263C1477.53 265.667 1476.2 267 1473.53 267ZM1487.13 275.4C1484.47 275.4 1483.13 274.067 1483.13 271.4C1483.13 268.733 1484.47 267.4 1487.13 267.4C1489.8 267.4 1491.13 268.733 1491.13 271.4C1491.13 274.067 1489.8 275.4 1487.13 275.4ZM1502.73 282.6C1500.07 282.6 1498.73 281.267 1498.73 278.6C1498.73 275.933 1500.07 274.6 1502.73 274.6C1505.4 274.6 1506.73 275.933 1506.73 278.6C1506.73 281.267 1505.4 282.6 1502.73 282.6ZM1517.13 287C1514.47 287 1513.13 285.667 1513.13 283C1513.13 280.333 1514.47 279 1517.13 279C1519.8 279 1521.13 280.333 1521.13 283C1521.13 285.667 1519.8 287 1517.13 287ZM1532.33 289C1529.67 289 1528.33 287.667 1528.33 285C1528.33 282.333 1529.67 281 1532.33 281C1535 281 1536.33 282.333 1536.33 285C1536.33 287.667 1535 289 1532.33 289ZM1547.53 289C1544.87 289 1543.53 287.667 1543.53 285C1543.53 282.333 1544.87 281 1547.53 281C1550.2 281 1551.53 282.333 1551.53 285C1551.53 287.667 1550.2 289 1547.53 289ZM1562.73 287C1560.07 287 1558.73 285.667 1558.73 283C1558.73 280.333 1560.07 279 1562.73 279C1565.4 279 1566.73 280.333 1566.73 283C1566.73 285.667 1565.4 287 1562.73 287ZM1578.73 282.6C1576.07 282.6 1574.73 281.267 1574.73 278.6C1574.73 275.933 1576.07 274.6 1578.73 274.6C1581.4 274.6 1582.73 275.933 1582.73 278.6C1582.73 281.267 1581.4 282.6 1578.73 282.6ZM1593.93 276.2C1591.27 276.2 1589.93 274.867 1589.93 272.2C1589.93 269.533 1591.27 268.2 1593.93 268.2C1596.6 268.2 1597.93 269.533 1597.93 272.2C1597.93 274.867 1596.6 276.2 1593.93 276.2ZM1607.53 267.8C1604.87 267.8 1603.53 266.467 1603.53 263.8C1603.53 261.133 1604.87 259.8 1607.53 259.8C1610.2 259.8 1611.53 261.133 1611.53 263.8C1611.53 266.467 1610.2 267.8 1607.53 267.8ZM1619.93 257.8C1617.27 257.8 1615.93 256.467 1615.93 253.8C1615.93 251.133 1617.27 249.8 1619.93 249.8C1622.6 249.8 1623.93 251.133 1623.93 253.8C1623.93 256.467 1622.6 257.8 1619.93 257.8ZM1631.53 246.2C1628.87 246.2 1627.53 244.867 1627.53 242.2C1627.53 239.533 1628.87 238.2 1631.53 238.2C1634.2 238.2 1635.53 239.533 1635.53 242.2C1635.53 244.867 1634.2 246.2 1631.53 246.2ZM1641.93 233.4C1639.27 233.4 1637.93 232.067 1637.93 229.4C1637.93 226.733 1639.27 225.4 1641.93 225.4C1644.6 225.4 1645.93 226.733 1645.93 229.4C1645.93 232.067 1644.6 233.4 1641.93 233.4ZM1649.93 219.4C1647.27 219.4 1645.93 218.067 1645.93 215.4C1645.93 212.733 1647.27 211.4 1649.93 211.4C1652.6 211.4 1653.93 212.733 1653.93 215.4C1653.93 218.067 1652.6 219.4 1649.93 219.4ZM1656.73 204.6C1654.07 204.6 1652.73 203.267 1652.73 200.6C1652.73 197.933 1654.07 196.6 1656.73 196.6C1659.4 196.6 1660.73 197.933 1660.73 200.6C1660.73 203.267 1659.4 204.6 1656.73 204.6ZM1662.33 188.6C1659.67 188.6 1658.33 187.267 1658.33 184.6C1658.33 181.933 1659.67 180.6 1662.33 180.6C1665 180.6 1666.33 181.933 1666.33 184.6C1666.33 187.267 1665 188.6 1662.33 188.6ZM1665.53 171.4C1662.87 171.4 1661.53 170.067 1661.53 167.4C1661.53 164.733 1662.87 163.4 1665.53 163.4C1668.2 163.4 1669.53 164.733 1669.53 167.4C1669.53 170.067 1668.2 171.4 1665.53 171.4ZM1666.73 154.6C1664.07 154.6 1662.73 153.267 1662.73 150.6C1662.73 147.933 1664.07 146.6 1666.73 146.6C1669.4 146.6 1670.73 147.933 1670.73 150.6C1670.73 153.267 1669.4 154.6 1666.73 154.6ZM1666.33 137.4C1663.67 137.4 1662.33 136.067 1662.33 133.4C1662.33 130.733 1663.67 129.4 1666.33 129.4C1669 129.4 1670.33 130.733 1670.33 133.4C1670.33 136.067 1669 137.4 1666.33 137.4ZM1663.93 121C1661.27 121 1659.93 119.667 1659.93 117C1659.93 114.333 1661.27 113 1663.93 113C1666.6 113 1667.93 114.333 1667.93 117C1667.93 119.667 1666.6 121 1663.93 121ZM1659.53 105C1656.87 105 1655.53 103.667 1655.53 101C1655.53 98.3333 1656.87 97 1659.53 97C1662.2 97 1663.53 98.3333 1663.53 101C1663.53 103.667 1662.2 105 1659.53 105ZM1653.53 89C1650.87 89 1649.53 87.6667 1649.53 85C1649.53 82.3333 1650.87 81 1653.53 81C1656.2 81 1657.53 82.3333 1657.53 85C1657.53 87.6667 1656.2 89 1653.53 89ZM1645.53 74.6C1642.87 74.6 1641.53 73.2667 1641.53 70.6C1641.53 67.9333 1642.87 66.6 1645.53 66.6C1648.2 66.6 1649.53 67.9333 1649.53 70.6C1649.53 73.2667 1648.2 74.6 1645.53 74.6ZM1635.93 61C1633.27 61 1631.93 59.6666 1631.93 57C1631.93 54.3333 1633.27 53 1635.93 53C1638.6 53 1639.93 54.3333 1639.93 57C1639.93 59.6666 1638.6 61 1635.93 61ZM1623.93 47.4C1621.27 47.4 1619.93 46.0667 1619.93 43.4C1619.93 40.7333 1621.27 39.4 1623.93 39.4C1626.6 39.4 1627.93 40.7333 1627.93 43.4C1627.93 46.0667 1626.6 47.4 1623.93 47.4ZM1610.73 36.2C1608.07 36.2 1606.73 34.8667 1606.73 32.2C1606.73 29.5333 1608.07 28.2 1610.73 28.2C1613.4 28.2 1614.73 29.5333 1614.73 32.2C1614.73 34.8667 1613.4 36.2 1610.73 36.2ZM1595.93 27C1593.27 27 1591.93 25.6667 1591.93 23C1591.93 20.3333 1593.27 19 1595.93 19C1598.6 19 1599.93 20.3333 1599.93 23C1599.93 25.6667 1598.6 27 1595.93 27ZM1580.73 20.6C1578.07 20.6 1576.73 19.2667 1576.73 16.6C1576.73 13.9333 1578.07 12.6 1580.73 12.6C1583.4 12.6 1584.73 13.9333 1584.73 16.6C1584.73 19.2667 1583.4 20.6 1580.73 20.6ZM1564.33 15.8C1561.67 15.8 1560.33 14.4667 1560.33 11.8C1560.33 9.13333 1561.67 7.8 1564.33 7.8C1567 7.8 1568.33 9.13333 1568.33 11.8C1568.33 14.4667 1567 15.8 1564.33 15.8ZM1897.4 34.6C1900.07 34.6 1901.4 35.9333 1901.4 38.6C1901.4 41.2666 1900.07 42.6 1897.4 42.6C1894.74 42.6 1893.4 41.2666 1893.4 38.6C1893.4 35.9333 1894.74 34.6 1897.4 34.6ZM1885 23.8C1887.67 23.8 1889 25.1333 1889 27.8C1889 30.4667 1887.67 31.8 1885 31.8C1882.34 31.8 1881 30.4667 1881 27.8C1881 25.1333 1882.34 23.8 1885 23.8ZM1870.2 15.4C1872.87 15.4 1874.2 16.7333 1874.2 19.4C1874.2 22.0667 1872.87 23.4 1870.2 23.4C1867.54 23.4 1866.2 22.0667 1866.2 19.4C1866.2 16.7333 1867.54 15.4 1870.2 15.4ZM1855 9.79999C1857.67 9.79999 1859 11.1333 1859 13.8C1859 16.4667 1857.67 17.8 1855 17.8C1852.34 17.8 1851 16.4667 1851 13.8C1851 11.1333 1852.34 9.79999 1855 9.79999ZM1839.4 5.8C1842.07 5.8 1843.4 7.13333 1843.4 9.79999C1843.4 12.4667 1842.07 13.8 1839.4 13.8C1836.74 13.8 1835.4 12.4667 1835.4 9.79999C1835.4 7.13333 1836.74 5.8 1839.4 5.8ZM1823.4 4.2C1826.07 4.2 1827.4 5.53333 1827.4 8.19999C1827.4 10.8667 1826.07 12.2 1823.4 12.2C1820.74 12.2 1819.4 10.8667 1819.4 8.19999C1819.4 5.53333 1820.74 4.2 1823.4 4.2ZM1807.4 4.59999C1810.07 4.59999 1811.4 5.93332 1811.4 8.59999C1811.4 11.2667 1810.07 12.6 1807.4 12.6C1804.74 12.6 1803.4 11.2667 1803.4 8.59999C1803.4 5.93332 1804.74 4.59999 1807.4 4.59999ZM1791.4 6.59999C1794.07 6.59999 1795.4 7.93332 1795.4 10.6C1795.4 13.2666 1794.07 14.6 1791.4 14.6C1788.74 14.6 1787.4 13.2666 1787.4 10.6C1787.4 7.93332 1788.74 6.59999 1791.4 6.59999ZM1774.6 10.2C1777.27 10.2 1778.6 11.5333 1778.6 14.2C1778.6 16.8666 1777.27 18.2 1774.6 18.2C1771.94 18.2 1770.6 16.8666 1770.6 14.2C1770.6 11.5333 1771.94 10.2 1774.6 10.2ZM1759 17C1761.67 17 1763 18.3333 1763 21C1763 23.6667 1761.67 25 1759 25C1756.34 25 1755 23.6667 1755 21C1755 18.3333 1756.34 17 1759 17ZM1724.6 86.6C1727.27 86.6 1728.6 87.9333 1728.6 90.6C1728.6 93.2667 1727.27 94.6 1724.6 94.6C1721.94 94.6 1720.6 93.2667 1720.6 90.6C1720.6 87.9333 1721.94 86.6 1724.6 86.6ZM1723.8 69.4C1726.47 69.4 1727.8 70.7333 1727.8 73.4C1727.8 76.0667 1726.47 77.4 1723.8 77.4C1721.14 77.4 1719.8 76.0667 1719.8 73.4C1719.8 70.7333 1721.14 69.4 1723.8 69.4ZM1727.4 53.8C1730.07 53.8 1731.4 55.1333 1731.4 57.8C1731.4 60.4667 1730.07 61.8 1727.4 61.8C1724.74 61.8 1723.4 60.4667 1723.4 57.8C1723.4 55.1333 1724.74 53.8 1727.4 53.8ZM1734.6 39C1737.27 39 1738.6 40.3333 1738.6 43C1738.6 45.6667 1737.27 47 1734.6 47C1731.94 47 1730.6 45.6667 1730.6 43C1730.6 40.3333 1731.94 39 1734.6 39ZM1745.4 26.6C1748.07 26.6 1749.4 27.9333 1749.4 30.6C1749.4 33.2667 1748.07 34.6 1745.4 34.6C1742.74 34.6 1741.4 33.2667 1741.4 30.6C1741.4 27.9333 1742.74 26.6 1745.4 26.6ZM1729.8 102.2C1732.47 102.2 1733.8 103.533 1733.8 106.2C1733.8 108.867 1732.47 110.2 1729.8 110.2C1727.14 110.2 1725.8 108.867 1725.8 106.2C1725.8 103.533 1727.14 102.2 1729.8 102.2ZM1740.2 115.4C1742.87 115.4 1744.2 116.733 1744.2 119.4C1744.2 122.067 1742.87 123.4 1740.2 123.4C1737.54 123.4 1736.2 122.067 1736.2 119.4C1736.2 116.733 1737.54 115.4 1740.2 115.4ZM1753.8 125C1756.47 125 1757.8 126.333 1757.8 129C1757.8 131.667 1756.47 133 1753.8 133C1751.14 133 1749.8 131.667 1749.8 129C1749.8 126.333 1751.14 125 1753.8 125ZM1768.6 131C1771.27 131 1772.6 132.333 1772.6 135C1772.6 137.667 1771.27 139 1768.6 139C1765.94 139 1764.6 137.667 1764.6 135C1764.6 132.333 1765.94 131 1768.6 131ZM1785 135.4C1787.67 135.4 1789 136.733 1789 139.4C1789 142.067 1787.67 143.4 1785 143.4C1782.34 143.4 1781 142.067 1781 139.4C1781 136.733 1782.34 135.4 1785 135.4ZM1801.4 139C1804.07 139 1805.4 140.333 1805.4 143C1805.4 145.667 1804.07 147 1801.4 147C1798.74 147 1797.4 145.667 1797.4 143C1797.4 140.333 1798.74 139 1801.4 139ZM1817.4 142.6C1820.07 142.6 1821.4 143.933 1821.4 146.6C1821.4 149.267 1820.07 150.6 1817.4 150.6C1814.74 150.6 1813.4 149.267 1813.4 146.6C1813.4 143.933 1814.74 142.6 1817.4 142.6ZM1833.8 146.2C1836.47 146.2 1837.8 147.533 1837.8 150.2C1837.8 152.867 1836.47 154.2 1833.8 154.2C1831.14 154.2 1829.8 152.867 1829.8 150.2C1829.8 147.533 1831.14 146.2 1833.8 146.2ZM1850.2 149.8C1852.87 149.8 1854.2 151.133 1854.2 153.8C1854.2 156.467 1852.87 157.8 1850.2 157.8C1847.54 157.8 1846.2 156.467 1846.2 153.8C1846.2 151.133 1847.54 149.8 1850.2 149.8ZM1865.8 155.4C1868.47 155.4 1869.8 156.733 1869.8 159.4C1869.8 162.067 1868.47 163.4 1865.8 163.4C1863.14 163.4 1861.8 162.067 1861.8 159.4C1861.8 156.733 1863.14 155.4 1865.8 155.4ZM1880.6 162.2C1883.27 162.2 1884.6 163.533 1884.6 166.2C1884.6 168.867 1883.27 170.2 1880.6 170.2C1877.94 170.2 1876.6 168.867 1876.6 166.2C1876.6 163.533 1877.94 162.2 1880.6 162.2ZM1894.2 171.4C1896.87 171.4 1898.2 172.733 1898.2 175.4C1898.2 178.067 1896.87 179.4 1894.2 179.4C1891.54 179.4 1890.2 178.067 1890.2 175.4C1890.2 172.733 1891.54 171.4 1894.2 171.4ZM1905 183.4C1907.67 183.4 1909 184.733 1909 187.4C1909 190.067 1907.67 191.4 1905 191.4C1902.34 191.4 1901 190.067 1901 187.4C1901 184.733 1902.34 183.4 1905 183.4ZM1911.4 198.2C1914.07 198.2 1915.4 199.533 1915.4 202.2C1915.4 204.867 1914.07 206.2 1911.4 206.2C1908.74 206.2 1907.4 204.867 1907.4 202.2C1907.4 199.533 1908.74 198.2 1911.4 198.2ZM1913.4 213.8C1916.07 213.8 1917.4 215.133 1917.4 217.8C1917.4 220.467 1916.07 221.8 1913.4 221.8C1910.74 221.8 1909.4 220.467 1909.4 217.8C1909.4 215.133 1910.74 213.8 1913.4 213.8ZM1911.8 229.4C1914.47 229.4 1915.8 230.733 1915.8 233.4C1915.8 236.067 1914.47 237.4 1911.8 237.4C1909.14 237.4 1907.8 236.067 1907.8 233.4C1907.8 230.733 1909.14 229.4 1911.8 229.4ZM1907 244.2C1909.67 244.2 1911 245.533 1911 248.2C1911 250.867 1909.67 252.2 1907 252.2C1904.34 252.2 1903 250.867 1903 248.2C1903 245.533 1904.34 244.2 1907 244.2ZM1898.6 257C1901.27 257 1902.6 258.333 1902.6 261C1902.6 263.667 1901.27 265 1898.6 265C1895.94 265 1894.6 263.667 1894.6 261C1894.6 258.333 1895.94 257 1898.6 257ZM1887 267.4C1889.67 267.4 1891 268.733 1891 271.4C1891 274.067 1889.67 275.4 1887 275.4C1884.34 275.4 1883 274.067 1883 271.4C1883 268.733 1884.34 267.4 1887 267.4ZM1872.6 273.8C1875.27 273.8 1876.6 275.133 1876.6 277.8C1876.6 280.467 1875.27 281.8 1872.6 281.8C1869.94 281.8 1868.6 280.467 1868.6 277.8C1868.6 275.133 1869.94 273.8 1872.6 273.8ZM1857.8 278.2C1860.47 278.2 1861.8 279.533 1861.8 282.2C1861.8 284.867 1860.47 286.2 1857.8 286.2C1855.14 286.2 1853.8 284.867 1853.8 282.2C1853.8 279.533 1855.14 278.2 1857.8 278.2ZM1843 281.4C1845.67 281.4 1847 282.733 1847 285.4C1847 288.067 1845.67 289.4 1843 289.4C1840.34 289.4 1839 288.067 1839 285.4C1839 282.733 1840.34 281.4 1843 281.4ZM1827.8 283.4C1830.47 283.4 1831.8 284.733 1831.8 287.4C1831.8 290.067 1830.47 291.4 1827.8 291.4C1825.14 291.4 1823.8 290.067 1823.8 287.4C1823.8 284.733 1825.14 283.4 1827.8 283.4ZM1812.2 282.6C1814.87 282.6 1816.2 283.933 1816.2 286.6C1816.2 289.267 1814.87 290.6 1812.2 290.6C1809.54 290.6 1808.2 289.267 1808.2 286.6C1808.2 283.933 1809.54 282.6 1812.2 282.6ZM1796.6 281C1799.27 281 1800.6 282.333 1800.6 285C1800.6 287.667 1799.27 289 1796.6 289C1793.94 289 1792.6 287.667 1792.6 285C1792.6 282.333 1793.94 281 1796.6 281ZM1781.4 277.4C1784.07 277.4 1785.4 278.733 1785.4 281.4C1785.4 284.067 1784.07 285.4 1781.4 285.4C1778.74 285.4 1777.4 284.067 1777.4 281.4C1777.4 278.733 1778.74 277.4 1781.4 277.4ZM1767 273C1769.67 273 1771 274.333 1771 277C1771 279.667 1769.67 281 1767 281C1764.34 281 1763 279.667 1763 277C1763 274.333 1764.34 273 1767 273ZM1753 267.4C1755.67 267.4 1757 268.733 1757 271.4C1757 274.067 1755.67 275.4 1753 275.4C1750.34 275.4 1749 274.067 1749 271.4C1749 268.733 1750.34 267.4 1753 267.4ZM1739.8 260.2C1742.47 260.2 1743.8 261.533 1743.8 264.2C1743.8 266.867 1742.47 268.2 1739.8 268.2C1737.14 268.2 1735.8 266.867 1735.8 264.2C1735.8 261.533 1737.14 260.2 1739.8 260.2ZM1727 251.4C1729.67 251.4 1731 252.733 1731 255.4C1731 258.067 1729.67 259.4 1727 259.4C1724.34 259.4 1723 258.067 1723 255.4C1723 252.733 1724.34 251.4 1727 251.4ZM1714.6 240.6C1717.27 240.6 1718.6 241.933 1718.6 244.6C1718.6 247.267 1717.27 248.6 1714.6 248.6C1711.94 248.6 1710.6 247.267 1710.6 244.6C1710.6 241.933 1711.94 240.6 1714.6 240.6ZM2098.33 13.8C2095.67 13.8 2094.33 12.4667 2094.33 9.79999C2094.33 7.13333 2095.67 5.8 2098.33 5.8C2101 5.8 2102.33 7.13333 2102.33 9.79999C2102.33 12.4667 2101 13.8 2098.33 13.8ZM2081.93 13.8C2079.27 13.8 2077.93 12.4667 2077.93 9.79999C2077.93 7.13333 2079.27 5.8 2081.93 5.8C2084.6 5.8 2085.93 7.13333 2085.93 9.79999C2085.93 12.4667 2084.6 13.8 2081.93 13.8ZM2065.93 16.2C2063.27 16.2 2061.93 14.8667 2061.93 12.2C2061.93 9.53332 2063.27 8.19999 2065.93 8.19999C2068.6 8.19999 2069.93 9.53332 2069.93 12.2C2069.93 14.8667 2068.6 16.2 2065.93 16.2ZM2049.93 20.6C2047.27 20.6 2045.93 19.2667 2045.93 16.6C2045.93 13.9333 2047.27 12.6 2049.93 12.6C2052.6 12.6 2053.93 13.9333 2053.93 16.6C2053.93 19.2667 2052.6 20.6 2049.93 20.6ZM2034.73 27C2032.07 27 2030.73 25.6667 2030.73 23C2030.73 20.3333 2032.07 19 2034.73 19C2037.4 19 2038.73 20.3333 2038.73 23C2038.73 25.6667 2037.4 27 2034.73 27ZM2019.93 36.2C2017.27 36.2 2015.93 34.8667 2015.93 32.2C2015.93 29.5333 2017.27 28.2 2019.93 28.2C2022.6 28.2 2023.93 29.5333 2023.93 32.2C2023.93 34.8667 2022.6 36.2 2019.93 36.2ZM2006.73 47.4C2004.07 47.4 2002.73 46.0667 2002.73 43.4C2002.73 40.7333 2004.07 39.4 2006.73 39.4C2009.4 39.4 2010.73 40.7333 2010.73 43.4C2010.73 46.0667 2009.4 47.4 2006.73 47.4ZM1995.13 60.2C1992.47 60.2 1991.13 58.8667 1991.13 56.2C1991.13 53.5333 1992.47 52.2 1995.13 52.2C1997.8 52.2 1999.13 53.5333 1999.13 56.2C1999.13 58.8667 1997.8 60.2 1995.13 60.2ZM1985.53 73.8C1982.87 73.8 1981.53 72.4666 1981.53 69.8C1981.53 67.1333 1982.87 65.8 1985.53 65.8C1988.2 65.8 1989.53 67.1333 1989.53 69.8C1989.53 72.4666 1988.2 73.8 1985.53 73.8ZM1977.53 88.2C1974.87 88.2 1973.53 86.8667 1973.53 84.2C1973.53 81.5333 1974.87 80.2 1977.53 80.2C1980.2 80.2 1981.53 81.5333 1981.53 84.2C1981.53 86.8667 1980.2 88.2 1977.53 88.2ZM1971.53 104.2C1968.87 104.2 1967.53 102.867 1967.53 100.2C1967.53 97.5333 1968.87 96.2 1971.53 96.2C1974.2 96.2 1975.53 97.5333 1975.53 100.2C1975.53 102.867 1974.2 104.2 1971.53 104.2ZM1967.13 120.2C1964.47 120.2 1963.13 118.867 1963.13 116.2C1963.13 113.533 1964.47 112.2 1967.13 112.2C1969.8 112.2 1971.13 113.533 1971.13 116.2C1971.13 118.867 1969.8 120.2 1967.13 120.2ZM1964.73 136.6C1962.07 136.6 1960.73 135.267 1960.73 132.6C1960.73 129.933 1962.07 128.6 1964.73 128.6C1967.4 128.6 1968.73 129.933 1968.73 132.6C1968.73 135.267 1967.4 136.6 1964.73 136.6ZM1964.33 153.8C1961.67 153.8 1960.33 152.467 1960.33 149.8C1960.33 147.133 1961.67 145.8 1964.33 145.8C1967 145.8 1968.33 147.133 1968.33 149.8C1968.33 152.467 1967 153.8 1964.33 153.8ZM1965.53 170.6C1962.87 170.6 1961.53 169.267 1961.53 166.6C1961.53 163.933 1962.87 162.6 1965.53 162.6C1968.2 162.6 1969.53 163.933 1969.53 166.6C1969.53 169.267 1968.2 170.6 1965.53 170.6ZM1968.73 187.8C1966.07 187.8 1964.73 186.467 1964.73 183.8C1964.73 181.133 1966.07 179.8 1968.73 179.8C1971.4 179.8 1972.73 181.133 1972.73 183.8C1972.73 186.467 1971.4 187.8 1968.73 187.8ZM1974.33 203.8C1971.67 203.8 1970.33 202.467 1970.33 199.8C1970.33 197.133 1971.67 195.8 1974.33 195.8C1977 195.8 1978.33 197.133 1978.33 199.8C1978.33 202.467 1977 203.8 1974.33 203.8ZM1981.13 218.6C1978.47 218.6 1977.13 217.267 1977.13 214.6C1977.13 211.933 1978.47 210.6 1981.13 210.6C1983.8 210.6 1985.13 211.933 1985.13 214.6C1985.13 217.267 1983.8 218.6 1981.13 218.6ZM1989.13 232.6C1986.47 232.6 1985.13 231.267 1985.13 228.6C1985.13 225.933 1986.47 224.6 1989.13 224.6C1991.8 224.6 1993.13 225.933 1993.13 228.6C1993.13 231.267 1991.8 232.6 1989.13 232.6ZM1999.53 245.4C1996.87 245.4 1995.53 244.067 1995.53 241.4C1995.53 238.733 1996.87 237.4 1999.53 237.4C2002.2 237.4 2003.53 238.733 2003.53 241.4C2003.53 244.067 2002.2 245.4 1999.53 245.4ZM2011.13 257C2008.47 257 2007.13 255.667 2007.13 253C2007.13 250.333 2008.47 249 2011.13 249C2013.8 249 2015.13 250.333 2015.13 253C2015.13 255.667 2013.8 257 2011.13 257ZM2023.53 267C2020.87 267 2019.53 265.667 2019.53 263C2019.53 260.333 2020.87 259 2023.53 259C2026.2 259 2027.53 260.333 2027.53 263C2027.53 265.667 2026.2 267 2023.53 267ZM2037.13 275.4C2034.47 275.4 2033.13 274.067 2033.13 271.4C2033.13 268.733 2034.47 267.4 2037.13 267.4C2039.8 267.4 2041.13 268.733 2041.13 271.4C2041.13 274.067 2039.8 275.4 2037.13 275.4ZM2052.73 282.6C2050.07 282.6 2048.73 281.267 2048.73 278.6C2048.73 275.933 2050.07 274.6 2052.73 274.6C2055.4 274.6 2056.73 275.933 2056.73 278.6C2056.73 281.267 2055.4 282.6 2052.73 282.6ZM2067.13 287C2064.47 287 2063.13 285.667 2063.13 283C2063.13 280.333 2064.47 279 2067.13 279C2069.8 279 2071.13 280.333 2071.13 283C2071.13 285.667 2069.8 287 2067.13 287ZM2082.33 289C2079.67 289 2078.33 287.667 2078.33 285C2078.33 282.333 2079.67 281 2082.33 281C2085 281 2086.33 282.333 2086.33 285C2086.33 287.667 2085 289 2082.33 289ZM2097.53 289C2094.87 289 2093.53 287.667 2093.53 285C2093.53 282.333 2094.87 281 2097.53 281C2100.2 281 2101.53 282.333 2101.53 285C2101.53 287.667 2100.2 289 2097.53 289ZM2112.73 287C2110.07 287 2108.73 285.667 2108.73 283C2108.73 280.333 2110.07 279 2112.73 279C2115.4 279 2116.73 280.333 2116.73 283C2116.73 285.667 2115.4 287 2112.73 287ZM2128.73 282.6C2126.07 282.6 2124.73 281.267 2124.73 278.6C2124.73 275.933 2126.07 274.6 2128.73 274.6C2131.4 274.6 2132.73 275.933 2132.73 278.6C2132.73 281.267 2131.4 282.6 2128.73 282.6ZM2143.93 276.2C2141.27 276.2 2139.93 274.867 2139.93 272.2C2139.93 269.533 2141.27 268.2 2143.93 268.2C2146.6 268.2 2147.93 269.533 2147.93 272.2C2147.93 274.867 2146.6 276.2 2143.93 276.2ZM2157.53 267.8C2154.87 267.8 2153.53 266.467 2153.53 263.8C2153.53 261.133 2154.87 259.8 2157.53 259.8C2160.2 259.8 2161.53 261.133 2161.53 263.8C2161.53 266.467 2160.2 267.8 2157.53 267.8ZM2169.93 257.8C2167.27 257.8 2165.93 256.467 2165.93 253.8C2165.93 251.133 2167.27 249.8 2169.93 249.8C2172.6 249.8 2173.93 251.133 2173.93 253.8C2173.93 256.467 2172.6 257.8 2169.93 257.8ZM2181.53 246.2C2178.87 246.2 2177.53 244.867 2177.53 242.2C2177.53 239.533 2178.87 238.2 2181.53 238.2C2184.2 238.2 2185.53 239.533 2185.53 242.2C2185.53 244.867 2184.2 246.2 2181.53 246.2ZM2191.93 233.4C2189.27 233.4 2187.93 232.067 2187.93 229.4C2187.93 226.733 2189.27 225.4 2191.93 225.4C2194.6 225.4 2195.93 226.733 2195.93 229.4C2195.93 232.067 2194.6 233.4 2191.93 233.4ZM2199.93 219.4C2197.27 219.4 2195.93 218.067 2195.93 215.4C2195.93 212.733 2197.27 211.4 2199.93 211.4C2202.6 211.4 2203.93 212.733 2203.93 215.4C2203.93 218.067 2202.6 219.4 2199.93 219.4ZM2206.73 204.6C2204.07 204.6 2202.73 203.267 2202.73 200.6C2202.73 197.933 2204.07 196.6 2206.73 196.6C2209.4 196.6 2210.73 197.933 2210.73 200.6C2210.73 203.267 2209.4 204.6 2206.73 204.6ZM2212.33 188.6C2209.67 188.6 2208.33 187.267 2208.33 184.6C2208.33 181.933 2209.67 180.6 2212.33 180.6C2215 180.6 2216.33 181.933 2216.33 184.6C2216.33 187.267 2215 188.6 2212.33 188.6ZM2215.53 171.4C2212.87 171.4 2211.53 170.067 2211.53 167.4C2211.53 164.733 2212.87 163.4 2215.53 163.4C2218.2 163.4 2219.53 164.733 2219.53 167.4C2219.53 170.067 2218.2 171.4 2215.53 171.4ZM2216.73 154.6C2214.07 154.6 2212.73 153.267 2212.73 150.6C2212.73 147.933 2214.07 146.6 2216.73 146.6C2219.4 146.6 2220.73 147.933 2220.73 150.6C2220.73 153.267 2219.4 154.6 2216.73 154.6ZM2216.33 137.4C2213.67 137.4 2212.33 136.067 2212.33 133.4C2212.33 130.733 2213.67 129.4 2216.33 129.4C2219 129.4 2220.33 130.733 2220.33 133.4C2220.33 136.067 2219 137.4 2216.33 137.4ZM2213.93 121C2211.27 121 2209.93 119.667 2209.93 117C2209.93 114.333 2211.27 113 2213.93 113C2216.6 113 2217.93 114.333 2217.93 117C2217.93 119.667 2216.6 121 2213.93 121ZM2209.53 105C2206.87 105 2205.53 103.667 2205.53 101C2205.53 98.3333 2206.87 97 2209.53 97C2212.2 97 2213.53 98.3333 2213.53 101C2213.53 103.667 2212.2 105 2209.53 105ZM2203.53 89C2200.87 89 2199.53 87.6667 2199.53 85C2199.53 82.3333 2200.87 81 2203.53 81C2206.2 81 2207.53 82.3333 2207.53 85C2207.53 87.6667 2206.2 89 2203.53 89ZM2195.53 74.6C2192.87 74.6 2191.53 73.2667 2191.53 70.6C2191.53 67.9333 2192.87 66.6 2195.53 66.6C2198.2 66.6 2199.53 67.9333 2199.53 70.6C2199.53 73.2667 2198.2 74.6 2195.53 74.6ZM2185.93 61C2183.27 61 2181.93 59.6666 2181.93 57C2181.93 54.3333 2183.27 53 2185.93 53C2188.6 53 2189.93 54.3333 2189.93 57C2189.93 59.6666 2188.6 61 2185.93 61ZM2173.93 47.4C2171.27 47.4 2169.93 46.0667 2169.93 43.4C2169.93 40.7333 2171.27 39.4 2173.93 39.4C2176.6 39.4 2177.93 40.7333 2177.93 43.4C2177.93 46.0667 2176.6 47.4 2173.93 47.4ZM2160.73 36.2C2158.07 36.2 2156.73 34.8667 2156.73 32.2C2156.73 29.5333 2158.07 28.2 2160.73 28.2C2163.4 28.2 2164.73 29.5333 2164.73 32.2C2164.73 34.8667 2163.4 36.2 2160.73 36.2ZM2145.93 27C2143.27 27 2141.93 25.6667 2141.93 23C2141.93 20.3333 2143.27 19 2145.93 19C2148.6 19 2149.93 20.3333 2149.93 23C2149.93 25.6667 2148.6 27 2145.93 27ZM2130.73 20.6C2128.07 20.6 2126.73 19.2667 2126.73 16.6C2126.73 13.9333 2128.07 12.6 2130.73 12.6C2133.4 12.6 2134.73 13.9333 2134.73 16.6C2134.73 19.2667 2133.4 20.6 2130.73 20.6ZM2114.33 15.8C2111.67 15.8 2110.33 14.4667 2110.33 11.8C2110.33 9.13333 2111.67 7.8 2114.33 7.8C2117 7.8 2118.33 9.13333 2118.33 11.8C2118.33 14.4667 2117 15.8 2114.33 15.8ZM2447.4 34.6C2450.07 34.6 2451.4 35.9333 2451.4 38.6C2451.4 41.2666 2450.07 42.6 2447.4 42.6C2444.74 42.6 2443.4 41.2666 2443.4 38.6C2443.4 35.9333 2444.74 34.6 2447.4 34.6ZM2435 23.8C2437.67 23.8 2439 25.1333 2439 27.8C2439 30.4667 2437.67 31.8 2435 31.8C2432.34 31.8 2431 30.4667 2431 27.8C2431 25.1333 2432.34 23.8 2435 23.8ZM2420.2 15.4C2422.87 15.4 2424.2 16.7333 2424.2 19.4C2424.2 22.0667 2422.87 23.4 2420.2 23.4C2417.54 23.4 2416.2 22.0667 2416.2 19.4C2416.2 16.7333 2417.54 15.4 2420.2 15.4ZM2405 9.79999C2407.67 9.79999 2409 11.1333 2409 13.8C2409 16.4667 2407.67 17.8 2405 17.8C2402.34 17.8 2401 16.4667 2401 13.8C2401 11.1333 2402.34 9.79999 2405 9.79999ZM2389.4 5.8C2392.07 5.8 2393.4 7.13333 2393.4 9.79999C2393.4 12.4667 2392.07 13.8 2389.4 13.8C2386.74 13.8 2385.4 12.4667 2385.4 9.79999C2385.4 7.13333 2386.74 5.8 2389.4 5.8ZM2373.4 4.2C2376.07 4.2 2377.4 5.53333 2377.4 8.19999C2377.4 10.8667 2376.07 12.2 2373.4 12.2C2370.74 12.2 2369.4 10.8667 2369.4 8.19999C2369.4 5.53333 2370.74 4.2 2373.4 4.2ZM2357.4 4.59999C2360.07 4.59999 2361.4 5.93332 2361.4 8.59999C2361.4 11.2667 2360.07 12.6 2357.4 12.6C2354.74 12.6 2353.4 11.2667 2353.4 8.59999C2353.4 5.93332 2354.74 4.59999 2357.4 4.59999ZM2341.4 6.59999C2344.07 6.59999 2345.4 7.93332 2345.4 10.6C2345.4 13.2666 2344.07 14.6 2341.4 14.6C2338.74 14.6 2337.4 13.2666 2337.4 10.6C2337.4 7.93332 2338.74 6.59999 2341.4 6.59999ZM2324.6 10.2C2327.27 10.2 2328.6 11.5333 2328.6 14.2C2328.6 16.8666 2327.27 18.2 2324.6 18.2C2321.94 18.2 2320.6 16.8666 2320.6 14.2C2320.6 11.5333 2321.94 10.2 2324.6 10.2ZM2309 17C2311.67 17 2313 18.3333 2313 21C2313 23.6667 2311.67 25 2309 25C2306.34 25 2305 23.6667 2305 21C2305 18.3333 2306.34 17 2309 17ZM2274.6 86.6C2277.27 86.6 2278.6 87.9333 2278.6 90.6C2278.6 93.2667 2277.27 94.6 2274.6 94.6C2271.94 94.6 2270.6 93.2667 2270.6 90.6C2270.6 87.9333 2271.94 86.6 2274.6 86.6ZM2273.8 69.4C2276.47 69.4 2277.8 70.7333 2277.8 73.4C2277.8 76.0667 2276.47 77.4 2273.8 77.4C2271.14 77.4 2269.8 76.0667 2269.8 73.4C2269.8 70.7333 2271.14 69.4 2273.8 69.4ZM2277.4 53.8C2280.07 53.8 2281.4 55.1333 2281.4 57.8C2281.4 60.4667 2280.07 61.8 2277.4 61.8C2274.74 61.8 2273.4 60.4667 2273.4 57.8C2273.4 55.1333 2274.74 53.8 2277.4 53.8ZM2284.6 39C2287.27 39 2288.6 40.3333 2288.6 43C2288.6 45.6667 2287.27 47 2284.6 47C2281.94 47 2280.6 45.6667 2280.6 43C2280.6 40.3333 2281.94 39 2284.6 39ZM2295.4 26.6C2298.07 26.6 2299.4 27.9333 2299.4 30.6C2299.4 33.2667 2298.07 34.6 2295.4 34.6C2292.74 34.6 2291.4 33.2667 2291.4 30.6C2291.4 27.9333 2292.74 26.6 2295.4 26.6ZM2279.8 102.2C2282.47 102.2 2283.8 103.533 2283.8 106.2C2283.8 108.867 2282.47 110.2 2279.8 110.2C2277.14 110.2 2275.8 108.867 2275.8 106.2C2275.8 103.533 2277.14 102.2 2279.8 102.2ZM2290.2 115.4C2292.87 115.4 2294.2 116.733 2294.2 119.4C2294.2 122.067 2292.87 123.4 2290.2 123.4C2287.54 123.4 2286.2 122.067 2286.2 119.4C2286.2 116.733 2287.54 115.4 2290.2 115.4ZM2303.8 125C2306.47 125 2307.8 126.333 2307.8 129C2307.8 131.667 2306.47 133 2303.8 133C2301.14 133 2299.8 131.667 2299.8 129C2299.8 126.333 2301.14 125 2303.8 125ZM2318.6 131C2321.27 131 2322.6 132.333 2322.6 135C2322.6 137.667 2321.27 139 2318.6 139C2315.94 139 2314.6 137.667 2314.6 135C2314.6 132.333 2315.94 131 2318.6 131ZM2335 135.4C2337.67 135.4 2339 136.733 2339 139.4C2339 142.067 2337.67 143.4 2335 143.4C2332.34 143.4 2331 142.067 2331 139.4C2331 136.733 2332.34 135.4 2335 135.4ZM2351.4 139C2354.07 139 2355.4 140.333 2355.4 143C2355.4 145.667 2354.07 147 2351.4 147C2348.74 147 2347.4 145.667 2347.4 143C2347.4 140.333 2348.74 139 2351.4 139ZM2367.4 142.6C2370.07 142.6 2371.4 143.933 2371.4 146.6C2371.4 149.267 2370.07 150.6 2367.4 150.6C2364.74 150.6 2363.4 149.267 2363.4 146.6C2363.4 143.933 2364.74 142.6 2367.4 142.6ZM2383.8 146.2C2386.47 146.2 2387.8 147.533 2387.8 150.2C2387.8 152.867 2386.47 154.2 2383.8 154.2C2381.14 154.2 2379.8 152.867 2379.8 150.2C2379.8 147.533 2381.14 146.2 2383.8 146.2ZM2400.2 149.8C2402.87 149.8 2404.2 151.133 2404.2 153.8C2404.2 156.467 2402.87 157.8 2400.2 157.8C2397.54 157.8 2396.2 156.467 2396.2 153.8C2396.2 151.133 2397.54 149.8 2400.2 149.8ZM2415.8 155.4C2418.47 155.4 2419.8 156.733 2419.8 159.4C2419.8 162.067 2418.47 163.4 2415.8 163.4C2413.14 163.4 2411.8 162.067 2411.8 159.4C2411.8 156.733 2413.14 155.4 2415.8 155.4ZM2430.6 162.2C2433.27 162.2 2434.6 163.533 2434.6 166.2C2434.6 168.867 2433.27 170.2 2430.6 170.2C2427.94 170.2 2426.6 168.867 2426.6 166.2C2426.6 163.533 2427.94 162.2 2430.6 162.2ZM2444.2 171.4C2446.87 171.4 2448.2 172.733 2448.2 175.4C2448.2 178.067 2446.87 179.4 2444.2 179.4C2441.54 179.4 2440.2 178.067 2440.2 175.4C2440.2 172.733 2441.54 171.4 2444.2 171.4ZM2455 183.4C2457.67 183.4 2459 184.733 2459 187.4C2459 190.067 2457.67 191.4 2455 191.4C2452.34 191.4 2451 190.067 2451 187.4C2451 184.733 2452.34 183.4 2455 183.4ZM2461.4 198.2C2464.07 198.2 2465.4 199.533 2465.4 202.2C2465.4 204.867 2464.07 206.2 2461.4 206.2C2458.74 206.2 2457.4 204.867 2457.4 202.2C2457.4 199.533 2458.74 198.2 2461.4 198.2ZM2463.4 213.8C2466.07 213.8 2467.4 215.133 2467.4 217.8C2467.4 220.467 2466.07 221.8 2463.4 221.8C2460.74 221.8 2459.4 220.467 2459.4 217.8C2459.4 215.133 2460.74 213.8 2463.4 213.8ZM2461.8 229.4C2464.47 229.4 2465.8 230.733 2465.8 233.4C2465.8 236.067 2464.47 237.4 2461.8 237.4C2459.14 237.4 2457.8 236.067 2457.8 233.4C2457.8 230.733 2459.14 229.4 2461.8 229.4ZM2457 244.2C2459.67 244.2 2461 245.533 2461 248.2C2461 250.867 2459.67 252.2 2457 252.2C2454.34 252.2 2453 250.867 2453 248.2C2453 245.533 2454.34 244.2 2457 244.2ZM2448.6 257C2451.27 257 2452.6 258.333 2452.6 261C2452.6 263.667 2451.27 265 2448.6 265C2445.94 265 2444.6 263.667 2444.6 261C2444.6 258.333 2445.94 257 2448.6 257ZM2437 267.4C2439.67 267.4 2441 268.733 2441 271.4C2441 274.067 2439.67 275.4 2437 275.4C2434.34 275.4 2433 274.067 2433 271.4C2433 268.733 2434.34 267.4 2437 267.4ZM2422.6 273.8C2425.27 273.8 2426.6 275.133 2426.6 277.8C2426.6 280.467 2425.27 281.8 2422.6 281.8C2419.94 281.8 2418.6 280.467 2418.6 277.8C2418.6 275.133 2419.94 273.8 2422.6 273.8ZM2407.8 278.2C2410.47 278.2 2411.8 279.533 2411.8 282.2C2411.8 284.867 2410.47 286.2 2407.8 286.2C2405.14 286.2 2403.8 284.867 2403.8 282.2C2403.8 279.533 2405.14 278.2 2407.8 278.2ZM2393 281.4C2395.67 281.4 2397 282.733 2397 285.4C2397 288.067 2395.67 289.4 2393 289.4C2390.34 289.4 2389 288.067 2389 285.4C2389 282.733 2390.34 281.4 2393 281.4ZM2377.8 283.4C2380.47 283.4 2381.8 284.733 2381.8 287.4C2381.8 290.067 2380.47 291.4 2377.8 291.4C2375.14 291.4 2373.8 290.067 2373.8 287.4C2373.8 284.733 2375.14 283.4 2377.8 283.4ZM2362.2 282.6C2364.87 282.6 2366.2 283.933 2366.2 286.6C2366.2 289.267 2364.87 290.6 2362.2 290.6C2359.54 290.6 2358.2 289.267 2358.2 286.6C2358.2 283.933 2359.54 282.6 2362.2 282.6ZM2346.6 281C2349.27 281 2350.6 282.333 2350.6 285C2350.6 287.667 2349.27 289 2346.6 289C2343.94 289 2342.6 287.667 2342.6 285C2342.6 282.333 2343.94 281 2346.6 281ZM2331.4 277.4C2334.07 277.4 2335.4 278.733 2335.4 281.4C2335.4 284.067 2334.07 285.4 2331.4 285.4C2328.74 285.4 2327.4 284.067 2327.4 281.4C2327.4 278.733 2328.74 277.4 2331.4 277.4ZM2317 273C2319.67 273 2321 274.333 2321 277C2321 279.667 2319.67 281 2317 281C2314.34 281 2313 279.667 2313 277C2313 274.333 2314.34 273 2317 273ZM2303 267.4C2305.67 267.4 2307 268.733 2307 271.4C2307 274.067 2305.67 275.4 2303 275.4C2300.34 275.4 2299 274.067 2299 271.4C2299 268.733 2300.34 267.4 2303 267.4ZM2289.8 260.2C2292.47 260.2 2293.8 261.533 2293.8 264.2C2293.8 266.867 2292.47 268.2 2289.8 268.2C2287.14 268.2 2285.8 266.867 2285.8 264.2C2285.8 261.533 2287.14 260.2 2289.8 260.2ZM2277 251.4C2279.67 251.4 2281 252.733 2281 255.4C2281 258.067 2279.67 259.4 2277 259.4C2274.34 259.4 2273 258.067 2273 255.4C2273 252.733 2274.34 251.4 2277 251.4ZM2264.6 240.6C2267.27 240.6 2268.6 241.933 2268.6 244.6C2268.6 247.267 2267.27 248.6 2264.6 248.6C2261.94 248.6 2260.6 247.267 2260.6 244.6C2260.6 241.933 2261.94 240.6 2264.6 240.6Z" fill="white" fill-opacity="0.8"/>
</g>
<defs>
<filter id="filter0_f" x="0.865601" y="0.199951" width="2470.54" height="295.2" filterUnits="userSpaceOnUse" color-interpolation-filters="sRGB">
<feFlood flood-opacity="0" result="BackgroundImageFix"/>
<feBlend mode="normal" in="SourceGraphic" in2="BackgroundImageFix" result="shape"/>
<feGaussianBlur stdDeviation="2" result="effect1_foregroundBlur"/>
</filter>
</defs>
</svg>
