<svg width="1181" height="1145" viewBox="0 0 1181 1145" fill="none" xmlns="http://www.w3.org/2000/svg">
<path fill-rule="evenodd" clip-rule="evenodd" d="M513.968 138.817L518.254 137.945L522.508 136.846L526.738 135.522L530.952 133.974L535.158 132.205L539.363 130.222L543.577 128.029L547.807 125.637L552.06 123.053L556.345 120.291L560.667 117.363L565.035 114.286L569.453 111.076L573.928 107.754L578.464 104.342L583.065 100.864L587.734 97.3461L592.473 93.817L597.283 90.3071L602.163 86.849L607.112 83.4763L612.126 80.2248L617.201 77.1306L622.331 74.2303L627.509 71.561L632.725 69.1588L637.968 67.0587L643.229 65.2942L648.493 63.8958L653.748 62.8911L658.98 62.3037L664.173 62.1531L669.314 62.4535L674.388 63.2138L679.381 64.4375L684.282 66.122L689.077 68.259L693.757 70.8342L698.313 73.8282L702.739 77.2163L707.029 80.9691L711.182 85.0533L715.197 89.4324L719.075 94.0668L722.821 98.915L726.441 103.935L729.942 109.082L733.335 114.314L736.631 119.587L739.843 124.858L742.985 130.088L746.074 135.236L749.127 140.264L752.161 145.135L755.196 149.816L758.251 154.273L761.349 158.475L764.51 162.392L767.76 165.993L771.12 169.253L774.619 172.141L778.283 174.63L782.141 176.692L786.216 178.317L790.507 179.539L795.008 180.399L799.715 180.935L804.622 181.184L809.72 181.182L815 180.967L820.452 180.574L826.063 180.038L831.819 179.397L837.704 178.686L843.699 177.943L849.785 177.204L855.94 176.506L862.138 175.885L868.355 175.379L874.563 175.021L880.733 174.847L886.836 174.888L892.842 175.176L898.72 175.736L904.44 176.595L909.975 177.773L915.296 179.288L920.379 181.152L925.201 183.373L929.741 185.956L933.985 188.899L937.919 192.197L941.534 195.839L944.828 199.813L947.798 204.098L950.449 208.675L952.788 213.52L954.827 218.605L956.58 223.902L958.065 229.384L959.3 235.019L960.31 240.779L961.116 246.633L961.744 252.555L962.219 258.516L962.567 264.493L962.814 270.46L962.985 276.396L963.106 282.282L963.201 288.101L963.292 293.836L963.404 299.476L963.555 305.008L963.768 310.424L964.059 315.716L964.446 320.879L964.945 325.909L965.571 330.803L966.337 335.562L967.255 340.185L968.336 344.674L969.591 349.031L971.026 353.26L972.65 357.365L974.469 361.353L976.488 365.229L978.71 368.999L981.139 372.671L983.776 376.253L986.62 379.754L989.671 383.182L992.925 386.547L996.379 389.858L1000.03 393.126L1003.86 396.361L1007.87 399.573L1012.04 402.775L1016.37 405.977L1020.83 409.19L1025.41 412.426L1030.09 415.696L1034.84 419.011L1039.65 422.382L1044.47 425.819L1049.29 429.333L1054.07 432.934L1058.78 436.628L1063.39 440.425L1067.85 444.33L1072.12 448.349L1076.19 452.486L1079.99 456.742L1083.51 461.118L1086.7 465.613L1089.53 470.224L1091.98 474.945L1094.01 479.771L1095.61 484.693L1096.76 489.701L1097.45 494.783L1097.67 499.928L1097.42 505.123L1096.72 510.352L1095.56 515.603L1093.98 520.861L1091.99 526.112L1089.62 531.343L1086.9 536.541L1083.88 541.695L1080.58 546.796L1077.05 551.834L1073.33 556.803L1069.47 561.698L1065.52 566.514L1061.5 571.25L1057.48 575.907L1053.49 580.485L1049.58 584.988L1045.78 589.422L1042.14 593.792L1038.69 598.106L1035.48 602.375L1032.53 606.608L1029.89 610.818L1027.58 615.019L1025.65 619.225L1024.12 623.453L1023.04 627.722L1022.43 632.049L1022.3 636.451L1022.6 640.937L1023.31 645.514L1024.37 650.188L1025.75 654.964L1027.42 659.845L1029.33 664.835L1031.46 669.932L1033.75 675.136L1036.18 680.445L1038.7 685.852L1041.27 691.352L1043.85 696.937L1046.4 702.595L1048.88 708.315L1051.24 714.083L1053.44 719.883L1055.44 725.698L1057.2 731.509L1058.68 737.297L1059.85 743.042L1060.69 748.722L1061.15 754.316L1061.22 759.806L1060.87 765.17L1060.1 770.39L1058.9 775.449L1057.27 780.332L1055.2 785.027L1052.71 789.522L1049.81 793.811L1046.52 797.888L1042.86 801.751L1038.87 805.401L1034.56 808.842L1029.97 812.079L1025.13 815.12L1020.08 817.976L1014.86 820.659L1009.5 823.184L1004.02 825.565L998.476 827.819L992.887 829.962L987.284 832.012L981.697 833.987L976.15 835.905L970.667 837.782L965.269 839.637L959.975 841.486L954.8 843.346L949.759 845.233L944.864 847.161L940.124 849.146L935.549 851.201L931.142 853.338L926.91 855.571L922.855 857.91L918.978 860.366L915.28 862.949L911.759 865.668L908.413 868.531L905.238 871.544L902.229 874.715L899.382 878.049L896.689 881.55L894.144 885.221L891.737 889.066L889.461 893.084L887.303 897.277L885.255 901.642L883.304 906.176L881.437 910.875L879.641 915.733L877.901 920.741L876.203 925.89L874.531 931.167L872.869 936.558L871.198 942.047L869.501 947.615L867.76 953.24L865.957 958.899L864.073 964.567L862.088 970.216L859.986 975.815L857.747 981.333L855.355 986.738L852.795 991.995L850.05 997.07L847.109 1001.93L843.96 1006.54L840.595 1010.86L837.008 1014.87L833.195 1018.54L829.155 1021.83L824.892 1024.74L820.409 1027.25L815.716 1029.33L810.823 1030.99L805.744 1032.21L800.495 1033.02L795.094 1033.41L789.559 1033.39L783.913 1033L778.176 1032.24L772.371 1031.16L766.518 1029.78L760.64 1028.14L754.757 1026.27L748.889 1024.22L743.053 1022.02L737.266 1019.71L731.543 1017.35L725.898 1014.96L720.34 1012.59L714.88 1010.29L709.525 1008.09L704.28 1006.03L699.149 1004.16L694.134 1002.5L689.235 1001.09L684.451 999.985L679.779 999.207L675.216 998.797L670.755 998.794L666.391 999.238L662.114 1000.16L657.906 1001.55L653.746 1003.37L649.616 1005.58L645.499 1008.15L641.379 1011.04L637.242 1014.23L633.075 1017.68L628.866 1021.34L624.605 1025.19L620.283 1029.19L615.893 1033.29L611.428 1037.45L606.885 1041.63L602.262 1045.79L597.556 1049.88L592.77 1053.87L587.905 1057.69L582.965 1061.32L577.958 1064.71L572.89 1067.81L567.771 1070.59L562.611 1073.01L557.422 1075.04L552.216 1076.66L547.007 1077.85L541.808 1078.58L536.633 1078.84L531.495 1078.64L526.409 1077.97L521.385 1076.84L516.435 1075.26L511.569 1073.25L506.796 1070.83L502.122 1068.04L497.553 1064.89L493.093 1061.42L488.743 1057.67L484.503 1053.68L480.373 1049.48L476.349 1045.11L472.427 1040.6L468.601 1035.99L464.865 1031.32L461.21 1026.63L457.629 1021.93L454.112 1017.26L450.65 1012.65L447.231 1008.12L443.847 1003.7L440.485 999.399L437.136 995.239L433.788 991.236L430.432 987.402L427.056 983.749L423.65 980.286L420.204 977.02L416.708 973.957L413.152 971.101L409.528 968.454L405.827 966.018L402.04 963.793L398.16 961.776L394.179 959.965L390.091 958.357L385.89 956.945L381.57 955.723L377.127 954.685L372.557 953.82L367.858 953.12L363.029 952.572L358.068 952.164L352.976 951.883L347.757 951.713L342.413 951.638L336.951 951.639L331.377 951.699L325.7 951.795L319.932 951.906L314.086 952.009L308.177 952.079L302.222 952.093L296.24 952.023L290.254 951.843L284.286 951.526L278.361 951.046L272.507 950.377L266.75 949.493L261.119 948.37L255.644 946.985L250.353 945.32L245.274 943.355L240.435 941.078L235.86 938.477L231.573 935.545L227.594 932.278L223.939 928.679L220.623 924.752L217.652 920.507L215.033 915.958L212.765 911.122L210.843 906.021L209.258 900.677L207.997 895.118L207.042 889.372L206.372 883.469L205.962 877.439L205.784 871.315L205.81 865.126L206.006 858.904L206.338 852.678L206.774 846.476L207.276 840.324L207.809 834.247L208.337 828.268L208.824 822.407L209.234 816.684L209.53 811.115L209.678 805.715L209.641 800.497L209.385 795.473L208.872 790.651L208.067 786.041L206.932 781.651L205.429 777.486L203.516 773.553L201.172 769.846L198.416 766.338L195.277 762.999L191.781 759.801L187.956 756.718L183.829 753.724L179.428 750.797L174.785 747.912L169.929 745.049L164.895 742.186L159.715 739.303L154.428 736.381L149.069 733.403L143.68 730.351L138.302 727.211L132.975 723.967L127.745 720.608L122.652 717.122L117.742 713.502L113.055 709.74L108.632 705.831L104.512 701.774L100.731 697.567L97.3204 693.214L94.3084 688.719L91.7181 684.087L89.5678 679.329L87.8698 674.453L86.6309 669.473L85.8521 664.4L85.5287 659.25L85.6501 654.037L86.2009 648.776L87.1606 643.481L88.5047 638.169L90.2049 632.853L92.23 627.546L94.5464 622.26L97.1189 617.007L99.9114 611.797L102.887 606.637L106.01 601.535L109.243 596.496L112.553 591.524L115.905 586.62L119.269 581.787L122.613 577.025L125.911 572.331L129.137 567.703L132.266 563.138L135.278 558.632L138.153 554.18L140.875 549.775L143.427 545.413L145.797 541.085L147.974 536.784L149.948 532.505L151.711 528.238L153.256 523.976L154.58 519.71L155.679 515.434L156.55 511.139L157.194 506.817L157.611 502.46L157.804 498.061L157.776 493.613L157.532 489.109L157.078 484.543L156.422 479.908L155.574 475.199L154.543 470.411L153.343 465.54L151.987 460.584L150.492 455.54L148.874 450.407L147.153 445.185L145.35 439.875L143.488 434.48L141.592 429.004L139.689 423.454L137.807 417.837L135.975 412.161L134.226 406.439L132.59 400.682L131.101 394.906L129.792 389.126L128.696 383.36L127.845 377.628L127.271 371.948L127.003 366.342L127.068 360.831L127.491 355.438L128.292 350.182L129.489 345.084L131.093 340.164L133.112 335.438L135.548 330.924L138.398 326.633L141.655 322.577L145.305 318.763L149.329 315.194L153.705 311.873L158.405 308.796L163.4 305.958L168.657 303.35L174.138 300.959L179.807 298.772L185.625 296.77L191.554 294.934L197.554 293.243L203.588 291.672L209.619 290.198L215.61 288.795L221.529 287.434L227.342 286.09L233.019 284.734L238.533 283.337L243.856 281.87L248.965 280.305L253.836 278.61L258.448 276.755L262.781 274.709L266.816 272.44L270.534 269.913L273.918 267.094L276.95 263.946L279.642 260.458L282.031 256.647L284.153 252.529L286.041 248.122L287.73 243.443L289.25 238.511L290.634 233.347L291.912 227.973L293.115 222.412L294.272 216.689L295.413 210.832L296.567 204.87L297.763 198.834L299.029 192.758L300.391 186.675L301.876 180.624L303.509 174.639L305.312 168.76L307.307 163.025L309.511 157.472L311.942 152.136L314.611 147.054L317.53 142.259L320.706 137.781L324.14 133.646L327.833 129.877L331.782 126.493L335.979 123.506L340.413 120.926L345.073 118.755L349.942 116.992L355.002 115.629L360.233 114.655L365.615 114.054L371.125 113.806L376.742 113.886L382.443 114.269L388.206 114.926L394.01 115.826L399.834 116.937L405.661 118.227L411.473 119.664L417.255 121.215L422.992 122.848L428.672 124.533L434.286 126.241L439.825 127.943L445.281 129.614L450.651 131.228L455.93 132.762L461.116 134.196L466.209 135.511L471.209 136.688L476.118 137.713L480.939 138.571L485.674 139.249L490.329 139.737L494.909 140.026L499.419 140.107L503.866 139.974L508.255 139.622L512.595 139.047L513.968 138.817Z" fill="url(#paint0_linear)"/>
<defs>
<linearGradient id="paint0_linear" x1="1085.36" y1="-343.735" x2="-118.679" y2="1998.92" gradientUnits="userSpaceOnUse">
<stop stop-color="#FFEBE2"/>
<stop offset="0.614583" stop-color="#EEDCD4"/>
<stop offset="1" stop-color="#73706E"/>
</linearGradient>
</defs>
</svg>
