<svg width="1181" height="1080" viewBox="0 0 1181 1080" fill="none" xmlns="http://www.w3.org/2000/svg">
<path fill-rule="evenodd" clip-rule="evenodd" d="M513.968 103.817L518.254 102.945L522.508 101.846L526.738 100.522L530.952 98.9736L535.158 97.2052L539.363 95.2217L543.577 93.0295L547.807 90.6366L552.06 88.0531L556.345 85.2908L560.667 82.3631L565.035 79.2856L569.453 76.0761L573.928 72.7543L578.464 69.3421L583.065 65.864L587.734 62.3461L592.473 58.817L597.283 55.3071L602.163 51.849L607.112 48.4763L612.126 45.2248L617.201 42.1306L622.331 39.2303L627.509 36.561L632.725 34.1588L637.968 32.0587L643.229 30.2942L648.493 28.8958L653.748 27.8911L658.98 27.3037L664.173 27.1531L669.314 27.4535L674.388 28.2138L679.381 29.4375L684.282 31.122L689.077 33.259L693.757 35.8342L698.313 38.8282L702.739 42.2163L707.029 45.9691L711.182 50.0533L715.197 54.4324L719.075 59.0668L722.821 63.915L726.441 68.9347L729.942 74.082L733.335 79.3137L736.631 84.5866L739.843 89.8584L742.985 95.0879L746.074 100.236L749.127 105.264L752.161 110.135L755.196 114.816L758.251 119.273L761.349 123.475L764.51 127.392L767.76 130.993L771.12 134.253L774.619 137.141L778.283 139.63L782.141 141.692L786.216 143.317L790.507 144.539L795.008 145.399L799.715 145.935L804.622 146.184L809.72 146.182L815 145.967L820.452 145.574L826.063 145.038L831.819 144.397L837.704 143.686L843.699 142.943L849.785 142.204L855.94 141.506L862.138 140.885L868.355 140.379L874.563 140.021L880.733 139.847L886.836 139.888L892.842 140.176L898.72 140.736L904.44 141.595L909.975 142.773L915.296 144.288L920.379 146.152L925.201 148.373L929.741 150.956L933.985 153.899L937.919 157.197L941.534 160.839L944.828 164.813L947.798 169.098L950.449 173.675L952.788 178.52L954.827 183.605L956.58 188.902L958.065 194.384L959.3 200.019L960.31 205.779L961.116 211.633L961.744 217.555L962.219 223.516L962.567 229.493L962.814 235.46L962.985 241.396L963.106 247.282L963.201 253.101L963.292 258.836L963.404 264.476L963.555 270.008L963.768 275.424L964.059 280.716L964.446 285.879L964.945 290.909L965.571 295.803L966.337 300.562L967.255 305.185L968.336 309.674L969.591 314.031L971.026 318.26L972.65 322.365L974.469 326.353L976.488 330.229L978.71 333.999L981.139 337.671L983.776 341.253L986.62 344.754L989.671 348.182L992.925 351.547L996.379 354.858L1000.03 358.126L1003.86 361.361L1007.87 364.573L1012.04 367.775L1016.37 370.977L1020.83 374.19L1025.41 377.426L1030.09 380.696L1034.84 384.011L1039.65 387.382L1044.47 390.819L1049.29 394.333L1054.07 397.934L1058.78 401.628L1063.39 405.425L1067.85 409.33L1072.12 413.349L1076.19 417.486L1079.99 421.742L1083.51 426.118L1086.7 430.613L1089.53 435.224L1091.98 439.945L1094.01 444.771L1095.61 449.693L1096.76 454.701L1097.45 459.783L1097.67 464.928L1097.42 470.123L1096.72 475.352L1095.56 480.603L1093.98 485.861L1091.99 491.112L1089.62 496.343L1086.9 501.541L1083.88 506.695L1080.58 511.796L1077.05 516.834L1073.33 521.803L1069.47 526.698L1065.52 531.514L1061.5 536.25L1057.48 540.907L1053.49 545.485L1049.58 549.988L1045.78 554.422L1042.14 558.792L1038.69 563.106L1035.48 567.375L1032.53 571.608L1029.89 575.818L1027.58 580.019L1025.65 584.225L1024.12 588.453L1023.04 592.722L1022.43 597.049L1022.3 601.451L1022.6 605.937L1023.31 610.514L1024.37 615.188L1025.75 619.964L1027.42 624.845L1029.33 629.835L1031.46 634.932L1033.75 640.136L1036.18 645.445L1038.7 650.852L1041.27 656.352L1043.85 661.937L1046.4 667.595L1048.88 673.315L1051.24 679.083L1053.44 684.883L1055.44 690.698L1057.2 696.509L1058.68 702.297L1059.85 708.042L1060.69 713.722L1061.15 719.316L1061.22 724.806L1060.87 730.17L1060.1 735.39L1058.9 740.449L1057.27 745.332L1055.2 750.027L1052.71 754.522L1049.81 758.811L1046.52 762.888L1042.86 766.751L1038.87 770.401L1034.56 773.842L1029.97 777.079L1025.13 780.12L1020.08 782.976L1014.86 785.659L1009.5 788.184L1004.02 790.565L998.476 792.819L992.887 794.962L987.284 797.012L981.697 798.987L976.15 800.905L970.667 802.782L965.269 804.637L959.975 806.486L954.8 808.346L949.759 810.233L944.864 812.161L940.124 814.146L935.549 816.201L931.142 818.338L926.91 820.571L922.855 822.91L918.978 825.366L915.28 827.949L911.759 830.668L908.413 833.531L905.238 836.544L902.229 839.715L899.382 843.049L896.689 846.55L894.144 850.221L891.737 854.066L889.461 858.084L887.303 862.277L885.255 866.642L883.304 871.176L881.437 875.875L879.641 880.733L877.901 885.741L876.203 890.89L874.531 896.167L872.869 901.558L871.198 907.047L869.501 912.615L867.76 918.24L865.957 923.899L864.073 929.567L862.088 935.216L859.986 940.815L857.747 946.333L855.355 951.738L852.795 956.995L850.05 962.07L847.109 966.928L843.96 971.536L840.595 975.859L837.008 979.869L833.195 983.536L829.155 986.834L824.892 989.743L820.409 992.245L815.716 994.328L810.823 995.985L805.744 997.214L800.495 998.017L795.094 998.406L789.559 998.393L783.913 997.998L778.176 997.245L772.371 996.163L766.518 994.782L760.64 993.139L754.757 991.271L748.889 989.216L743.053 987.016L737.266 984.712L731.543 982.346L725.898 979.96L720.34 977.595L714.88 975.292L709.525 973.092L704.28 971.033L699.149 969.155L694.134 967.497L689.235 966.094L684.451 964.985L679.779 964.207L675.216 963.797L670.755 963.794L666.391 964.238L662.114 965.162L657.906 966.55L653.746 968.367L649.616 970.577L645.499 973.148L641.379 976.045L637.242 979.233L633.075 982.679L628.866 986.344L624.605 990.193L620.283 994.187L615.893 998.285L611.428 1002.45L606.885 1006.63L602.262 1010.79L597.556 1014.88L592.77 1018.87L587.905 1022.69L582.965 1026.32L577.958 1029.71L572.89 1032.81L567.771 1035.59L562.611 1038.01L557.422 1040.04L552.216 1041.66L547.007 1042.85L541.808 1043.58L536.633 1043.84L531.495 1043.64L526.409 1042.97L521.385 1041.84L516.435 1040.26L511.569 1038.25L506.796 1035.83L502.122 1033.04L497.553 1029.89L493.093 1026.42L488.743 1022.67L484.503 1018.68L480.373 1014.48L476.349 1010.11L472.427 1005.6L468.601 1000.99L464.865 996.324L461.21 991.626L457.629 986.929L454.112 982.262L450.65 977.652L447.231 973.124L443.847 968.699L440.485 964.399L437.136 960.239L433.788 956.236L430.432 952.402L427.056 948.749L423.65 945.286L420.204 942.02L416.708 938.957L413.152 936.101L409.528 933.454L405.827 931.018L402.04 928.793L398.16 926.776L394.179 924.965L390.091 923.357L385.89 921.945L381.57 920.723L377.127 919.685L372.557 918.82L367.858 918.12L363.029 917.572L358.068 917.164L352.976 916.883L347.757 916.713L342.413 916.638L336.951 916.639L331.377 916.699L325.7 916.795L319.932 916.906L314.086 917.009L308.177 917.079L302.222 917.093L296.24 917.023L290.254 916.843L284.286 916.526L278.361 916.046L272.507 915.377L266.75 914.493L261.119 913.37L255.644 911.985L250.353 910.32L245.274 908.355L240.435 906.078L235.86 903.477L231.573 900.545L227.594 897.278L223.939 893.679L220.623 889.752L217.652 885.507L215.033 880.958L212.765 876.122L210.843 871.021L209.258 865.677L207.997 860.118L207.042 854.372L206.372 848.469L205.962 842.439L205.784 836.315L205.81 830.126L206.006 823.904L206.338 817.678L206.774 811.476L207.276 805.324L207.809 799.247L208.337 793.268L208.824 787.407L209.234 781.684L209.53 776.115L209.678 770.715L209.641 765.497L209.385 760.473L208.872 755.651L208.067 751.041L206.932 746.651L205.429 742.486L203.516 738.553L201.172 734.846L198.416 731.338L195.277 727.999L191.781 724.801L187.956 721.718L183.829 718.724L179.428 715.797L174.785 712.912L169.929 710.049L164.895 707.186L159.715 704.303L154.428 701.381L149.069 698.403L143.68 695.351L138.302 692.211L132.975 688.967L127.745 685.608L122.652 682.122L117.742 678.502L113.055 674.74L108.632 670.831L104.512 666.774L100.731 662.567L97.3204 658.214L94.3084 653.719L91.7181 649.087L89.5678 644.329L87.8698 639.453L86.6309 634.473L85.8521 629.4L85.5287 624.25L85.6501 619.037L86.2009 613.776L87.1606 608.481L88.5047 603.169L90.2049 597.853L92.23 592.546L94.5464 587.26L97.1189 582.007L99.9114 576.797L102.887 571.637L106.01 566.535L109.243 561.496L112.553 556.524L115.905 551.62L119.269 546.787L122.613 542.025L125.911 537.331L129.137 532.703L132.266 528.138L135.278 523.632L138.153 519.18L140.875 514.775L143.427 510.413L145.797 506.085L147.974 501.784L149.948 497.505L151.711 493.238L153.256 488.976L154.58 484.71L155.679 480.434L156.55 476.139L157.194 471.817L157.611 467.46L157.804 463.061L157.776 458.613L157.532 454.109L157.078 449.543L156.422 444.908L155.574 440.199L154.543 435.411L153.343 430.54L151.987 425.584L150.492 420.54L148.874 415.407L147.153 410.185L145.35 404.875L143.488 399.48L141.592 394.004L139.689 388.454L137.807 382.837L135.975 377.161L134.226 371.439L132.59 365.682L131.101 359.906L129.792 354.126L128.696 348.36L127.845 342.628L127.271 336.948L127.003 331.342L127.068 325.831L127.491 320.438L128.292 315.182L129.489 310.084L131.093 305.164L133.112 300.438L135.548 295.924L138.398 291.633L141.655 287.577L145.305 283.763L149.329 280.194L153.705 276.873L158.405 273.796L163.4 270.958L168.657 268.35L174.138 265.959L179.807 263.772L185.625 261.77L191.554 259.934L197.554 258.243L203.588 256.672L209.619 255.198L215.61 253.795L221.529 252.434L227.342 251.09L233.019 249.734L238.533 248.337L243.856 246.87L248.965 245.305L253.836 243.61L258.448 241.755L262.781 239.709L266.816 237.44L270.534 234.913L273.918 232.094L276.95 228.946L279.642 225.458L282.031 221.647L284.153 217.529L286.041 213.122L287.73 208.443L289.25 203.511L290.634 198.347L291.912 192.973L293.115 187.412L294.272 181.689L295.413 175.832L296.567 169.87L297.763 163.834L299.029 157.758L300.391 151.675L301.876 145.624L303.509 139.639L305.312 133.76L307.307 128.025L309.511 122.472L311.942 117.136L314.611 112.054L317.53 107.259L320.706 102.781L324.14 98.6459L327.833 94.8771L331.782 91.4926L335.979 88.5061L340.413 85.9258L345.073 83.755L349.942 81.9917L355.002 80.6291L360.233 79.6553L365.615 79.0541L371.125 78.8057L376.742 78.8861L382.443 79.2692L388.206 79.9259L394.01 80.8259L399.834 81.937L405.661 83.2274L411.473 84.664L417.255 86.2148L422.992 87.8482L428.672 89.5333L434.286 91.2411L439.825 92.9432L445.281 94.6135L450.651 96.2275L455.93 97.762L461.116 99.1962L466.209 100.511L471.209 101.688L476.118 102.713L480.939 103.571L485.674 104.249L490.329 104.737L494.909 105.026L499.419 105.107L503.866 104.974L508.255 104.622L512.595 104.047L513.968 103.817Z" fill="#5A688B"/>
</svg>
